# 3ds Max Wavefront OBJ Exporter v0.94b - (c)2007 guruware
# File Created: 29.10.2010 18:08:16

mtllib Wood Box.mtl

#
# object Object01
#

v  100.0850 200.1580 -100.0560
v  100.0850 188.3090 -100.0560
v  87.7980 188.2570 -100.0390
v  100.0850 11.6748 -100.0560
v  87.7980 11.7157 -100.0390
v  100.0850 -0.0391 -100.0560
v  87.8506 -0.0391 -100.0560
v  -87.7411 -0.0391 -100.0560
v  -87.7637 11.7157 -100.0390
v  -100.0030 -0.0391 -100.0560
v  -99.9998 11.6748 -100.0560
v  -99.9998 188.2310 -100.0560
v  -87.7637 188.2570 -100.0390
v  -99.9998 200.1580 -100.0560
v  -87.7573 200.0730 -100.0560
v  87.7903 200.0730 -100.0560
v  -99.9940 188.3700 -87.8001
v  -99.9998 200.1580 -87.7982
v  -99.9998 200.1580 87.7388
v  -100.0010 188.3700 87.7408
v  -99.9998 200.1580 99.9999
v  -99.9998 188.2310 99.9999
v  -100.0010 11.7162 87.7409
v  -99.9998 11.6748 99.9999
v  -99.9998 -0.0391 99.9999
v  -99.9998 -0.0391 87.7407
v  -99.9998 -0.0391 -87.8790
v  -99.9940 11.7162 -87.8001
v  87.8271 5.6658 -87.8103
v  -87.7411 -0.0391 -87.8790
v  87.8506 -0.0391 -87.8790
v  87.8271 5.6658 87.6893
v  87.8506 -0.0391 87.7407
v  -87.7411 -0.0391 87.7407
v  -87.7637 200.1580 87.7409
v  87.7980 194.1690 87.7409
v  -87.7637 194.1690 87.7409
v  87.7980 200.1580 87.7409
v  87.7980 194.1690 -87.8001
v  87.7980 200.1580 -87.8001
v  -87.7637 200.1580 -87.8001
v  -87.7637 194.1690 -87.8001
v  94.1516 188.2570 87.7411
v  100.0840 188.2570 87.7389
v  94.1516 11.7157 87.7414
v  100.0840 11.7157 87.7389
v  94.1516 11.7157 -87.7977
v  100.0600 11.7157 -87.7977
v  94.1516 188.2570 -87.7977
v  100.0600 188.2570 -87.7977
v  87.7940 188.2570 94.1541
v  87.7905 188.2570 100.0000
v  -87.7637 188.2570 94.1541
v  -87.7637 188.2570 100.0040
v  -87.7637 11.7157 94.1541
v  -87.7637 11.7157 100.0040
v  87.7940 11.7157 94.1541
v  87.7905 11.7157 100.0000
v  -94.1543 188.2350 -87.8001
v  -94.1543 11.7162 -87.8001
v  -94.1543 11.7162 87.7409
v  -94.1543 188.2350 87.7409
v  87.7980 188.2570 -94.1524
v  87.7980 11.7157 -94.1524
v  -87.7637 11.7157 -94.1524
v  -87.7637 188.2570 -94.1524
v  100.0850 -0.0391 -87.8790
v  100.0850 -0.0391 87.7407
v  100.0850 -0.0391 99.9999
v  87.8506 -0.0391 99.9999
v  -87.7411 -0.0391 99.9999
v  -87.7674 5.6658 -87.9081
v  -87.7674 5.6658 87.2969
v  100.0850 200.1580 -87.7982
v  100.0850 200.1580 87.7388
v  100.0850 200.1580 99.9999
v  87.7903 200.1580 99.9999
v  -87.7573 200.1580 99.9999
v  100.0850 11.6748 99.9999
v  100.0850 188.2610 99.9999
# 80 vertices

vn -0.0014 0.0000 -1.0000
vn 0.0000 0.0014 -1.0000
vn 0.0014 -0.0000 -1.0000
vn 0.0014 0.0000 -1.0000
vn -0.0000 -0.0014 -1.0000
vn 0.0000 -0.0014 -1.0000
vn -1.0000 -0.0005 -0.0000
vn -1.0000 0.0001 -0.0000
vn -1.0000 0.0000 0.0001
vn -1.0000 -0.0001 -0.0000
vn -1.0000 0.0005 -0.0000
vn -1.0000 0.0005 0.0003
vn -1.0000 0.0003 0.0005
vn -1.0000 0.0000 0.0005
vn 0.0000 -0.0120 0.9999
vn -1.0000 -0.0041 -0.0000
vn 0.0000 -0.0090 -1.0000
vn 0.0000 0.0000 -1.0000
vn -1.0000 0.0000 -0.0000
vn 0.0000 0.0000 1.0000
vn 1.0000 0.0000 -0.0000
vn -0.0004 -0.0000 -1.0000
vn -0.0004 0.0000 -1.0000
vn 0.0000 1.0000 -0.0000
vn 0.0000 -1.0000 -0.0000
vn -1.0000 0.0000 -0.0006
vn 0.0000 -0.0000 -1.0000
vn -0.0231 -0.9997 -0.0000
vn 0.0069 1.0000 -0.0069
vn 0.0000 1.0000 -0.0069
vn -0.0069 1.0000 -0.0069
vn 0.0022 -0.0775 -0.9970
vn 1.0000 0.0046 -0.0000
vn -0.0006 0.0051 1.0000
vn 1.0000 0.0021 -0.0000
vn 1.0000 0.0001 -0.0001
vn 1.0000 0.0001 -0.0000
vn 1.0000 0.0000 -0.0001
vn 1.0000 -0.0001 -0.0000
vn 1.0000 -0.0001 -0.0001
vn 1.0000 -0.0021 -0.0000
vn 1.0000 0.0000 0.0020
vn 0.0000 -0.0003 1.0000
vn 0.0000 -0.0000 1.0000
vn 0.0000 0.0003 1.0000
vn -0.0003 0.0000 1.0000
# 46 vertex normals

vt -1.9956 0.9997 0.0000
vt -1.9956 0.9217 0.0000
vt -1.9066 0.9217 0.0000
vt -1.9956 0.0863 0.0000
vt -1.9066 0.0863 0.0000
vt -1.9956 0.0002 0.0000
vt -1.9066 0.0002 0.0000
vt -1.0834 0.0002 0.0000
vt -1.0834 0.0863 0.0000
vt -0.9983 0.0002 0.0000
vt -0.9983 0.0863 0.0000
vt -0.9983 0.9217 0.0000
vt -1.0834 0.9217 0.0000
vt -0.9983 0.9997 0.0000
vt -1.0834 0.9997 0.0000
vt -1.9066 0.9997 0.0000
vt -0.9164 0.9217 0.0000
vt -0.9164 0.9997 0.0000
vt -0.0827 0.9997 0.0000
vt -0.0827 0.9217 0.0000
vt 0.0008 0.9997 0.0000
vt 0.0008 0.9217 0.0000
vt -0.0827 0.0863 0.0000
vt 0.0008 0.0863 0.0000
vt 0.0008 0.0002 0.0000
vt -0.0827 0.0002 0.0000
vt -0.9164 0.0002 0.0000
vt -0.9164 0.0863 0.0000
vt 1.8829 -0.1034 0.0000
vt 1.9146 -0.9139 0.0000
vt 1.9146 -0.0789 0.0000
vt 1.1170 -0.1034 0.0000
vt 1.0828 -0.0789 0.0000
vt 1.0828 -0.9139 0.0000
vt 1.0828 1.9218 0.0000
vt 1.1170 1.1096 0.0000
vt 1.1170 1.8980 0.0000
vt 1.0828 1.0861 0.0000
vt 1.8829 1.1088 0.0000
vt 1.9147 1.0861 0.0000
vt 1.9145 1.9218 0.0000
vt 1.8829 1.8980 0.0000
vt 1.1170 0.8932 0.0000
vt 1.0828 0.9217 0.0000
vt 1.1170 0.1049 0.0000
vt 1.0828 0.0863 0.0000
vt 1.8829 0.1049 0.0000
vt 1.9146 0.0863 0.0000
vt 1.8829 0.8932 0.0000
vt 1.9149 0.9217 0.0000
vt 0.8835 0.8932 0.0000
vt 0.9159 0.9217 0.0000
vt 0.1166 0.8932 0.0000
vt 0.0808 0.9217 0.0000
vt 0.1177 0.1060 0.0000
vt 0.0808 0.0863 0.0000
vt 0.8835 0.1060 0.0000
vt 0.9159 0.0863 0.0000
vt -0.8828 0.8932 0.0000
vt -0.8828 0.1060 0.0000
vt -0.1139 0.1060 0.0000
vt -0.1134 0.8932 0.0000
vt -1.8751 0.8932 0.0000
vt -1.8754 0.1060 0.0000
vt -1.1175 0.1060 0.0000
vt -1.1175 0.8932 0.0000
vt 1.9955 0.0002 0.0000
vt 1.9145 0.0002 0.0000
vt 1.0828 0.0002 0.0000
vt 1.0028 0.0002 0.0000
vt 1.0028 -0.0789 0.0000
vt 1.0028 -0.9139 0.0000
vt 1.0028 -0.9994 0.0000
vt 1.0828 -0.9991 0.0000
vt 1.9146 -0.9994 0.0000
vt 1.9980 -0.9994 0.0000
vt 1.9980 -0.9139 0.0000
vt 1.9980 -0.0789 0.0000
vt 1.8829 -0.8928 0.0000
vt 1.1170 -0.8928 0.0000
vt 1.0828 1.9973 0.0000
vt 1.0028 1.9973 0.0000
vt 1.9142 1.9973 0.0000
vt 1.9961 1.9973 0.0000
vt 1.9960 1.9218 0.0000
vt 1.9979 1.0861 0.0000
vt 1.9980 0.9997 0.0000
vt 1.9146 0.9997 0.0000
vt 1.0828 0.9997 0.0000
vt 1.0028 0.9997 0.0000
vt 1.0028 1.0861 0.0000
vt 1.0028 1.9218 0.0000
vt 1.0028 0.0863 0.0000
vt 1.0028 0.9217 0.0000
vt 1.9983 0.9217 0.0000
vt 1.9980 0.0863 0.0000
vt 0.0808 0.0002 0.0000
vt 0.9159 0.0002 0.0000
vt 0.9159 0.9997 0.0000
vt 0.0808 0.9997 0.0000
# 100 texture coords

g Object01
usemtl Standardmaterial
s off
f -80/-100/-46 -79/-99/-46 -78/-98/-46 
f -77/-97/-46 -78/-98/-46 -79/-99/-46 
f -78/-98/-46 -77/-97/-46 -76/-96/-46 
f -75/-95/-46 -76/-96/-46 -77/-97/-46 
f -76/-96/-45 -75/-95/-45 -74/-94/-45 
f -73/-93/-45 -76/-96/-45 -74/-94/-45 
f -76/-96/-45 -73/-93/-45 -72/-92/-45 
f -71/-91/-45 -72/-92/-45 -73/-93/-45 
f -72/-92/-44 -71/-91/-44 -70/-90/-44 
f -69/-89/-43 -72/-92/-43 -70/-90/-43 
f -72/-92/-43 -69/-89/-43 -68/-88/-43 
f -67/-87/-43 -68/-88/-43 -69/-89/-43 
f -66/-86/-42 -68/-88/-42 -67/-87/-42 
f -68/-88/-41 -66/-86/-41 -78/-98/-41 
f -65/-85/-41 -78/-98/-41 -66/-86/-41 
f -78/-98/-41 -65/-85/-41 -80/-100/-41 
f -64/-84/-40 -63/-83/-40 -67/-87/-40 
f -63/-83/-40 -64/-84/-40 -62/-82/-40 
f -61/-81/-39 -62/-82/-39 -64/-84/-39 
f -62/-82/-39 -61/-81/-39 -60/-80/-39 
f -60/-80/-38 -61/-81/-38 -59/-79/-38 
f -58/-78/-38 -59/-79/-38 -61/-81/-38 
f -59/-79/-38 -58/-78/-38 -57/-77/-38 
f -57/-77/-38 -58/-78/-38 -56/-76/-38 
f -56/-76/-37 -58/-78/-37 -55/-75/-37 
f -55/-75/-37 -58/-78/-37 -54/-74/-37 
f -53/-73/-36 -54/-74/-36 -58/-78/-36 
f -54/-74/-35 -53/-73/-35 -71/-91/-35 
f -71/-91/-34 -53/-73/-34 -70/-90/-34 
f -64/-84/-33 -70/-90/-33 -53/-73/-33 
f -70/-90/-33 -64/-84/-33 -69/-89/-33 
f -67/-87/-33 -69/-89/-33 -64/-84/-33 
f -52/-72/-32 -51/-71/-32 -50/-70/-32 
f -52/-72/-31 -50/-70/-31 -49/-69/-31 
f -48/-68/-31 -49/-69/-31 -50/-70/-31 
f -48/-68/-30 -47/-67/-30 -49/-69/-30 
f -46/-66/-29 -45/-65/-29 -44/-64/-29 
f -45/-65/-29 -46/-66/-29 -43/-63/-29 
f -45/-65/-28 -43/-63/-28 -42/-62/-28 
f -41/-61/-28 -42/-62/-28 -43/-63/-28 
f -41/-61/-27 -40/-60/-27 -42/-62/-27 
f -39/-59/-27 -42/-62/-27 -40/-60/-27 
f -39/-59/-26 -40/-60/-26 -44/-64/-26 
f -46/-66/-26 -44/-64/-26 -40/-60/-26 
f -38/-58/-25 -37/-57/-25 -36/-56/-25 
f -35/-55/-24 -36/-56/-24 -37/-57/-24 
f -36/-56/-23 -35/-55/-23 -34/-54/-23 
f -33/-53/-23 -34/-54/-23 -35/-55/-23 
f -34/-54/-27 -33/-53/-27 -32/-52/-27 
f -31/-51/-27 -32/-52/-27 -33/-53/-27 
f -32/-52/-22 -31/-51/-22 -38/-58/-22 
f -37/-57/-22 -38/-58/-22 -31/-51/-22 
f -30/-50/-22 -29/-49/-22 -28/-48/-22 
f -27/-47/-22 -28/-48/-22 -29/-49/-22 
f -28/-48/-26 -27/-47/-26 -26/-46/-26 
f -25/-45/-26 -26/-46/-26 -27/-47/-26 
f -26/-46/-23 -25/-45/-23 -24/-44/-23 
f -23/-43/-23 -24/-44/-23 -25/-45/-23 
f -24/-44/-21 -23/-43/-21 -30/-50/-21 
f -29/-49/-21 -30/-50/-21 -23/-43/-21 
f -22/-42/-27 -64/-84/-27 -21/-41/-27 
f -53/-73/-27 -21/-41/-27 -64/-84/-27 
f -21/-41/-23 -53/-73/-23 -20/-40/-23 
f -58/-78/-23 -20/-40/-23 -53/-73/-23 
f -20/-40/-29 -58/-78/-29 -19/-39/-29 
f -61/-81/-20 -19/-39/-20 -58/-78/-20 
f -19/-39/-19 -61/-81/-19 -22/-42/-19 
f -64/-84/-19 -22/-42/-19 -61/-81/-19 
f -18/-38/-28 -78/-98/-28 -17/-37/-28 
f -76/-96/-28 -17/-37/-28 -78/-98/-28 
f -17/-37/-23 -76/-96/-23 -16/-36/-23 
f -72/-92/-23 -16/-36/-23 -76/-96/-23 
f -16/-36/-26 -72/-92/-26 -15/-35/-26 
f -68/-88/-26 -15/-35/-26 -72/-92/-26 
f -15/-35/-22 -68/-88/-22 -18/-38/-22 
f -78/-98/-22 -18/-38/-22 -68/-88/-22 
f -75/-34/-22 -14/-33/-22 -50/-70/-22 
f -13/-32/-22 -50/-70/-22 -14/-33/-22 
f -50/-70/-22 -13/-32/-22 -48/-68/-22 
f -12/-31/-22 -48/-68/-22 -13/-32/-22 
f -11/-30/-22 -48/-68/-22 -12/-31/-22 
f -48/-68/-22 -11/-30/-22 -47/-67/-22 
f -10/-29/-22 -47/-67/-22 -11/-30/-22 
f -56/-28/-22 -47/-67/-22 -10/-29/-22 
f -55/-27/-22 -47/-67/-22 -56/-28/-22 
f -47/-67/-22 -55/-27/-22 -51/-71/-22 
f -54/-26/-22 -51/-71/-22 -55/-27/-22 
f -71/-25/-22 -51/-71/-22 -54/-26/-22 
f -73/-24/-22 -51/-71/-22 -71/-25/-22 
f -51/-71/-22 -73/-24/-22 -50/-70/-22 
f -74/-23/-22 -50/-70/-22 -73/-24/-22 
f -50/-70/-22 -74/-23/-22 -75/-34/-22 
f -9/-22/-22 -49/-69/-22 -8/-21/-22 
f -49/-69/-22 -9/-22/-22 -52/-72/-22 
f -46/-66/-23 -62/-20/-23 -60/-19/-23 
f -62/-20/-23 -46/-66/-23 -63/-18/-23 
f -40/-60/-23 -63/-18/-23 -46/-66/-23 
f -63/-18/-23 -40/-60/-23 -67/-17/-23 
f -66/-16/-18 -67/-17/-18 -40/-60/-18 
f -66/-16/-17 -40/-60/-17 -65/-15/-17 
f -41/-61/-17 -65/-15/-17 -40/-60/-17 
f -65/-15/-16 -41/-61/-16 -80/-14/-16 
f -80/-14/-23 -41/-61/-23 -7/-13/-23 
f -43/-63/-23 -7/-13/-23 -41/-61/-23 
f -7/-13/-23 -43/-63/-23 -6/-12/-23 
f -43/-63/-23 -5/-11/-23 -6/-12/-23 
f -5/-11/-23 -43/-63/-23 -4/-10/-23 
f -46/-66/-23 -4/-10/-23 -43/-63/-23 
f -4/-10/-23 -46/-66/-23 -3/-9/-23 
f -60/-19/-23 -3/-9/-23 -46/-66/-23 
f -8/-21/-15 -49/-69/-15 -47/-67/-15 
f -8/-21/-14 -47/-67/-14 -9/-22/-14 
f -51/-71/-14 -9/-22/-14 -47/-67/-14 
f -51/-71/-13 -52/-72/-13 -9/-22/-13 
f -17/-37/-29 -15/-35/-29 -18/-38/-29 
f -15/-35/-29 -17/-37/-29 -16/-36/-29 
f -21/-41/-28 -19/-39/-28 -22/-42/-28 
f -19/-39/-28 -21/-41/-28 -20/-40/-28 
f -26/-46/-27 -30/-50/-27 -28/-48/-27 
f -30/-50/-27 -26/-46/-27 -24/-44/-27 
f -32/-52/-26 -36/-56/-26 -34/-54/-26 
f -36/-56/-26 -32/-52/-26 -38/-58/-26 
f -33/-53/-12 -14/-33/-12 -75/-34/-12 
f -14/-33/-12 -33/-53/-12 -13/-32/-12 
f -35/-55/-11 -13/-32/-11 -33/-53/-11 
f -13/-32/-10 -35/-55/-10 -12/-31/-10 
f -12/-31/-9 -35/-55/-9 -2/-8/-9 
f -37/-57/-9 -2/-8/-9 -35/-55/-9 
f -2/-8/-9 -37/-57/-9 -1/-7/-9 
f -37/-57/-9 -5/-11/-9 -1/-7/-9 
f -5/-11/-8 -37/-57/-8 -6/-12/-8 
f -31/-51/-7 -6/-12/-7 -37/-57/-7 
f -6/-12/-6 -31/-51/-6 -7/-13/-6 
f -31/-51/-6 -80/-14/-6 -7/-13/-6 
f -80/-14/-5 -31/-51/-5 -79/-6/-5 
f -33/-53/-5 -79/-6/-5 -31/-51/-5 
f -79/-6/-5 -33/-53/-5 -77/-5/-5 
f -75/-34/-5 -77/-5/-5 -33/-53/-5 
f -56/-76/-4 -10/-4/-4 -25/-45/-4 
f -11/-3/-4 -25/-45/-4 -10/-4/-4 
f -25/-45/-3 -11/-3/-3 -23/-43/-3 
f -12/-31/-3 -23/-43/-3 -11/-3/-3 
f -23/-43/-27 -12/-31/-27 -2/-8/-27 
f -1/-7/-27 -23/-43/-27 -2/-8/-27 
f -23/-43/-27 -1/-7/-27 -29/-49/-27 
f -5/-11/-27 -29/-49/-27 -1/-7/-27 
f -29/-49/-27 -5/-11/-27 -4/-2/-27 
f -3/-1/-27 -29/-49/-27 -4/-2/-27 
f -29/-49/-2 -3/-1/-2 -27/-47/-2 
f -60/-80/-2 -27/-47/-2 -3/-1/-2 
f -27/-47/-1 -60/-80/-1 -59/-79/-1 
f -57/-77/-1 -27/-47/-1 -59/-79/-1 
f -27/-47/-1 -57/-77/-1 -25/-45/-1 
f -56/-76/-1 -25/-45/-1 -57/-77/-1 
f -39/-59/-23 -44/-64/-23 -42/-62/-23 
f -45/-65/-23 -42/-62/-23 -44/-64/-23 
# 156 faces

