<?xml version="1.0" encoding="utf-8"?>
<COLLADA version="1.5.0" xmlns="http://www.collada.org/2008/03/COLLADASchema">
	<asset>
		<contributor>
			<authoring_tool>BrawlBox</authoring_tool>
		</contributor>
		<created>2022-11-10T17:46:23Z</created>
		<modified>2022-11-10T17:46:23Z</modified>
		<unit meter="0.01" name="centimeter" />
		<up_axis>Y_UP</up_axis>
	</asset>
	<library_images>
		<image id="enm_metalspin_add_SD-image" name="enm_metalspin_add_SD">
			<init_from>
				<ref>enm_spin_add_SD.png</ref>
			</init_from>
		</image>
		<image id="enm_metalspin_ref_SD-image" name="enm_metalspin_ref_SD">
			<init_from>
				<ref>enm_metalspin_ref_SD.png</ref>
			</init_from>
		</image>
		<image id="enm_metalspin_spr_SD-image" name="enm_metalspin_spr_SD">
			<init_from>
				<ref>enm_metalspin_spr_SD.png</ref>
			</init_from>
		</image>
	</library_images>
	<library_materials>
		<material id="body__cmnRing__">
			<instance_effect url="#body__cmnRing__-fx" />
		</material>
		<material id="eye__enAdd__">
			<instance_effect url="#eye__enAdd__-fx" />
		</material>
		<material id="light__enLuminouseO__D__">
			<instance_effect url="#light__enLuminouseO__D__-fx" />
		</material>
	</library_materials>
	<library_effects>
		<effect id="body__cmnRing__-fx" name="body__cmnRing__">
			<profile_COMMON>
				<newparam sid="enm_metalspin_ref_SD-surface">
					<surface type="2D">
						<init_from>
							<ref>enm_metalspin_ref_SD-image</ref>
						</init_from>
					</surface>
				</newparam>
				<newparam sid="enm_metalspin_ref_SD-sampler">
					<sampler2D>
						<source>enm_metalspin_ref_SD-surface</source>
						<instance_image url="#enm_metalspin_ref_SD-image" />
						<wrap_s>WRAP</wrap_s>
						<wrap_t>WRAP</wrap_t>
						<minfilter>LINEAR_MIPMAP_LINEAR</minfilter>
						<magfilter>LINEAR</magfilter>
					</sampler2D>
				</newparam>
				<technique sid="COMMON">
					<phong>
						<diffuse>
							<texture texture="enm_metalspin_ref_SD-sampler" texcoord="TEXCOORD0" />
						</diffuse>
					</phong>
				</technique>
			</profile_COMMON>
		</effect>
		<effect id="eye__enAdd__-fx" name="eye__enAdd__">
			<profile_COMMON>
				<newparam sid="enm_metalspin_add_SD-surface">
					<surface type="2D">
						<init_from>
							<ref>enm_metalspin_add_SD-image</ref>
						</init_from>
					</surface>
				</newparam>
				<newparam sid="enm_metalspin_add_SD-sampler">
					<sampler2D>
						<source>enm_metalspin_add_SD-surface</source>
						<instance_image url="#enm_metalspin_add_SD-image" />
						<wrap_s>WRAP</wrap_s>
						<wrap_t>WRAP</wrap_t>
						<minfilter>LINEAR_MIPMAP_LINEAR</minfilter>
						<magfilter>LINEAR</magfilter>
					</sampler2D>
				</newparam>
				<technique sid="COMMON">
					<phong>
						<diffuse>
							<texture texture="enm_metalspin_add_SD-sampler" texcoord="TEXCOORD0" />
						</diffuse>
					</phong>
				</technique>
			</profile_COMMON>
		</effect>
		<effect id="light__enLuminouseO__D__-fx" name="light__enLuminouseO__D__">
			<profile_COMMON>
				<newparam sid="enm_metalspin_add_SD-surface">
					<surface type="2D">
						<init_from>
							<ref>enm_metalspin_add_SD-image</ref>
						</init_from>
					</surface>
				</newparam>
				<newparam sid="enm_metalspin_add_SD-sampler">
					<sampler2D>
						<source>enm_metalspin_add_SD-surface</source>
						<instance_image url="#enm_metalspin_add_SD-image" />
						<wrap_s>WRAP</wrap_s>
						<wrap_t>WRAP</wrap_t>
						<minfilter>LINEAR_MIPMAP_LINEAR</minfilter>
						<magfilter>LINEAR</magfilter>
					</sampler2D>
				</newparam>
				<technique sid="COMMON">
					<phong>
						<diffuse>
							<texture texture="enm_metalspin_add_SD-sampler" texcoord="TEXCOORD0" />
						</diffuse>
					</phong>
				</technique>
			</profile_COMMON>
		</effect>
	</library_effects>
	<library_geometries>
		<geometry id="polygon0" name="polygon0">
			<mesh>
				<source id="polygon0_Positions">
					<float_array id="polygon0_PosArr" count="1020">-2.330811 4.000462 -0.5761719 -2.330811 3.197483 -0.876709 -2.274902 4.016331 -0.876709 -1.763916 3.197483 -1.728271 -1.763916 4.004612 -1.728271 -1.012451 4.004612 -2.232178 -1.442627 4.782444 -1.728271 -0.6862793 4.560032 -2.232178 -0.7897949 5.317356 -1.728271 0 4.766331 -2.232178 0 5.534885 -1.728271 0.7897949 5.317356 -1.728271 1.062256 5.821262 -0.8767089 1.442627 4.782444 -1.728271 1.918213 5.005344 -0.876709 2.274902 4.016331 -0.876709 2.330811 4.000462 -0.5761719 2.330811 3.197483 -0.876709 2.330811 4.000461 0.5656738 2.330811 3.197483 0.9401855 2.121094 4.036838 1.156738 2.121094 3.197483 1.156738 1.554199 3.197483 1.848633 -2.330811 3.197483 0.9401855 -2.330811 4.000461 0.5656738 -2.330811 4.208714 -0.00244139 -2.026123 5.132542 -0.01489255 -1.768311 5.132541 0.9492188 -2.121094 4.036838 1.156738 -1.554199 4.036838 1.848633 -1.554199 3.197483 1.848633 -0.7263184 4.029514 2.252441 -0.7263184 3.197483 2.252441 0 3.197483 2.341553 -1.102539 5.962864 -0.01928707 -0.572998 6.170628 -0.02832027 -1.003662 5.962863 0.5729981 -0.4147949 6.179904 0.388916 -0.5686035 5.962863 1.059326 0 6.188938 0.6721192 0 5.962863 1.257324 0.5686035 5.962863 1.059326 0 5.132541 2.094971 1.044434 5.132541 1.737061 0 4.471408 2.341553 0.7263184 4.029514 2.252441 0.7263184 3.197483 2.252441 -1.062256 5.821262 -0.8767089 0 6.091526 -0.8767089 0.572998 6.170628 -0.02832027 1.102539 5.962864 -0.01928707 1.003662 5.962863 0.5729981 2.026123 5.132542 -0.01489255 1.768311 5.132541 0.9492188 -1.569092 1.386204 0.6132813 -1.638916 1.214329 0.6779785 -1.640381 1.386204 -0.2893067 -1.733643 1.215061 -0.3056641 -1.070557 1.386204 -1.275879 -1.128662 1.215061 -1.345459 0 1.386204 -1.678955 0 1.215061 -1.766846 1.128662 1.215061 -1.345459 1.070557 1.026096 -1.275879 1.640381 1.026096 -0.2893067 -1.918213 5.005344 -0.876709 -1.044434 5.132541 1.737061 0 6.256321 -0.03759762 0.4147949 6.179904 0.388916 -1.03418 3.197483 -2.232178 0 3.197483 -2.444336 0 4.004612 -2.443604 1.012451 4.004612 -2.232178 0.6862793 4.560032 -2.232178 -1.526855 1.026829 0.6896973 -1.640381 1.026096 -0.2893067 -1.070557 1.026096 -1.275879 0 1.026096 -1.678955 1.434326 1.570286 0.579834 1.286621 1.278538 0.4409179 1.909668 0.616184 1.452881 1.606689 0.34885 1.378906 1.771973 0.3844945 1.713623 1.409424 0.4799535 1.7146 1.712402 0.7472875 1.78833 0.817627 1.661838 1.301025 1.143799 1.854709 1.159668 -1.682617 5.321751 -0.2290039 -1.905273 5.69138 -0.2290039 -1.821045 5.238254 0.0009765911 -2.043701 5.608127 0.0009765957 -1.682617 5.32175 0.2202149 -1.905273 5.691379 0.2202149 -1.118408 5.661594 0.2202149 -1.34082 6.031223 0.2202149 -1.202393 6.114475 0.0009766018 0.5195313 1.158909 1.427246 1.431152 1.158909 0.5056152 1.237305 0.5632055 0.4504394 1.42749 1.158909 -0.5195313 1.237305 0.5632055 -0.4504395 0.7595215 1.158909 -1.31543 0.6584473 0.5632055 -1.140381 0 1.158909 -1.536621 -1.237305 0.5632055 0.4504394 -1.04126 0.446018 -2.961782E-08 -1.237305 0.5632055 -0.4504395 -0.7233887 0.446018 -0.7062988 -0.6584473 0.5632055 -1.140381 0 0.446018 -1.04834 0 0.5632055 -1.31665 1.821045 5.238254 0.0009765911 1.905273 5.69138 -0.2290039 1.682617 5.321751 -0.2290039 1.34082 6.031223 -0.2290039 1.118408 5.661594 -0.2290039 1.202393 6.114475 0.0009766018 0.9797363 5.744846 0.0009765973 1.118408 5.661594 0.2202149 -2.310791 2.781955 -0.4074707 -2.165771 2.781955 0.8969727 -1.08252 2.781955 2.079346 -0.8056641 1.386204 1.479248 0 2.781955 2.346436 0 1.386204 1.678955 0.8056641 1.386204 1.479248 2.043701 5.608127 0.0009765957 1.682617 5.32175 0.2202149 1.905273 5.691379 0.2202149 1.34082 6.031223 0.2202149 1.070557 1.386204 -1.275879 1.733643 1.215061 -0.3056641 1.640381 1.386204 -0.2893067 1.638916 1.214329 0.6779785 1.569092 1.386204 0.6132813 -0.7233887 0.446018 0.7060547 -0.4501953 0.5632055 1.237061 0 0.446018 1.04834 0 0.5632055 1.31665 0.4501953 0.5632055 1.237061 -0.8815918 1.026096 1.43457 -0.8898926 1.208469 1.541748 0 1.026096 1.678955 0 1.215061 1.765625 0.8898926 1.208469 1.541748 0.7233887 0.446018 0.7060547 1.04126 0.446018 -2.961782E-08 0.7233887 0.446018 -0.7062988 -1.42749 1.158909 -0.5195313 -0.7595215 1.158909 -1.31543 -2.537109 3.05344 -1.769287 -1.845459 3.05344 -2.48877 -1.688232 3.518284 -2.266846 -0.9228516 3.05344 -2.998047 0 3.513157 -2.850342 0 3.05344 -3.138916 0.9228516 3.05344 -2.998047 1.554199 4.036838 1.848633 -1.34082 6.031223 -0.2290039 -1.118408 5.661594 -0.2290039 -0.9797363 5.744846 0.0009765973 -2.766113 3.496799 0.7893066 -3.066162 3.05344 0.8215332 -2.766113 2.677707 0.7685547 -2.554443 3.05344 1.768066 -1.671631 2.677707 2.220215 -1.862549 3.05344 2.497803 -1.003906 3.05344 2.970459 1.207275 6.502658 0.4301758 1.134521 6.156711 0.4296875 1.293945 6.450413 -0.208496 1.252197 6.085911 -0.1777343 1.800781 6.138889 -0.6123046 1.623535 5.862278 -0.4284668 1.995117 5.638645 -0.1777343 -1.286621 1.278538 0.4409179 -1.909668 0.616184 1.452881 -1.606689 0.34885 1.378906 -1.771973 0.3844945 1.713623 -1.409424 0.4799535 1.7146 -1.712402 0.7472875 1.78833 -0.817627 1.661838 1.301025 -2.475098 3.54343 -0.8312988 -2.475098 4.042698 -0.3737793 -4.48999 3.456272 -0.01391601 -2.475098 4.072238 0.3024902 -4.48999 3.396946 0.1491699 -2.475098 3.614963 0.8017578 -2.475098 2.93845 0.8312988 -2.475098 2.867161 -0.8017578 -4.48999 3.084934 -0.1491699 -4.48999 3.025608 0.01391602 2.475098 3.614963 -0.8017578 2.475098 2.93845 -0.8312988 4.48999 3.396946 -0.1491699 4.48999 3.025608 -0.01391601 4.48999 3.084934 0.1491699 2.475098 2.409641 0.3024902 2.475098 2.867161 0.8017578 2.475098 3.54343 0.8312988 4.48999 3.456272 0.01391602 2.475098 4.072239 -0.3024902 -1.434326 1.570286 0.579834 -1.395752 1.800266 0.8479004 -1.143799 1.854709 1.159668 -0.5915527 1.253391 1.126465 -0.6616211 1.044895 0.8476563 -0.9726563 1.03635 0.5212402 -2.475098 2.409641 -0.3024902 -2.475098 2.439182 0.3737793 -4.085693 2.341282 2.459961 -5.179443 2.411106 2.270508 -4.000244 3.041233 0.9257813 -3.982666 3.437473 0.07250977 -3.884521 3.041233 0.9257813 -3.608154 3.126682 0.6904297 4.085693 4.132297 2.460938 5.179443 4.064182 2.270996 4.000244 3.432346 0.9265137 3.982666 3.044163 0.07055664 3.884521 3.432346 0.9265137 3.608154 3.346897 0.6914063 -4.085693 4.132298 -2.460938 -4.000244 3.682346 -0.8356934 -5.179443 4.064182 -2.270996 -6.10376 3.854954 -1.696289 -6.775391 3.544895 -0.8444824 -0.5195313 1.158909 1.427246 0 1.158909 1.542969 0 3.05344 3.15332 0 3.520969 2.819336 1.003906 3.05344 2.970459 1.688232 3.518284 2.234619 1.862549 3.05344 2.497803 2.554443 3.05344 1.768066 -3.608154 3.346897 -0.6914063 -3.884521 3.432346 -0.9265137 -3.982666 3.044163 -0.07055664 -4.000244 3.432346 -0.9265137 0 2.781955 -2.291504 1.508301 2.781955 -1.797363 2.310791 2.781955 -0.4074707 -1.508301 2.781955 -1.797363 -4.000244 2.791233 0.8347168 -6.10376 2.620334 1.696045 -6.775391 2.930149 0.8442383 -2.371338 5.801975 0.4487305 -2.112549 5.567844 0.4296875 -2.246094 5.877171 -0.3203125 -1.995117 5.638645 -0.1777343 -1.800781 6.138889 -0.6123046 -1.623535 5.862278 -0.4284668 2.766113 3.496799 -0.7893066 3.048584 3.05344 -0.8322754 2.766113 2.677707 -0.7685547 2.537109 3.05344 -1.769287 1.678955 2.677707 -2.255371 1.845459 3.05344 -2.48877 1.763916 3.197483 -1.728271 1.763916 4.004612 -1.728271 4.000244 3.682346 0.8356934 3.982666 3.437473 -0.07250976 6.10376 3.854954 1.696289 6.775391 3.544895 0.8444824 4.085693 2.341282 -2.459961 5.179443 2.411106 -2.270508 4.000244 3.041233 -0.9255371 3.884521 3.041233 -0.9255371 3.608154 3.126682 -0.6904297 2.330811 4.208714 -0.00244139 2.766113 3.496799 0.7893066 1.688232 3.518284 -2.266846 3.884521 2.791233 -0.8347168 3.608154 2.876926 -0.5996094 3.326416 2.923313 -0.4719238 3.326416 3.173313 -0.5627441 3.326416 3.300266 0.5637207 3.326416 3.550266 0.4729004 3.608154 3.596653 0.6005859 3.884521 3.682346 0.8356934 3.31665 3.437473 -0.07250976 3.31665 3.044163 0.07055664 2.165771 2.781955 0.8969727 1.08252 2.781955 2.079346 -1.688232 3.518284 2.234619 -1.678955 2.677707 -2.255371 0 2.677707 -2.858154 -6.919189 3.237522 -0.0002441363 -3.884521 3.682346 -0.8356934 -3.608154 3.596653 -0.6003418 -3.326416 3.550266 -0.4729004 6.919189 3.237522 0.000244145 6.775391 2.930149 -0.8442383 6.10376 2.620334 -1.696045 2.475098 2.439182 -0.3737793 2.475098 4.042697 0.3737793 -3.884521 2.791233 0.8347168 -3.608154 2.876926 0.5996094 -3.326416 2.923313 0.4719238 -3.31665 3.044163 -0.07055664 -3.326416 3.300266 -0.5637207 -2.766113 2.677707 -0.7685547 0 2.677707 2.878662 2.246094 5.877171 -0.3203125 2.806641 7.624241 -0.07836908 2.371338 5.801975 0.4487305 2.831299 7.550266 0.5290528 -2.550293 7.719455 0.5290528 -2.831299 7.550266 0.5290528 -2.627441 7.732151 -0.07836908 -2.806641 7.624241 -0.07836908 -2.717041 7.678196 -0.1291503 2.112549 5.567844 0.4296875 2.550293 7.719455 0.5290528 2.627441 7.732151 -0.07836908 -1.431152 1.158909 0.5056152 -1.293945 6.450413 -0.208496 1.671631 2.677707 2.220215 1.526855 1.026829 0.6896973 1.395752 1.800266 0.8479004 0.9726563 1.03635 0.5212402 0.6616211 1.044895 0.8476563 -2.121094 3.197483 1.156738 2.766113 2.677707 0.7685547 3.066162 3.05344 0.8215332 -1.134521 6.156711 0.4296875 -1.207275 6.502658 0.4301758 -1.252197 6.085911 -0.1777343 2.717041 7.678196 -0.1291503 -3.31665 3.437473 0.07250977 -2.766113 3.496799 -0.7893066 -3.048584 3.05344 -0.8322754 4.000244 2.791233 -0.8347168 0.5915527 1.253391 1.126465 0 1.026096 -2.255945E-08 0.8815918 1.026096 1.43457 -3.326416 3.173313 0.5627441 1.03418 3.197483 -2.232178 0 1.386204 -1.817768E-08 0 1.386204 -1.817768E-08</float_array>
					<technique_common>
						<accessor source="#polygon0_PosArr" count="340" stride="3">
							<param name="X" type="float" />
							<param name="Y" type="float" />
							<param name="Z" type="float" />
						</accessor>
					</technique_common>
				</source>
				<source id="polygon0_Normals">
					<float_array id="polygon0_NormArr" count="1410">-0.9823608 0.1574707 -0.1008301 -0.951416 0.03729248 -0.305603 -0.9171143 0.1913452 -0.3496094 -0.7195435 0.01641847 -0.6942749 -0.727417 0.1455078 -0.6705933 -0.3994751 0.1079102 -0.9103394 -0.604248 0.4320679 -0.6694946 -0.2684937 0.3373413 -0.9022827 -0.3259277 0.6473999 -0.6889648 0 0.4327393 -0.9014893 0 0.7209473 -0.6929932 0.3259277 0.6473999 -0.6889648 0.4611206 0.8098755 -0.3625488 0.604248 0.4320679 -0.6694946 0.7885742 0.5087891 -0.3453979 0.9171143 0.1913452 -0.3496094 0.9823608 0.1574707 -0.1008301 0.951416 0.03729248 -0.305603 0.9703979 0.1782227 0.1628418 0.9266968 0.03741455 0.3740234 0.8434448 0.2061768 0.4960938 0.746521 -8.096627E-09 0.6654053 0.6201782 -9.545584E-09 0.7844849 -0.9266968 0.03741455 0.3740234 -0.9703979 0.1782227 0.1628418 -0.9812622 0.192688 0.00115967 -0.8346558 0.5507202 0.006896979 -0.7389526 0.5410767 0.4014893 -0.8434448 0.2061768 0.4960938 -0.6188965 0.1670532 0.7675171 -0.6201782 -9.545584E-09 0.7844849 -0.3051758 0.1274414 0.9437256 -0.2840576 -1.166666E-08 0.9588013 0 -1.216796E-08 1 -0.5332642 0.8450317 -0.03979491 -0.2602539 0.9628906 -0.07128905 -0.493103 0.833252 0.250061 -0.2050781 0.9685669 0.1409302 -0.3137207 0.8248291 0.4703369 0 0.9705811 0.2407227 0 0.8196411 0.5728149 0.3137207 0.8248291 0.4703369 0 0.5234985 0.8519897 0.4584351 0.5250854 0.717041 0 0.2304077 0.9730835 0.3051758 0.1274414 0.9437256 0.2840576 -1.166666E-08 0.9588013 -0.4611206 0.8098755 -0.3625488 0 0.9224243 -0.3861084 0.2602539 0.9628906 -0.07128905 0.5332642 0.8450317 -0.03979491 0.493103 0.833252 0.250061 0.8346558 0.5507202 0.006896979 0.7389526 0.5410767 0.4014893 -0.9147949 0.3974609 0.07208253 -0.9881592 -0.1254883 0.08837891 -0.8565063 0.4796753 -0.1904907 -0.9783936 0.01580811 -0.2059937 -0.5710449 0.4685669 -0.6740112 -0.6452026 0.01745606 -0.7637939 0 0.4578247 -0.8890381 0 0.01702882 -0.9998779 0.6452026 0.01745606 -0.7637939 0.583313 -0.4315186 -0.6881714 0.875061 -0.4470825 -0.1853027 -0.7885742 0.5087891 -0.3453979 -0.4584351 0.5250854 0.717041 0 0.9978638 -0.06518553 0.2050781 0.9685669 0.1409302 -0.3954468 0.01068116 -0.918457 0 0.002868664 -1 0 0.1025391 -0.994751 0.3994751 0.1079102 -0.9103394 0.2684937 0.3373413 -0.9022827 -0.8634033 -0.4972534 0.08526611 -0.875061 -0.4470825 -0.1853027 -0.583313 -0.4315186 -0.6881714 0 -0.4215698 -0.9067993 0.9210815 0.1201172 -0.3703613 0.6152954 -0.3867188 -0.6869507 0.9846802 -0.1292114 -0.1168823 0.09259033 -0.9396973 -0.3292236 0.4741211 -0.6891479 0.5479736 -0.494812 -0.5492554 0.6734619 0.4000854 0.2594604 0.8789673 -0.2591553 0.2949829 0.9196777 0.418396 0.6011963 0.6807861 -0.3948975 -0.237793 -0.8874512 -0.3948975 -0.237793 -0.8873901 -0.8566284 -0.5157471 0.01141357 -0.3862305 -0.232544 0.8926392 0.3862305 0.2325439 0.8926392 0.8566284 0.5157471 0.01141358 0.4505615 -0.3168945 0.8345947 0.8800049 -0.3189087 0.3519287 0.87323 -0.3189087 0.3684692 0.8892822 -0.3224487 -0.3243408 0.8898315 -0.3214722 -0.3238525 0.5150146 -0.321106 -0.7947388 0.5155029 -0.3264771 -0.7922363 0 -0.3362427 -0.9417725 -0.3449707 -0.9276123 0.1433105 -0.4155273 -0.9095459 -1.106732E-08 -0.3389893 -0.9312134 -0.133728 -0.2800293 -0.9244385 -0.2588501 -0.1786499 -0.9362793 -0.3024902 0 -0.9314575 -0.3638306 0 -0.9165039 -0.4000854 0.1786499 -0.9362793 -0.3024902 0.8566284 -0.5157471 0.01141357 0.3948975 -0.237793 -0.8873901 0.3948975 -0.237793 -0.8874512 -0.3948975 0.237793 -0.8873901 -0.8566284 0.5157471 0.01141358 -0.3862305 0.2325439 0.8926392 -0.8818359 -0.4329224 -0.1868286 -0.8225098 -0.4277954 0.3748169 -0.8278809 -0.4300537 0.3601685 -0.4577026 -0.4297485 0.7783813 -0.4776001 -0.4250488 0.7689209 0 -0.4317627 0.9019775 0 -0.4314575 0.9021606 0.4776001 -0.4250488 0.7689209 0.3862305 -0.232544 0.8926392 0.5710449 0.4685669 -0.6740112 0.9783936 0.01580811 -0.2059937 0.8565063 0.4796753 -0.1904907 0.9881592 -0.1254883 0.08837891 0.9147949 0.3974609 0.07208253 -0.3214111 -0.8916626 0.3187866 -0.1531982 -0.9337769 0.3234253 0 -0.9373169 0.3485107 0 -0.9165039 0.4000854 0.1531982 -0.9337769 0.3234253 -0.2312622 -0.5010376 0.8339233 -0.2523804 -0.1133423 0.9609375 0 -0.4308472 0.9024048 0 0.01989745 0.9998169 0.2523804 -0.1133423 0.9609375 0 0.4484253 0.8937988 0.2189941 0.414856 0.8831787 0.3214111 -0.8916626 0.3187866 0.3449707 -0.9276123 0.1433105 0.4155273 -0.9095459 -1.106732E-08 0.3389893 -0.9312134 -0.133728 0.2800293 -0.9244385 -0.2588501 -0.8892822 -0.3224487 -0.3243408 -0.8898315 -0.3214722 -0.3238525 -0.5150146 -0.321106 -0.7947388 -0.5155029 -0.3264771 -0.7922363 0 -0.3464355 -0.9380493 -0.6432495 0.6080933 -0.46521 -0.5244751 0.5047607 -0.6856689 -0.4992065 0.5700684 -0.6525879 -0.2471313 0.6347656 -0.7321167 0 0.6013184 -0.7990112 0 0.5317383 -0.8469238 0.2471313 0.6347656 -0.7321167 0.6188965 0.1670532 0.7675171 0.3948975 0.237793 -0.8873901 -0.1434937 0.02526857 -0.9893188 -0.6210327 -0.4006958 -0.673584 -0.7346802 -0.6779175 0.02593993 -0.5562744 -0.7203979 0.4142456 -0.4353027 -0.7037354 0.5614624 -0.4534302 -0.6669922 0.5911865 -0.2432251 -0.7290649 0.6397095 -0.9678345 0.2034302 -0.1480103 -0.9718018 0.168457 -0.1651001 -0.8717651 0.07965089 -0.4833984 -0.8314209 0.02600098 -0.5549927 -0.2497559 -0.3994141 -0.8820801 -0.2592773 -0.4137573 -0.8726807 0.4296265 -0.7504272 -0.5022583 -0.6152954 -0.3867188 -0.6869507 -0.9846802 -0.1292114 -0.1168823 -0.09259033 -0.9396973 -0.3292236 -0.4741211 -0.6891479 0.5479736 0.494812 -0.5492554 0.6734619 -0.4000854 0.2594604 0.8789673 0.2591553 0.2949829 0.9196777 -0.3370972 0.3220215 -0.8847046 -0.3215332 0.8549194 -0.4070435 -0.7383423 0.6170654 -0.2721558 -0.3079834 0.894043 0.3253784 -0.7383423 0.2977295 0.6051025 -0.3215332 0.3932495 0.8613892 -0.3370972 -0.3220215 0.8847046 -0.3215332 -0.3932495 -0.8613892 -0.7383423 -0.2977295 -0.6051025 -0.7383423 -0.6170654 0.2721558 0.3215332 0.3932495 -0.8613892 0.3370972 -0.3220215 -0.8847046 0.7383423 0.2977905 -0.6051025 0.7383423 -0.6170654 -0.2721558 0.7383423 -0.2977295 0.6051025 0.3079834 -0.894043 0.3253784 0.3215332 -0.3932495 0.8613892 0.3370972 0.3220215 0.8847046 0.7383423 0.6170654 0.2721558 0.3079834 0.894043 -0.3253784 -0.9210815 0.1201172 -0.3703613 -0.8533325 0.4935913 0.1680908 -0.418396 0.6011963 0.6807861 0.7338257 -0.3204346 0.5990601 0.6271973 -0.7774048 -0.04803468 0.03485107 -0.7922363 -0.6092529 1 0 0 -0.01361084 0.9100342 0.4143677 -0.02874756 0.9121094 0.4089966 -0.003967285 0.9073486 0.4204102 -0.006896973 0.9396973 0.342041 0.02770996 0.9077759 0.4185791 0.05841064 0.9056396 0.4200439 0.01519775 -0.9100342 0.4143066 0.02972412 -0.9128418 0.4072876 0.0112915 -0.9106445 0.4130859 0.00958252 -0.9396362 0.34198 -0.02478027 -0.911499 0.4106445 -0.05230713 -0.909668 0.4119873 -0.01361084 0.9634399 0.2675171 -0.003967285 0.965271 0.2611694 -0.02874756 0.9616089 0.2729492 -0.05322266 0.9557495 0.2893677 -0.06719971 0.9465942 0.3153687 -0.87323 -0.3189087 0.3684692 -0.4505615 -0.3168945 0.8345947 -0.4524536 -0.3276978 0.8294067 0 -0.3378296 0.9412231 0 -0.3551025 0.9348145 0.4524536 -0.3276978 0.8294067 0 0.5813599 0.8136597 0 0.637207 0.7706909 0.2478638 0.6635132 0.7059326 0.4794312 0.6162109 0.6248779 0.50354 0.5609131 0.6571045 0.6259155 0.6322021 0.456665 0.05230713 -0.909668 -0.4119873 0.02478027 -0.911499 -0.4106445 -0.00958252 -0.9396362 -0.34198 -0.0112915 -0.9106445 -0.4130859 -0.02972412 -0.9128418 -0.4072876 -0.01519775 -0.9100342 -0.4143066 -0.5758667 -0.4289551 -0.6959839 0 -0.4019775 -0.9156494 0 -0.4187622 -0.9080811 0.5758667 -0.4289551 -0.6959839 0.5674438 -0.4384155 -0.6969604 0.8818359 -0.4329224 -0.1868286 -0.5674438 -0.4384155 -0.6969604 -0.8759155 -0.4379883 -0.2023315 -0.01519775 -0.9634399 -0.2675781 -0.0112915 -0.9630737 -0.2689209 -0.02972412 -0.9610596 -0.2747803 -0.05151367 -0.9553223 -0.2910156 -0.06500244 -0.9464722 -0.3162231 -0.6674805 -0.7227783 -0.1790772 -0.6525269 -0.734436 -0.1865845 -0.3912354 -0.7311401 -0.5588989 -0.4296265 -0.7504272 -0.5022583 0.2497559 -0.3994141 -0.8820801 0.2592773 -0.4137573 -0.8726807 0.1882324 0.02508544 0.9818115 0.6559448 -0.3825073 0.6506958 0.7567749 -0.6523438 -0.04132081 0.5792236 -0.6958008 -0.4246826 0.4586792 -0.6578369 -0.5974121 0.4830933 -0.6063843 -0.6316528 0.7195435 0.01641847 -0.6942749 0.727417 0.1455078 -0.6705933 0.01361084 0.9634399 -0.2675171 0.003967285 0.965271 -0.2611694 0.02874756 0.9616089 -0.2729492 0.006896973 0.9396973 -0.342041 0.05322266 0.9557495 -0.2893677 0.06719971 0.9465942 -0.3153687 0.01361084 0.9100342 -0.4143677 0.02874756 0.9121094 -0.4089966 0.003967285 0.9073486 -0.4204102 -0.02770996 0.9077759 -0.4185791 -0.05841064 0.9056396 -0.4200439 0.9812622 0.192688 0.00115967 0.02001953 0.9998169 1.216574E-08 0.002624512 1 1.216796E-08 0.005249023 1 -0.00085448 0 1 -0.0003661988 0 1 -0.001342761 -0.6710815 -0.25354 -0.6966553 -0.5585327 -0.2836914 -0.77948 -0.4345093 -0.3080444 -0.8463135 -0.4345093 0.3080444 0.8463135 -0.5585327 0.2836914 0.77948 -0.6710815 0.25354 0.6966553 -0.9998169 0.00604248 0.01660156 -1 0 0 -0.9998169 -0.00604248 -0.01660156 0.8759155 -0.4379883 -0.2023315 0.8278809 -0.4300537 0.3601685 0.8225098 -0.4277954 0.3748169 0.4577026 -0.4297485 0.7783813 -0.7442017 0.5331421 0.4023438 -0.7006226 0.5808105 0.4145508 -0.6259155 0.6322021 0.456665 -0.4794312 0.6162109 0.6248779 -0.50354 0.5609131 0.6571045 -0.2478638 0.6635132 0.7059326 -0.4830933 -0.6063843 -0.6316528 -0.4586792 -0.6578369 -0.5974121 -0.229126 -0.7168579 -0.6584473 0 -0.6654663 -0.74646 0 -0.5983276 -0.8012695 0.229126 -0.7168579 -0.6584473 -0.3215332 -0.8549194 0.4070435 -0.3079834 -0.894043 -0.3253784 -0.05322266 0.9181519 0.3926392 -0.06719971 0.9278564 0.3668823 -0.07226563 0.9372559 0.3411255 0.02770996 0.9644165 0.2628784 0.05841064 0.9637451 0.260376 0.02526855 0.9725952 0.2312622 0.06994629 -0.9373779 0.3411865 0.06500244 -0.9464722 0.3162231 0.05151367 -0.9553223 0.2910156 0.02972412 -0.9610596 0.2747803 0.02478027 -0.9621582 -0.2713013 0.05230713 -0.9616699 -0.269104 0.02258301 -0.9697266 -0.243103 6.103516E-05 -0.9396973 -0.342041 0.02258301 -0.8991089 -0.4371338 0.05151367 -0.9188843 0.3911133 0.06500244 -0.9282837 0.3661499 -0.05151367 -0.9188843 -0.3911133 -0.06500244 -0.9282837 -0.3661499 -0.06994629 -0.9373779 -0.3411865 0.05322266 0.9181519 -0.3926392 0.06719971 0.9278564 -0.3668823 0.07226563 0.9372559 -0.3411255 0 -1 -1.216796E-08 0.1013184 0.2348023 -0.9667358 0.8087158 -0.1819458 -0.5593872 0.8123169 -0.1532593 -0.5626831 0.9490967 -0.272522 -0.1581421 0.9655151 -0.2509155 -0.06988525 -0.5140381 0.8537598 0.08325196 -0.5147095 0.8548584 0.06555177 -0.5158081 0.8566895 1.042417E-08 0.3912354 -0.7311401 -0.5588989 0.6525269 -0.734436 -0.1865845 0.6674805 -0.7227783 -0.1790772 -0.6670532 0.7418213 -0.06896972 -0.6757202 0.7247925 -0.1343994 -0.5130615 0.6447144 -0.5666504 -0.5723877 0.6465454 -0.5043335 -0.8800049 -0.3189087 0.3519287 0.5723877 0.6465454 -0.5043335 0.5130615 0.6447144 -0.5666504 -0.1013184 0.2348023 -0.9667358 -0.1330566 0.223877 -0.9655151 -0.8123169 -0.1532593 -0.5626831 0 -0.6594849 0.751709 0.2432251 -0.7290649 0.6397095 0.4353027 -0.7037354 0.5614624 0.4534302 -0.6669922 0.5911865 0.5562744 -0.7203979 0.4142456 0.8634033 -0.4972534 0.08526611 0.8533325 0.4935913 0.1680908 -0.03485107 -0.7922363 -0.6092529 -0.6271973 -0.7774048 -0.04803468 0.4992065 0.5700684 -0.6525879 0.5244751 0.5047607 -0.6856689 0.6432495 0.6080933 -0.46521 -0.746521 -8.096627E-09 0.6654053 0 -0.5900879 0.807312 0.7346802 -0.6779175 0.02593993 0.6210327 -0.4006958 -0.673584 0.1434937 0.02526857 -0.9893188 0.0006713867 -0.00115968 1 0.0335083 -0.032959 0.9989014 0.02282715 -0.02349855 0.9994507 0.03820801 -0.03698732 0.9985962 0.03259277 -0.04357911 0.9985352 0.5158081 -0.8566895 -1.042417E-08 0.1330566 0.223877 -0.9655151 0.9998169 0.00604248 -0.01660156 0.5140381 0.8537598 0.08325196 0.5147095 0.8548584 0.06555177 -0.03820801 -0.03698732 0.9985962 -0.02282715 -0.02349855 0.9994507 -0.03259277 -0.04357911 0.9985352 -0.02929688 -0.04864503 0.9984131 -0.02001953 0.9998169 1.216574E-08 -0.002624512 1 1.216796E-08 -0.005249023 1 -0.00085448 0.3215332 -0.8549194 -0.4070435 -0.1882324 0.02508544 0.9818115 -0.7567749 -0.6523438 -0.04132081 -0.6559448 -0.3825073 0.6506958 -0.5792236 -0.6958008 -0.4246826 0.3215332 0.8549194 0.4070435 0 -0.342041 0.9396973 0.7006226 0.5808105 0.4145508 0.7442017 0.5331421 0.4023438 0.7114258 0.5628052 -0.4208374 0.7508545 0.5180054 -0.40979 -0.02526855 0.8936768 -0.447998 0 0.9396973 -0.342041 -0.02526855 0.9725952 -0.2312622 -0.05841064 0.9637451 -0.260376 -0.02770996 0.9644165 -0.2628784 -0.02258301 -0.8991089 0.4371338 -6.103516E-05 -0.9396973 0.342041 -0.02258301 -0.9697266 0.243103 -0.05230713 -0.9616699 0.269104 -0.02478027 -0.9621582 0.2713013 0.0112915 -0.9630737 0.2689209 0.01519775 -0.9634399 0.2675781 0 -0.342041 -0.9396973 0 0.342041 0.9396973 -0.7338257 -0.3204346 0.5990601 -0.2189941 0.414856 0.8831787 0.9678345 0.2034302 -0.1480103 0.8717651 0.07965089 -0.4833984 0.9718018 0.168457 -0.1651001 0.8314209 0.02600098 -0.5549927 0.02526855 0.8936768 0.447998 0 0.9396973 0.342041 0.3954468 0.01068116 -0.918457 0.6710815 0.25354 -0.6966553 0.5585327 0.2836914 -0.77948 0.4345093 -0.3080444 0.8463135 0.5585327 -0.2836914 0.77948 0.6670532 0.7418213 -0.06896972 0.6757202 0.7247925 -0.1343994 0.9998169 -0.00604248 0.01660156 -0.8087158 -0.1819458 -0.5593872 -0.9490967 -0.272522 -0.1581421 0.4345093 0.3080444 -0.8463135 0 0.342041 -0.9396973 -0.7508545 0.5180054 -0.40979 -0.7114258 0.5628052 -0.4208374 -0.5158081 -0.8566895 -1.042417E-08 -0.0006713867 -0.00115968 1 -0.0335083 -0.032959 0.9989014 0.6710815 -0.25354 0.6966553 0.9987183 0.01733398 -0.04760742 0.9987183 -0.01733398 0.04760742 -0.9987183 -0.01733398 -0.04760742 -0.9987183 0.01733398 0.04760742 0.3538818 0.2341308 0.9055176 0.4116821 -1.108886E-08 0.9113159 -0.8505249 0.2372437 -0.4694214 -0.8781738 5.820333E-09 -0.4783325 -0.8276367 0.2373047 -0.508606 0.2910156 0.2315674 0.9282837 -0.0005493164 -1 -1.216796E-08 0.0001831055 -1 0.0004882691 0.001281738 -1 0.0007324097 -0.4116821 -1.108886E-08 0.9113159 -0.3538818 0.2341308 0.9055176 0.8505249 0.2372437 -0.4694214 0.8276367 0.2373047 -0.508606 0.8781738 5.820333E-09 -0.4783325 -0.2910156 0.2315674 0.9282837 -0.0001831055 -1 0.0004882691 0.0005493164 -1 -1.216796E-08 -0.001281738 -1 0.0007324097 0.2312622 -0.5010376 0.8339233 -0.9655151 -0.2509155 -0.06988525 0.02929688 -0.04864503 0.9984131 0.5158081 0.8566895 1.042417E-08</float_array>
					<technique_common>
						<accessor source="#polygon0_NormArr" count="470" stride="3">
							<param name="X" type="float" />
							<param name="Y" type="float" />
							<param name="Z" type="float" />
						</accessor>
					</technique_common>
				</source>
				<vertices id="polygon0_Vertices">
					<input semantic="POSITION" source="#polygon0_Positions" />
				</vertices>
				<triangles material="body__cmnRing__" count="560">
					<input semantic="VERTEX" source="#polygon0_Vertices" offset="0" />
					<input semantic="NORMAL" source="#polygon0_Normals" offset="1" />
					<p>2 2 1 1 0 0 3 3 1 1 2 2 4 4 3 3 2 2 5 5 3 3 4 4 6 6 5 5 4 4 7 7 5 5 6 6 8 8 7 7 6 6 9 9 7 7 8 8 10 10 9 9 8 8 11 11 9 9 10 10 12 12 11 11 10 10 13 13 11 11 12 12 14 14 13 13 12 12 15 15 13 13 14 14 16 16 15 15 14 14 17 17 15 15 16 16 18 18 17 17 16 16 19 19 17 17 18 18 20 20 19 19 18 18 21 21 19 19 20 20 22 22 21 21 20 20 24 24 1 1 23 23 0 0 1 1 24 24 25 25 0 0 24 24 26 26 0 0 25 25 24 24 26 26 25 25 27 27 26 26 24 24 28 28 27 27 24 24 29 29 27 27 28 28 30 30 29 29 28 28 31 31 29 29 30 30 32 32 31 31 30 30 33 33 31 31 32 32 36 36 35 35 34 34 37 37 35 35 36 36 38 38 37 37 36 36 39 39 37 37 38 38 40 40 39 39 38 38 41 41 39 39 40 40 42 42 41 41 40 40 43 43 41 41 42 42 44 44 43 43 42 42 45 45 43 43 44 44 33 33 45 45 44 44 46 46 45 45 33 33 47 47 8 8 6 6 10 10 8 8 47 47 48 48 10 10 47 47 12 12 10 10 48 48 49 49 12 12 48 48 50 50 12 12 49 49 51 51 50 50 49 49 52 52 50 50 51 51 53 53 52 52 51 51 18 18 52 52 53 53 20 20 18 18 53 53 56 56 55 55 54 54 57 57 55 55 56 56 58 58 57 57 56 56 59 59 57 57 58 58 60 60 59 59 58 58 61 61 59 59 60 60 62 62 61 61 60 60 63 63 61 61 62 62 64 64 63 63 62 62 65 65 47 47 6 6 34 34 47 47 65 65 26 26 34 34 65 65 36 36 34 34 26 26 27 27 36 36 26 26 66 66 36 36 27 27 29 29 66 66 27 27 31 31 66 66 29 29 35 35 47 47 34 34 48 48 47 47 35 35 67 67 48 48 35 35 49 49 48 48 67 67 68 68 49 49 67 67 51 51 49 49 68 68 41 41 51 51 68 68 43 43 51 51 41 41 5 5 69 69 3 3 70 70 69 69 5 5 71 71 70 70 5 5 72 72 70 70 71 71 73 73 72 72 71 71 13 13 72 72 73 73 11 11 13 13 73 73 57 57 74 74 55 55 75 75 74 74 57 57 59 59 75 75 57 57 76 76 75 75 59 59 61 61 76 76 59 59 77 77 76 76 61 61 63 63 77 77 61 61 80 80 79 79 78 78 81 81 79 79 80 80 82 82 81 81 80 80 83 83 81 81 82 82 84 84 83 83 82 82 85 85 83 83 84 84 86 86 85 85 84 84 89 89 88 88 87 87 90 89 88 88 89 89 91 90 90 89 89 89 92 90 90 89 91 90 93 91 92 90 91 90 94 91 92 90 93 91 95 92 94 91 93 91 98 95 97 94 96 93 99 96 97 94 98 95 100 97 99 96 98 95 101 98 99 96 100 97 102 99 101 98 100 97 103 100 101 98 102 99 106 103 105 102 104 101 107 104 105 102 106 103 108 105 107 104 106 103 109 106 107 104 108 105 110 107 109 106 108 105 102 108 109 106 110 107 113 111 112 110 111 109 114 112 112 110 113 111 115 112 114 112 113 111 116 113 114 112 115 112 117 113 116 113 115 112 118 114 116 113 117 113 54 117 120 116 119 115 121 118 120 116 54 117 122 119 121 118 54 117 123 120 121 118 122 119 124 121 123 120 122 119 125 122 123 120 124 121 126 109 111 109 112 110 127 123 111 109 126 109 128 123 127 123 126 109 118 114 127 123 128 123 129 114 118 114 128 123 116 113 118 114 129 114 130 124 62 62 60 60 131 125 62 62 130 124 132 126 131 125 130 124 133 127 131 125 132 126 134 128 133 127 132 126 135 129 104 101 105 102 136 130 104 101 135 129 137 131 136 130 135 129 138 132 136 130 137 131 139 133 138 132 137 131 142 136 141 135 140 134 143 137 141 135 142 136 144 138 143 137 142 136 124 139 143 137 144 138 125 140 124 139 144 138 145 141 139 133 137 131 98 142 139 133 145 141 146 143 98 142 145 141 100 144 98 142 146 143 147 145 100 144 146 143 149 148 106 147 148 146 108 149 106 147 149 148 103 100 108 149 149 148 110 150 108 149 103 100 102 99 110 150 103 100 152 153 151 152 150 151 153 154 151 152 152 153 154 155 153 154 152 153 155 156 153 154 154 155 156 157 155 156 154 155 43 43 53 53 51 51 157 158 53 53 43 43 45 45 157 158 43 43 22 22 157 158 45 45 46 46 22 22 45 45 158 159 87 87 88 88 159 159 87 87 158 159 95 92 159 159 158 159 160 92 159 159 95 92 93 91 160 92 95 92 163 162 162 161 161 160 164 163 162 161 163 162 165 164 164 163 163 162 166 165 164 163 165 164 167 166 166 165 165 164 170 169 169 168 168 167 171 170 169 168 170 169 172 171 171 170 170 169 173 172 171 170 172 171 174 173 173 172 172 171 177 176 176 175 175 174 178 177 176 175 177 176 179 178 178 177 177 176 180 179 178 177 179 178 181 180 180 179 179 178 184 183 183 182 182 181 185 184 183 182 184 183 186 185 185 184 184 183 187 186 185 184 186 185 188 187 187 186 186 185 190 189 182 181 189 188 184 183 182 181 190 189 191 190 184 183 190 189 186 185 184 183 191 190 188 187 186 185 191 190 194 193 193 192 192 191 195 194 193 192 194 193 196 195 195 194 194 193 197 196 195 194 196 195 198 197 197 196 196 195 196 195 199 198 198 197 200 199 199 198 196 195 194 193 200 199 196 195 201 200 200 199 194 193 192 191 201 200 194 193 176 175 202 201 175 174 203 202 202 201 176 175 180 179 203 202 176 175 204 203 203 202 180 179 181 180 204 203 180 179 179 178 205 204 181 180 206 205 205 204 179 178 177 176 206 205 179 178 207 206 206 205 177 176 175 174 207 206 177 176 189 207 209 207 208 207 187 207 209 207 189 207 183 207 187 207 189 207 185 207 187 207 183 207 212 210 211 209 210 208 213 211 211 209 212 210 214 212 213 211 212 210 215 213 213 211 214 212 218 216 217 215 216 214 219 217 217 215 218 216 220 218 219 217 218 216 221 219 219 217 220 218 224 222 223 221 222 220 213 211 223 221 224 222 225 223 213 211 224 222 226 224 213 211 225 223 136 227 227 226 104 225 228 228 227 226 136 227 138 229 228 228 136 227 139 230 228 228 138 229 231 233 230 232 229 231 232 234 230 232 231 233 233 235 232 234 231 233 234 236 232 234 233 235 237 239 236 238 235 237 238 240 236 238 237 239 224 241 238 240 237 239 222 242 238 240 224 241 239 245 60 244 58 243 130 246 60 244 239 245 240 247 130 246 239 245 241 248 130 246 240 247 58 243 242 249 239 245 119 115 242 249 58 243 56 250 119 115 58 243 54 117 119 115 56 250 211 253 243 252 210 251 237 239 243 252 211 253 244 254 237 239 211 253 245 255 237 239 244 254 248 258 247 257 246 256 249 259 247 257 248 258 250 260 249 259 248 258 251 261 249 259 250 260 254 264 253 263 252 262 255 265 253 263 254 264 256 266 255 265 254 264 257 267 255 265 256 266 2 2 6 6 4 4 65 65 6 6 2 2 0 0 65 65 2 2 26 26 65 65 0 0 258 268 15 15 17 17 259 269 15 15 258 268 72 72 259 269 258 268 13 13 259 269 72 72 217 272 260 271 216 270 261 273 260 271 217 272 262 274 261 273 217 272 263 275 261 273 262 274 266 278 265 277 264 276 261 273 265 277 266 278 267 279 261 273 266 278 268 280 261 273 267 279 52 52 16 16 14 14 269 281 16 16 52 52 18 18 269 281 52 52 16 16 269 281 18 18 271 283 270 282 252 282 232 284 270 282 271 283 154 285 232 284 271 283 230 286 232 284 154 285 273 288 267 287 272 287 268 288 267 287 273 288 274 289 268 288 273 288 275 289 268 288 274 289 221 291 277 290 276 290 278 291 277 290 221 291 220 292 278 291 221 291 279 292 278 291 220 292 280 294 276 293 277 293 281 294 276 293 280 294 275 295 281 294 280 294 274 295 281 294 275 295 241 248 132 296 130 246 134 297 132 296 241 248 282 298 134 297 241 248 283 299 134 297 282 298 164 302 161 301 162 300 284 303 161 301 164 302 166 304 284 303 164 302 167 305 284 303 166 304 153 308 285 307 151 306 286 309 285 307 153 308 155 310 286 309 153 308 156 311 286 309 155 310 191 190 209 312 188 187 208 313 209 312 191 190 190 189 208 313 191 190 189 188 208 313 190 189 213 211 244 314 211 209 245 315 244 314 213 211 287 316 245 315 213 211 213 211 288 317 223 221 289 318 288 317 213 211 290 319 289 318 213 211 219 217 292 321 291 320 293 322 292 321 219 217 265 323 293 322 219 217 198 294 294 294 197 294 295 294 294 294 198 294 199 294 295 294 198 294 237 239 296 324 243 252 297 325 296 324 237 239 298 326 297 325 237 239 237 239 299 327 298 326 300 328 299 327 237 239 235 237 300 328 237 239 219 217 262 329 217 215 263 330 262 329 219 217 291 320 263 330 219 217 237 239 225 331 224 241 226 332 225 331 237 239 287 333 226 332 237 239 261 273 293 334 265 277 292 335 293 334 261 273 291 336 292 335 261 273 285 337 163 337 301 337 165 337 163 337 285 337 302 337 165 337 285 337 304 340 303 339 172 338 305 341 303 339 304 340 306 342 305 341 304 340 309 344 308 343 307 343 310 344 308 343 309 344 311 345 310 344 309 344 303 346 174 173 172 171 312 347 174 173 303 346 305 348 312 347 303 346 314 351 168 350 313 349 170 352 168 350 314 351 172 338 170 352 314 351 104 225 148 146 106 147 315 353 148 146 104 225 227 226 315 353 104 225 250 356 309 355 316 354 311 357 309 355 250 356 310 358 311 357 250 356 317 361 231 360 302 359 233 362 231 360 317 361 234 363 233 362 317 361 131 125 64 64 62 62 318 364 64 64 131 125 133 127 318 364 131 125 319 365 80 80 78 78 84 84 80 80 319 365 86 86 84 84 319 365 81 81 320 366 79 79 321 367 320 366 81 81 83 83 321 367 81 81 271 368 156 157 154 155 257 369 156 157 271 368 255 370 257 369 271 368 28 28 322 371 30 30 23 23 322 371 28 28 24 24 23 23 28 28 302 359 167 166 165 164 229 372 167 166 302 359 231 360 229 372 302 359 323 373 234 363 317 361 324 374 234 363 323 373 270 375 324 374 323 373 326 378 247 377 325 376 246 379 247 377 326 378 308 380 246 379 326 378 327 381 249 381 251 381 247 381 249 381 327 381 325 381 247 381 327 381 66 66 38 38 36 36 42 42 38 38 66 66 44 44 42 42 66 66 328 382 172 338 314 351 304 340 172 338 328 382 299 207 290 383 329 207 300 383 290 383 299 207 306 384 314 385 313 384 304 385 314 385 306 384 306 388 168 387 305 386 313 389 168 387 306 388 286 337 302 337 285 337 256 337 302 337 286 337 161 390 152 391 330 390 284 392 152 391 161 390 284 392 154 285 152 391 230 286 154 285 284 392 163 294 330 294 301 294 161 294 330 294 163 294 195 194 294 393 193 192 197 196 294 393 195 194 331 396 301 395 330 394 150 397 301 395 331 396 200 199 295 398 199 198 201 200 295 398 200 199 150 397 285 307 301 395 151 306 285 307 150 397 167 305 230 232 284 303 229 231 230 232 167 305 156 311 256 266 286 309 257 267 256 266 156 311 243 399 214 399 212 399 296 399 214 399 243 399 234 236 270 400 232 234 324 401 270 400 234 236 102 108 147 145 109 106 100 144 147 145 102 108 252 402 255 370 271 368 253 403 255 370 252 402 294 294 192 294 193 294 295 294 192 294 294 294 275 404 261 273 268 280 280 405 261 273 275 404 277 406 261 273 280 405 278 407 261 273 277 406 139 230 96 93 228 228 98 95 96 93 139 230 279 408 261 273 278 407 260 271 261 273 279 408 276 409 219 217 221 219 281 410 219 217 276 409 274 411 219 217 281 410 273 412 219 217 274 411 272 413 219 217 273 412 332 414 219 217 272 413 265 323 332 414 264 415 219 217 332 414 265 323 125 122 283 299 123 120 134 297 283 299 125 122 272 416 266 416 332 416 267 416 266 416 272 416 218 417 279 417 220 417 260 417 279 417 218 417 333 418 83 83 85 85 321 367 83 83 333 418 323 337 256 337 254 337 317 337 256 337 323 337 323 207 252 207 270 207 254 207 252 207 323 207 334 337 142 337 140 337 335 337 142 337 334 337 141 135 124 139 122 419 143 137 124 139 141 135 325 422 316 421 326 420 327 423 316 421 325 422 7 7 71 71 5 5 9 9 71 71 7 7 327 423 250 260 316 421 251 261 250 260 327 423 73 73 9 9 11 11 71 71 9 9 73 73 336 424 213 211 215 213 329 425 213 211 336 424 337 426 72 72 258 268 70 70 72 72 337 426 288 427 235 428 236 427 289 428 235 428 288 427 336 429 297 430 298 429 215 430 297 430 336 429 50 50 14 14 12 12 52 52 14 14 50 50 326 432 309 355 307 431 316 354 309 355 326 432 298 433 329 207 336 433 299 207 329 207 298 433 248 434 310 358 250 356 246 435 310 358 248 434 31 31 44 44 66 66 33 33 44 44 31 31 300 436 289 428 290 436 235 428 289 428 300 436 37 37 67 67 35 35 39 39 67 67 37 37 68 68 39 39 41 41 67 67 39 39 68 68 236 437 223 437 288 437 238 437 223 437 236 437 20 20 157 158 22 22 53 53 157 158 20 20 330 439 150 151 331 438 152 153 150 151 330 439 174 440 171 440 173 440 312 440 171 440 174 440 312 442 168 387 169 441 305 386 168 387 312 442 296 443 215 430 214 443 297 430 215 430 296 443 188 207 209 207 187 207 182 207 183 207 189 207 222 444 223 444 238 444 212 445 210 445 243 445 226 224 287 316 213 211 245 255 287 333 237 239 290 319 213 211 329 425 201 294 192 294 295 294 261 273 263 275 291 336 266 446 264 446 332 446 216 447 260 447 218 447 317 337 302 337 256 337 54 337 338 337 122 337 54 448 74 448 338 448 334 449 338 449 74 449 140 450 141 450 122 450 338 451 334 451 122 451 140 452 122 452 334 452 54 453 55 453 74 453 77 454 334 454 74 454 76 455 77 455 74 455 75 456 76 456 74 456 339 337 134 337 125 337 334 457 318 457 339 457 134 458 339 458 318 458 144 459 335 459 125 459 335 460 334 460 125 460 339 461 125 461 334 461 133 462 134 462 318 462 318 463 77 463 63 463 334 464 77 464 318 464 64 465 318 465 63 465 335 466 144 138 142 136 246 435 308 467 310 358 307 468 308 380 326 378 169 440 171 440 312 440 314 385 304 385 328 469 178 177 180 179 176 175 84 84 82 82 80 80 259 269 13 13 15 15 40 40 38 38 42 42</p>
				</triangles>
			</mesh>
		</geometry>
		<geometry id="polygon1" name="polygon1">
			<mesh>
				<source id="polygon1_Positions">
					<float_array id="polygon1_PosArr" count="24">-0.8339844 4.099826 2.25 -1.555298 4.338352 1.780151 -0.6361084 4.589694 2.155029 -1.368774 4.860202 1.695435 1.368774 4.860202 1.695435 1.555298 4.338352 1.780151 0.6361084 4.589694 2.155029 0.8339844 4.099826 2.25</float_array>
					<technique_common>
						<accessor source="#polygon1_PosArr" count="8" stride="3">
							<param name="X" type="float" />
							<param name="Y" type="float" />
							<param name="Z" type="float" />
						</accessor>
					</technique_common>
				</source>
				<source id="polygon1_UVs0">
					<float_array id="polygon1_UVArr0" count="8">0.1367188 0.1210938 0.875 0.1210938 0.1367188 0.5625 0.875 0.5625</float_array>
					<technique_common>
						<accessor source="#polygon1_UVArr0" count="4" stride="2">
							<param name="S" type="float" />
							<param name="T" type="float" />
						</accessor>
					</technique_common>
				</source>
				<vertices id="polygon1_Vertices">
					<input semantic="POSITION" source="#polygon1_Positions" />
				</vertices>
				<triangles material="eye__enAdd__" count="4">
					<input semantic="VERTEX" source="#polygon1_Vertices" offset="0" />
					<input semantic="TEXCOORD" source="#polygon1_UVs0" set="0" offset="1" />
					<p>2 2 1 1 0 0 3 3 1 1 2 2 6 2 5 1 4 3 7 0 5 1 6 2</p>
				</triangles>
			</mesh>
		</geometry>
		<geometry id="polygon2" name="polygon2">
			<mesh>
				<source id="polygon2_Positions">
					<float_array id="polygon2_PosArr" count="147">-1.041504 0.446018 -2.961782E-08 -0.7231445 0.446018 0.7060547 -0.6416016 0.1047094 -3.377085E-08 0 0.1047094 0.6674804 0 -0.1155055 -3.645042E-08 0.6416016 0.1047094 -3.377085E-08 0 0.1047094 -0.6674805 0.7231445 0.446018 -0.7060547 0 0.446018 -1.04834 -5.179199 2.410862 2.270996 -5.488281 2.196995 2.856445 -6.103516 2.620334 1.696289 -6.660156 2.457248 2.141113 -6.775391 2.930393 0.8447266 -7.421387 2.858127 1.039551 -7.616699 3.236545 4.337214E-09 5.179199 2.410862 -2.270996 5.488281 2.196995 -2.856445 6.103516 2.620334 -1.696289 6.660156 2.457248 -2.141113 6.775391 2.930393 -0.8447266 7.421387 2.858127 -1.039551 7.616699 3.236545 4.337214E-09 0 0.446018 1.04834 0.7231445 0.446018 0.7060547 1.041504 0.446018 -2.961782E-08 -5.488281 4.276585 -2.856445 -6.103516 3.854709 -1.695801 -6.660156 4.015842 -2.141602 -6.775391 3.544651 -0.8442383 -7.421387 3.614963 -1.039551 5.488281 4.276584 2.856445 6.103516 3.854709 1.695801 6.660156 4.015842 2.141602 6.775391 3.544651 0.8442383 7.421387 3.614963 1.039551 -4.116699 4.341526 -3.035156 -4.085449 4.132053 -2.460449 -5.179199 4.064182 -2.270508 4.116699 4.341526 3.035156 4.085449 4.132053 2.460449 5.179199 4.064182 2.270508 -0.7231445 0.446018 -0.7060547 -4.116699 2.132053 3.034668 -4.085449 2.341038 2.460449 -6.919434 3.237522 4.349097E-09 4.116699 2.132053 -3.034668 4.085449 2.341038 -2.460449 6.919434 3.237522 4.349097E-09</float_array>
					<technique_common>
						<accessor source="#polygon2_PosArr" count="49" stride="3">
							<param name="X" type="float" />
							<param name="Y" type="float" />
							<param name="Z" type="float" />
						</accessor>
					</technique_common>
				</source>
				<source id="polygon2_UVs0">
					<float_array id="polygon2_UVArr0" count="2">0.7460938 0.4570313</float_array>
					<technique_common>
						<accessor source="#polygon2_UVArr0" count="1" stride="2">
							<param name="S" type="float" />
							<param name="T" type="float" />
						</accessor>
					</technique_common>
				</source>
				<vertices id="polygon2_Vertices">
					<input semantic="POSITION" source="#polygon2_Positions" />
				</vertices>
				<triangles material="light__enLuminouseO__D__" count="48">
					<input semantic="VERTEX" source="#polygon2_Vertices" offset="0" />
					<input semantic="TEXCOORD" source="#polygon2_UVs0" set="0" offset="1" />
					<p>2 0 1 0 0 0 3 0 1 0 2 0 4 0 3 0 2 0 5 0 3 0 4 0 6 0 5 0 4 0 7 0 5 0 6 0 8 0 7 0 6 0 11 0 10 0 9 0 12 0 10 0 11 0 13 0 12 0 11 0 14 0 12 0 13 0 15 0 14 0 13 0 18 0 17 0 16 0 19 0 17 0 18 0 20 0 19 0 18 0 21 0 19 0 20 0 22 0 21 0 20 0 3 0 23 0 1 0 24 0 23 0 3 0 5 0 24 0 3 0 25 0 24 0 5 0 7 0 25 0 5 0 28 0 27 0 26 0 29 0 27 0 28 0 30 0 29 0 28 0 15 0 29 0 30 0 33 0 32 0 31 0 34 0 32 0 33 0 35 0 34 0 33 0 22 0 34 0 35 0 26 0 37 0 36 0 38 0 37 0 26 0 27 0 38 0 26 0 31 0 40 0 39 0 41 0 40 0 31 0 32 0 41 0 31 0 6 0 42 0 8 0 2 0 42 0 6 0 4 0 2 0 6 0 44 0 10 0 43 0 9 0 10 0 44 0 15 0 45 0 29 0 13 0 45 0 15 0 47 0 17 0 46 0 16 0 17 0 47 0 48 0 22 0 20 0 34 0 22 0 48 0 2 0 0 0 42 0</p>
				</triangles>
			</mesh>
		</geometry>
	</library_geometries>
	<library_controllers>
		<controller id="polygon0_Controller">
			<skin source="#polygon0">
				<bind_shape_matrix>1 0 0 0 0 1 0 0 0 0 1 0 0 0 0 1</bind_shape_matrix>
				<source id="polygon0_Joints">
					<Name_array id="polygon0_JointArr" count="7">Root Mesh Reference Hips Head Body Parts</Name_array>
					<technique_common>
						<accessor source="#polygon0_JointArr" count="7">
							<param name="JOINT" type="Name" />
						</accessor>
					</technique_common>
				</source>
				<source id="polygon0_Matrices">
					<float_array id="polygon0_MatArr" count="112">1 0 0 0 0 1 0 0 0 0 1 0 0 0 0 1 1 0 0 0 0 1 0 -2.8801 0 0 1 0 0 0 0 1 1 0 0 0 0 1 0 0 0 0 1 0 0 0 0 1 1 0 0 0 0 1 0 -2.8801 0 0 1 0 0 0 0 1 1 0 0 0 0 0 -1 0 0 1 0 -2.8801 0 0 0 1 1 0 0 0 0 0 -1 0 0 1 0 -2.8801 0 0 0 1 1 0 0 0 0 0 -1 0 0 1 0 -2.8801 0 0 0 1</float_array>
					<technique_common>
						<accessor source="#polygon0_MatArr" count="7" stride="16">
							<param type="float4x4" />
						</accessor>
					</technique_common>
				</source>
				<source id="polygon0_Weights">
					<float_array id="polygon0_WeightArr" count="1">1</float_array>
					<technique_common>
						<accessor source="#polygon0_WeightArr" count="1">
							<param type="float" />
						</accessor>
					</technique_common>
				</source>
				<joints>
					<input semantic="JOINT" source="#polygon0_Joints" />
					<input semantic="INV_BIND_MATRIX" source="#polygon0_Matrices" />
				</joints>
				<vertex_weights count="340">
					<input semantic="JOINT" offset="0" source="#polygon0_Joints" />
					<input semantic="WEIGHT" offset="1" source="#polygon0_Weights" />
					<vcount>1 1 1 1 1 1 1 1 1 1 1 1 1 1 1 1 1 1 1 1 1 1 1 1 1 1 1 1 1 1 1 1 1 1 1 1 1 1 1 1 1 1 1 1 1 1 1 1 1 1 1 1 1 1 1 1 1 1 1 1 1 1 1 1 1 1 1 1 1 1 1 1 1 1 1 1 1 1 1 1 1 1 1 1 1 1 1 1 1 1 1 1 1 1 1 1 1 1 1 1 1 1 1 1 1 1 1 1 1 1 1 1 1 1 1 1 1 1 1 1 1 1 1 1 1 1 1 1 1 1 1 1 1 1 1 1 1 1 1 1 1 1 1 1 1 1 1 1 1 1 1 1 1 1 1 1 1 1 1 1 1 1 1 1 1 1 1 1 1 1 1 1 1 1 1 1 1 1 1 1 1 1 1 1 1 1 1 1 1 1 1 1 1 1 1 1 1 1 1 1 1 1 1 1 1 1 1 1 1 1 1 1 1 1 1 1 1 1 1 1 1 1 1 1 1 1 1 1 1 1 1 1 1 1 1 1 1 1 1 1 1 1 1 1 1 1 1 1 1 1 1 1 1 1 1 1 1 1 1 1 1 1 1 1 1 1 1 1 1 1 1 1 1 1 1 1 1 1 1 1 1 1 1 1 1 1 1 1 1 1 1 1 1 1 1 1 1 1 1 1 1 1 1 1 1 1 1 1 1 1 1 1 1 1 1 1 1 1 1 1 1 1 1 1 1 1 1 1 1 1 1 1 1 1 1 1 1 1 1 1</vcount>
					<v>4 0 4 0 4 0 4 0 4 0 4 0 4 0 4 0 4 0 4 0 4 0 4 0 4 0 4 0 4 0 4 0 4 0 4 0 4 0 4 0 4 0 4 0 4 0 4 0 4 0 4 0 4 0 4 0 4 0 4 0 4 0 4 0 4 0 4 0 4 0 4 0 4 0 4 0 4 0 4 0 4 0 4 0 4 0 4 0 4 0 4 0 4 0 4 0 4 0 4 0 4 0 4 0 4 0 4 0 5 0 5 0 5 0 5 0 5 0 5 0 5 0 5 0 5 0 5 0 5 0 4 0 4 0 4 0 4 0 4 0 4 0 4 0 4 0 4 0 5 0 5 0 5 0 5 0 5 0 5 0 5 0 5 0 5 0 5 0 5 0 5 0 5 0 4 0 4 0 4 0 4 0 4 0 4 0 4 0 4 0 4 0 5 0 5 0 5 0 5 0 5 0 5 0 5 0 5 0 5 0 5 0 5 0 5 0 5 0 5 0 5 0 4 0 4 0 4 0 4 0 4 0 4 0 4 0 4 0 5 0 5 0 5 0 5 0 5 0 5 0 5 0 4 0 4 0 4 0 4 0 5 0 5 0 5 0 5 0 5 0 5 0 5 0 5 0 5 0 5 0 5 0 5 0 5 0 5 0 5 0 5 0 5 0 5 0 5 0 5 0 6 0 6 0 6 0 6 0 6 0 6 0 6 0 4 0 4 0 4 0 4 0 6 0 6 0 6 0 6 0 6 0 6 0 6 0 4 0 4 0 4 0 4 0 4 0 4 0 4 0 5 0 5 0 5 0 5 0 5 0 5 0 5 0 6 0 6 0 6 0 6 0 6 0 6 0 6 0 6 0 6 0 6 0 6 0 6 0 6 0 6 0 6 0 6 0 6 0 6 0 6 0 6 0 5 0 5 0 5 0 5 0 5 0 5 0 6 0 6 0 6 0 6 0 6 0 6 0 6 0 6 0 6 0 6 0 6 0 6 0 6 0 6 0 6 0 6 0 6 0 6 0 6 0 5 0 5 0 6 0 6 0 6 0 6 0 6 0 6 0 6 0 6 0 6 0 6 0 5 0 5 0 5 0 5 0 6 0 6 0 6 0 4 0 4 0 4 0 4 0 4 0 4 0 6 0 6 0 6 0 6 0 6 0 6 0 4 0 4 0 6 0 6 0 6 0 6 0 6 0 6 0 6 0 6 0 6 0 4 0 6 0 6 0 6 0 6 0 6 0 6 0 6 0 6 0 6 0 6 0 6 0 6 0 5 0 5 0 6 0 6 0 6 0 6 0 6 0 6 0 6 0 6 0 6 0 6 0 6 0 6 0 6 0 6 0 6 0 6 0 6 0 6 0 6 0 4 0 4 0 4 0 4 0 4 0 4 0 4 0 4 0 4 0 4 0 4 0 4 0 5 0 4 0 6 0 5 0 5 0 5 0 5 0 4 0 6 0 6 0 4 0 4 0 4 0 4 0 6 0 6 0 6 0 6 0 5 0 5 0 5 0 6 0 4 0 5 0 5 0</v>
				</vertex_weights>
			</skin>
		</controller>
		<controller id="polygon1_Controller">
			<skin source="#polygon1">
				<bind_shape_matrix>1 0 0 0 0 1 0 0 0 0 1 0 0 0 0 1</bind_shape_matrix>
				<source id="polygon1_Joints">
					<Name_array id="polygon1_JointArr" count="7">Root Mesh Reference Hips Head Body Parts</Name_array>
					<technique_common>
						<accessor source="#polygon1_JointArr" count="7">
							<param name="JOINT" type="Name" />
						</accessor>
					</technique_common>
				</source>
				<source id="polygon1_Matrices">
					<float_array id="polygon1_MatArr" count="112">1 0 0 0 0 1 0 0 0 0 1 0 0 0 0 1 1 0 0 0 0 1 0 -2.8801 0 0 1 0 0 0 0 1 1 0 0 0 0 1 0 0 0 0 1 0 0 0 0 1 1 0 0 0 0 1 0 -2.8801 0 0 1 0 0 0 0 1 1 0 0 0 0 0 -1 0 0 1 0 -2.8801 0 0 0 1 1 0 0 0 0 0 -1 0 0 1 0 -2.8801 0 0 0 1 1 0 0 0 0 0 -1 0 0 1 0 -2.8801 0 0 0 1</float_array>
					<technique_common>
						<accessor source="#polygon1_MatArr" count="7" stride="16">
							<param type="float4x4" />
						</accessor>
					</technique_common>
				</source>
				<source id="polygon1_Weights">
					<float_array id="polygon1_WeightArr" count="1">1</float_array>
					<technique_common>
						<accessor source="#polygon1_WeightArr" count="1">
							<param type="float" />
						</accessor>
					</technique_common>
				</source>
				<joints>
					<input semantic="JOINT" source="#polygon1_Joints" />
					<input semantic="INV_BIND_MATRIX" source="#polygon1_Matrices" />
				</joints>
				<vertex_weights count="8">
					<input semantic="JOINT" offset="0" source="#polygon1_Joints" />
					<input semantic="WEIGHT" offset="1" source="#polygon1_Weights" />
					<vcount>1 1 1 1 1 1 1 1</vcount>
					<v>4 0 4 0 4 0 4 0 4 0 4 0 4 0 4 0</v>
				</vertex_weights>
			</skin>
		</controller>
		<controller id="polygon2_Controller">
			<skin source="#polygon2">
				<bind_shape_matrix>1 0 0 0 0 1 0 0 0 0 1 0 0 0 0 1</bind_shape_matrix>
				<source id="polygon2_Joints">
					<Name_array id="polygon2_JointArr" count="7">Root Mesh Reference Hips Head Body Parts</Name_array>
					<technique_common>
						<accessor source="#polygon2_JointArr" count="7">
							<param name="JOINT" type="Name" />
						</accessor>
					</technique_common>
				</source>
				<source id="polygon2_Matrices">
					<float_array id="polygon2_MatArr" count="112">1 0 0 0 0 1 0 0 0 0 1 0 0 0 0 1 1 0 0 0 0 1 0 -2.8801 0 0 1 0 0 0 0 1 1 0 0 0 0 1 0 0 0 0 1 0 0 0 0 1 1 0 0 0 0 1 0 -2.8801 0 0 1 0 0 0 0 1 1 0 0 0 0 0 -1 0 0 1 0 -2.8801 0 0 0 1 1 0 0 0 0 0 -1 0 0 1 0 -2.8801 0 0 0 1 1 0 0 0 0 0 -1 0 0 1 0 -2.8801 0 0 0 1</float_array>
					<technique_common>
						<accessor source="#polygon2_MatArr" count="7" stride="16">
							<param type="float4x4" />
						</accessor>
					</technique_common>
				</source>
				<source id="polygon2_Weights">
					<float_array id="polygon2_WeightArr" count="1">1</float_array>
					<technique_common>
						<accessor source="#polygon2_WeightArr" count="1">
							<param type="float" />
						</accessor>
					</technique_common>
				</source>
				<joints>
					<input semantic="JOINT" source="#polygon2_Joints" />
					<input semantic="INV_BIND_MATRIX" source="#polygon2_Matrices" />
				</joints>
				<vertex_weights count="49">
					<input semantic="JOINT" offset="0" source="#polygon2_Joints" />
					<input semantic="WEIGHT" offset="1" source="#polygon2_Weights" />
					<vcount>1 1 1 1 1 1 1 1 1 1 1 1 1 1 1 1 1 1 1 1 1 1 1 1 1 1 1 1 1 1 1 1 1 1 1 1 1 1 1 1 1 1 1 1 1 1 1 1 1</vcount>
					<v>5 0 5 0 5 0 5 0 5 0 5 0 5 0 5 0 5 0 6 0 6 0 6 0 6 0 6 0 6 0 6 0 6 0 6 0 6 0 6 0 6 0 6 0 6 0 5 0 5 0 5 0 6 0 6 0 6 0 6 0 6 0 6 0 6 0 6 0 6 0 6 0 6 0 6 0 6 0 6 0 6 0 6 0 5 0 6 0 6 0 6 0 6 0 6 0 6 0</v>
				</vertex_weights>
			</skin>
		</controller>
	</library_controllers>
	<library_visual_scenes>
		<visual_scene id="RootNode" name="RootNode">
			<node id="Root" name="Root" sid="Root" type="JOINT">
				<node id="Mesh" name="Mesh" sid="Mesh" type="JOINT">
					<translate>0 2.8801 0</translate>
				</node>
				<node id="Reference" name="Reference" sid="Reference" type="JOINT">
					<node id="Hips" name="Hips" sid="Hips" type="JOINT">
						<translate>0 2.8801 0</translate>
						<node id="Head" name="Head" sid="Head" type="JOINT">
							<rotate>1 0 0 -90</rotate>
							<node id="Body" name="Body" sid="Body" type="JOINT" />
						</node>
						<node id="Parts" name="Parts" sid="Parts" type="JOINT">
							<rotate>1 0 0 -90</rotate>
						</node>
					</node>
				</node>
			</node>
			<node id="polygon0" name="polygon0" type="NODE">
				<instance_controller url="#polygon0_Controller">
					<skeleton>#Root</skeleton>
					<bind_material>
						<technique_common>
							<instance_material symbol="body__cmnRing__" target="#body__cmnRing__">
								<bind_vertex_input semantic="TEXCOORD0" input_semantic="TEXCOORD" input_set="0" />
								<bind_vertex_input semantic="TEXCOORD0" input_semantic="TEXCOORD" input_set="0" />
							</instance_material>
						</technique_common>
					</bind_material>
				</instance_controller>
			</node>
			<node id="polygon1" name="polygon1" type="NODE">
				<instance_controller url="#polygon1_Controller">
					<skeleton>#Root</skeleton>
					<bind_material>
						<technique_common>
							<instance_material symbol="eye__enAdd__" target="#eye__enAdd__">
								<bind_vertex_input semantic="TEXCOORD0" input_semantic="TEXCOORD" input_set="0" />
							</instance_material>
						</technique_common>
					</bind_material>
				</instance_controller>
			</node>
			<node id="polygon2" name="polygon2" type="NODE">
				<instance_controller url="#polygon2_Controller">
					<skeleton>#Root</skeleton>
					<bind_material>
						<technique_common>
							<instance_material symbol="light__enLuminouseO__D__" target="#light__enLuminouseO__D__">
								<bind_vertex_input semantic="TEXCOORD0" input_semantic="TEXCOORD" input_set="0" />
							</instance_material>
						</technique_common>
					</bind_material>
				</instance_controller>
			</node>
		</visual_scene>
	</library_visual_scenes>
	<scene>
		<instance_visual_scene url="#RootNode" />
	</scene>
</COLLADA>