<?xml version="1.0" encoding="utf-8"?>
<COLLADA version="1.5.0" xmlns="http://www.collada.org/2008/03/COLLADASchema">
	<asset>
		<contributor>
			<authoring_tool>BrawlBox</authoring_tool>
		</contributor>
		<created>2022-11-10T17:44:14Z</created>
		<modified>2022-11-10T17:44:14Z</modified>
		<unit meter="0.01" name="centimeter" />
		<up_axis>Y_UP</up_axis>
	</asset>
	<library_images>
		<image id="enm_spin_add_SD-image" name="enm_spin_add_SD">
			<init_from>
				<ref>enm_spin_add_SD.png</ref>
			</init_from>
		</image>
		<image id="enm_spin_dif_SD-image" name="enm_spin_dif_SD">
			<init_from>
				<ref>enm_spin_dif_SD.png</ref>
			</init_from>
		</image>
		<image id="enm_spin_ref_SD-image" name="enm_spin_ref_SD">
			<init_from>
				<ref>enm_spin_ref_SD.png</ref>
			</init_from>
		</image>
		<image id="enm_spin_spc_SD-image" name="enm_spin_spc_SD">
			<init_from>
				<ref>enm_spin_spc_SD.png</ref>
			</init_from>
		</image>
		<image id="enm_spin_spr_SD-image" name="enm_spin_spr_SD">
			<init_from>
				<ref>enm_spin_spr_SD.png</ref>
			</init_from>
		</image>
	</library_images>
	<library_materials>
		<material id="body__enMetal__">
			<instance_effect url="#body__enMetal__-fx" />
		</material>
		<material id="eye__enAdd__">
			<instance_effect url="#eye__enAdd__-fx" />
		</material>
		<material id="light__enLuminouseO__D__">
			<instance_effect url="#light__enLuminouseO__D__-fx" />
		</material>
	</library_materials>
	<library_effects>
		<effect id="body__enMetal__-fx" name="body__enMetal__">
			<profile_COMMON>
				<newparam sid="enm_spin_dif_SD-surface">
					<surface type="2D">
						<init_from>
							<ref>enm_spin_dif_SD-image</ref>
						</init_from>
					</surface>
				</newparam>
				<newparam sid="enm_spin_dif_SD-sampler">
					<sampler2D>
						<source>enm_spin_dif_SD-surface</source>
						<instance_image url="#enm_spin_dif_SD-image" />
						<wrap_s>WRAP</wrap_s>
						<wrap_t>WRAP</wrap_t>
						<minfilter>LINEAR_MIPMAP_LINEAR</minfilter>
						<magfilter>LINEAR</magfilter>
					</sampler2D>
				</newparam>
				<technique sid="COMMON">
					<phong>
						<diffuse>
							<texture texture="enm_spin_dif_SD-sampler" texcoord="TEXCOORD0" />
						</diffuse>
					</phong>
				</technique>
			</profile_COMMON>
		</effect>
		<effect id="eye__enAdd__-fx" name="eye__enAdd__">
			<profile_COMMON>
				<newparam sid="enm_spin_add_SD-surface">
					<surface type="2D">
						<init_from>
							<ref>enm_spin_add_SD-image</ref>
						</init_from>
					</surface>
				</newparam>
				<newparam sid="enm_spin_add_SD-sampler">
					<sampler2D>
						<source>enm_spin_add_SD-surface</source>
						<instance_image url="#enm_spin_add_SD-image" />
						<wrap_s>WRAP</wrap_s>
						<wrap_t>WRAP</wrap_t>
						<minfilter>LINEAR_MIPMAP_LINEAR</minfilter>
						<magfilter>LINEAR</magfilter>
					</sampler2D>
				</newparam>
				<technique sid="COMMON">
					<phong>
						<diffuse>
							<texture texture="enm_spin_add_SD-sampler" texcoord="TEXCOORD0" />
						</diffuse>
					</phong>
				</technique>
			</profile_COMMON>
		</effect>
		<effect id="light__enLuminouseO__D__-fx" name="light__enLuminouseO__D__">
			<profile_COMMON>
				<newparam sid="enm_spin_dif_SD-surface">
					<surface type="2D">
						<init_from>
							<ref>enm_spin_dif_SD-image</ref>
						</init_from>
					</surface>
				</newparam>
				<newparam sid="enm_spin_dif_SD-sampler">
					<sampler2D>
						<source>enm_spin_dif_SD-surface</source>
						<instance_image url="#enm_spin_dif_SD-image" />
						<wrap_s>WRAP</wrap_s>
						<wrap_t>WRAP</wrap_t>
						<minfilter>LINEAR_MIPMAP_LINEAR</minfilter>
						<magfilter>LINEAR</magfilter>
					</sampler2D>
				</newparam>
				<technique sid="COMMON">
					<phong>
						<diffuse>
							<texture texture="enm_spin_dif_SD-sampler" texcoord="TEXCOORD0" />
						</diffuse>
					</phong>
				</technique>
			</profile_COMMON>
		</effect>
	</library_effects>
	<library_geometries>
		<geometry id="polygon0" name="polygon0">
			<mesh>
				<source id="polygon0_Positions">
					<float_array id="polygon0_PosArr" count="1020">-2.330811 4.000462 -0.5761719 -2.330811 3.197483 -0.876709 -2.274902 4.016331 -0.876709 -1.763916 3.197483 -1.728271 -1.763916 4.004612 -1.728271 -1.012451 4.004612 -2.232178 -1.442627 4.782444 -1.728271 -0.6862793 4.560032 -2.232178 -0.7897949 5.317356 -1.728271 0 4.766331 -2.232178 0 5.534885 -1.728271 0.7897949 5.317356 -1.728271 1.062256 5.821262 -0.8767089 1.442627 4.782444 -1.728271 1.918213 5.005344 -0.876709 2.274902 4.016331 -0.876709 2.330811 4.000462 -0.5761719 2.330811 3.197483 -0.876709 2.330811 4.000461 0.5656738 2.330811 3.197483 0.9401855 2.121094 4.036838 1.156738 2.121094 3.197483 1.156738 1.554199 3.197483 1.848633 -1.102539 5.962864 -0.01928707 -0.572998 6.170628 -0.02832027 -1.003662 5.962863 0.5729981 -0.4147949 6.179904 0.388916 -0.5686035 5.962863 1.059326 0 6.188938 0.6721192 0 5.962863 1.257324 0.5686035 5.962863 1.059326 0 5.132541 2.094971 1.044434 5.132541 1.737061 0 4.471408 2.341553 0.7263184 4.029514 2.252441 0 3.197483 2.341553 0.7263184 3.197483 2.252441 -2.330811 3.197483 0.9401855 -2.330811 4.000461 0.5656738 -2.330811 4.208714 -0.00244139 -2.026123 5.132542 -0.01489255 -1.768311 5.132541 0.9492188 -2.121094 4.036838 1.156738 -1.554199 4.036838 1.848633 -1.554199 3.197483 1.848633 -0.7263184 4.029514 2.252441 -0.7263184 3.197483 2.252441 -1.062256 5.821262 -0.8767089 0 6.091526 -0.8767089 0.572998 6.170628 -0.02832027 1.102539 5.962864 -0.01928707 1.003662 5.962863 0.5729981 2.026123 5.132542 -0.01489255 1.768311 5.132541 0.9492188 -1.569092 1.386204 0.6132813 -1.638916 1.214329 0.6779785 -1.640381 1.386204 -0.2893067 -1.733643 1.215061 -0.3056641 -1.070557 1.386204 -1.275879 -1.128662 1.215061 -1.345459 0 1.386204 -1.678955 0 1.215061 -1.766846 1.128662 1.215061 -1.345459 1.070557 1.026096 -1.275879 1.640381 1.026096 -0.2893067 0 6.256321 -0.03759762 0.4147949 6.179904 0.388916 -1.918213 5.005344 -0.876709 -1.044434 5.132541 1.737061 -2.043701 5.608127 0.0009765957 -1.821045 5.238254 0.0009765911 -1.905273 5.69138 -0.2290039 -1.682617 5.321751 -0.2290039 -1.34082 6.031223 -0.2290039 -1.118408 5.661594 -0.2290039 -1.202393 6.114475 0.0009766018 -0.9797363 5.744846 0.0009765973 -1.118408 5.661594 0.2202149 -1.526855 1.026829 0.6896973 -1.640381 1.026096 -0.2893067 -1.070557 1.026096 -1.275879 0 1.026096 -1.678955 -1.03418 3.197483 -2.232178 0 3.197483 -2.444336 0 4.004612 -2.443604 1.012451 4.004612 -2.232178 0.6862793 4.560032 -2.232178 -2.310791 2.781955 -0.4074707 -2.165771 2.781955 0.8969727 -1.08252 2.781955 2.079346 -0.8056641 1.386204 1.479248 0 2.781955 2.346436 0 1.386204 1.678955 0.8056641 1.386204 1.479248 0.5195313 1.158909 1.427246 1.431152 1.158909 0.5056152 1.237305 0.5632055 0.4504394 1.42749 1.158909 -0.5195313 1.237305 0.5632055 -0.4504395 0.7595215 1.158909 -1.31543 0.6584473 0.5632055 -1.140381 0 1.158909 -1.536621 -1.237305 0.5632055 0.4504394 -1.04126 0.446018 -2.961782E-08 -1.237305 0.5632055 -0.4504395 -0.7233887 0.446018 -0.7062988 -0.6584473 0.5632055 -1.140381 0 0.446018 -1.04834 0 0.5632055 -1.31665 1.554199 4.036838 1.848633 -1.682617 5.32175 0.2202149 -1.905273 5.691379 0.2202149 -1.34082 6.031223 0.2202149 -2.475098 3.54343 -0.8312988 -2.475098 4.042698 -0.3737793 -4.48999 3.456272 -0.01391601 -2.475098 4.072238 0.3024902 -4.48999 3.396946 0.1491699 -2.475098 3.614963 0.8017578 -2.475098 2.93845 0.8312988 1.070557 1.386204 -1.275879 1.733643 1.215061 -0.3056641 1.640381 1.386204 -0.2893067 1.638916 1.214329 0.6779785 1.569092 1.386204 0.6132813 1.207275 6.502658 0.4301758 1.134521 6.156711 0.4296875 1.293945 6.450413 -0.208496 1.252197 6.085911 -0.1777343 1.800781 6.138889 -0.6123046 1.623535 5.862278 -0.4284668 1.995117 5.638645 -0.1777343 0.817627 1.661838 1.301025 1.143799 1.854709 1.159668 1.712402 0.7472875 1.78833 1.395752 1.800266 0.8479004 1.909668 0.616184 1.452881 1.434326 1.570286 0.579834 1.286621 1.278538 0.4409179 -0.6616211 1.044895 0.8476563 -0.9726563 1.03635 0.5212402 -1.606689 0.34885 1.378906 -1.286621 1.278538 0.4409179 -1.909668 0.616184 1.452881 -1.434326 1.570286 0.579834 -1.395752 1.800266 0.8479004 -2.537109 3.05344 -1.769287 -1.845459 3.05344 -2.48877 -1.688232 3.518284 -2.266846 -0.9228516 3.05344 -2.998047 0 3.513157 -2.850342 0 3.05344 -3.138916 0.9228516 3.05344 -2.998047 -2.766113 3.496799 0.7893066 -3.066162 3.05344 0.8215332 -2.766113 2.677707 0.7685547 -2.554443 3.05344 1.768066 -1.671631 2.677707 2.220215 -1.862549 3.05344 2.497803 -1.003906 3.05344 2.970459 -1.42749 1.158909 -0.5195313 -0.7595215 1.158909 -1.31543 0 0.446018 1.04834 0.4501953 0.5632055 1.237061 0.7233887 0.446018 0.7060547 1.04126 0.446018 -2.961782E-08 0.7233887 0.446018 -0.7062988 2.475098 2.409641 0.3024902 2.475098 2.867161 0.8017578 4.48999 3.084934 0.1491699 2.475098 3.54343 0.8312988 4.48999 3.456272 0.01391602 2.475098 4.042697 0.3737793 2.475098 4.072239 -0.3024902 -0.7233887 0.446018 0.7060547 -0.4501953 0.5632055 1.237061 0 0.5632055 1.31665 -0.8815918 1.026096 1.43457 -0.8898926 1.208469 1.541748 0 1.026096 1.678955 0 1.215061 1.765625 0.8898926 1.208469 1.541748 -4.085693 2.341282 2.459961 -5.179443 2.411106 2.270508 -4.000244 3.041233 0.9257813 -3.982666 3.437473 0.07250977 -3.884521 3.041233 0.9257813 -3.608154 3.126682 0.6904297 -3.608154 3.346897 -0.6914063 -3.884521 3.432346 -0.9265137 -3.982666 3.044163 -0.07055664 -4.000244 3.432346 -0.9265137 -5.179443 4.064182 -2.270996 -4.085693 4.132298 -2.460938 -2.475098 2.867161 -0.8017578 -4.48999 3.084934 -0.1491699 -2.475098 2.409641 -0.3024902 -4.48999 3.025608 0.01391602 -2.475098 2.439182 0.3737793 2.310791 2.781955 -0.4074707 2.165771 2.781955 0.8969727 1.08252 2.781955 2.079346 -1.678955 2.677707 -2.255371 0 2.677707 -2.858154 -1.688232 3.518284 2.234619 0 2.781955 -2.291504 -1.508301 2.781955 -1.797363 3.884521 2.791233 -0.8347168 3.884521 3.041233 -0.9255371 3.608154 2.876926 -0.5996094 3.608154 3.126682 -0.6904297 3.326416 2.923313 -0.4719238 3.326416 3.173313 -0.5627441 1.508301 2.781955 -1.797363 3.326416 3.300266 0.5637207 3.326416 3.550266 0.4729004 3.608154 3.346897 0.6914063 3.608154 3.596653 0.6005859 3.884521 3.432346 0.9265137 3.884521 3.682346 0.8356934 0.5915527 1.253391 1.126465 1.409424 0.4799535 1.7146 0.6616211 1.044895 0.8476563 1.606689 0.34885 1.378906 0.9726563 1.03635 0.5212402 -4.000244 3.682346 -0.8356934 -6.10376 3.854954 -1.696289 -6.775391 3.544895 -0.8444824 3.31665 3.437473 -0.07250976 3.31665 3.044163 0.07055664 0 3.05344 3.15332 0 3.520969 2.819336 1.003906 3.05344 2.970459 1.688232 3.518284 2.234619 1.862549 3.05344 2.497803 2.554443 3.05344 1.768066 4.085693 4.132297 2.460938 5.179443 4.064182 2.270996 4.000244 3.432346 0.9265137 3.982666 3.044163 0.07055664 -2.371338 5.801975 0.4487305 -2.112549 5.567844 0.4296875 -2.246094 5.877171 -0.3203125 -1.995117 5.638645 -0.1777343 -1.800781 6.138889 -0.6123046 -1.623535 5.862278 -0.4284668 2.475098 2.439182 -0.3737793 4.48999 3.025608 -0.01391601 2.475098 2.93845 -0.8312988 4.48999 3.396946 -0.1491699 2.475098 3.614963 -0.8017578 -4.000244 2.791233 0.8347168 -6.10376 2.620334 1.696045 -6.775391 2.930149 0.8442383 2.766113 3.496799 -0.7893066 3.048584 3.05344 -0.8322754 2.766113 2.677707 -0.7685547 2.537109 3.05344 -1.769287 1.678955 2.677707 -2.255371 1.845459 3.05344 -2.48877 2.766113 3.496799 0.7893066 1.688232 3.518284 -2.266846 2.330811 4.208714 -0.00244139 -0.5915527 1.253391 1.126465 -1.409424 0.4799535 1.7146 -0.817627 1.661838 1.301025 -1.712402 0.7472875 1.78833 -1.143799 1.854709 1.159668 4.000244 3.682346 0.8356934 3.982666 3.437473 -0.07250976 6.10376 3.854954 1.696289 6.775391 3.544895 0.8444824 4.085693 2.341282 -2.459961 5.179443 2.411106 -2.270508 4.000244 3.041233 -0.9255371 1.763916 3.197483 -1.728271 1.763916 4.004612 -1.728271 -0.5195313 1.158909 1.427246 0 1.158909 1.542969 2.550293 7.719455 0.5290528 2.627441 7.732151 -0.07836908 2.246094 5.877171 -0.3203125 2.806641 7.624241 -0.07836908 2.371338 5.801975 0.4487305 2.831299 7.550266 0.5290528 -6.919189 3.237522 -0.0002441363 -3.884521 3.682346 -0.8356934 -3.608154 3.596653 -0.6003418 -3.326416 3.550266 -0.4729004 -1.431152 1.158909 0.5056152 -2.121094 3.197483 1.156738 -3.884521 2.791233 0.8347168 -3.608154 2.876926 0.5996094 -3.326416 2.923313 0.4719238 -3.31665 3.044163 -0.07055664 -3.326416 3.300266 -0.5637207 -2.766113 2.677707 -0.7685547 0 2.677707 2.878662 1.671631 2.677707 2.220215 2.766113 2.677707 0.7685547 3.066162 3.05344 0.8215332 6.10376 2.620334 -1.696045 6.775391 2.930149 -0.8442383 6.919189 3.237522 0.000244145 -1.771973 0.3844945 1.713623 1.771973 0.3844945 1.713623 1.526855 1.026829 0.6896973 -1.252197 6.085911 -0.1777343 -1.134521 6.156711 0.4296875 -1.207275 6.502658 0.4301758 -2.831299 7.550266 0.5290528 -1.293945 6.450413 -0.208496 -2.627441 7.732151 -0.07836908 -2.717041 7.678196 -0.1291503 -2.806641 7.624241 -0.07836908 -2.550293 7.719455 0.5290528 2.112549 5.567844 0.4296875 -3.326416 3.173313 0.5627441 -3.31665 3.437473 0.07250977 4.000244 2.791233 -0.8347168 2.717041 7.678196 -0.1291503 2.043701 5.608127 0.0009765957 1.905273 5.69138 -0.2290039 1.821045 5.238254 0.0009765911 1.682617 5.321751 -0.2290039 1.34082 6.031223 -0.2290039 1.118408 5.661594 -0.2290039 1.202393 6.114475 0.0009766018 0.9797363 5.744846 0.0009765973 1.682617 5.32175 0.2202149 1.905273 5.691379 0.2202149 1.118408 5.661594 0.2202149 1.34082 6.031223 0.2202149 -3.048584 3.05344 -0.8322754 -2.766113 3.496799 -0.7893066 1.03418 3.197483 -2.232178 0 1.026096 -2.255945E-08 0.8815918 1.026096 1.43457 0 1.386204 -1.817768E-08 0 1.386204 -1.817768E-08</float_array>
					<technique_common>
						<accessor source="#polygon0_PosArr" count="340" stride="3">
							<param name="X" type="float" />
							<param name="Y" type="float" />
							<param name="Z" type="float" />
						</accessor>
					</technique_common>
				</source>
				<source id="polygon0_Normals">
					<float_array id="polygon0_NormArr" count="1410">-0.9823608 0.1574707 -0.1008301 -0.951416 0.03729248 -0.305603 -0.9171143 0.1913452 -0.3496094 -0.7195435 0.01641847 -0.6942749 -0.727417 0.1455078 -0.6705933 -0.3994751 0.1079102 -0.9103394 -0.604248 0.4320679 -0.6694946 -0.2684937 0.3373413 -0.9022827 -0.3259277 0.6473999 -0.6889648 0 0.4327393 -0.9014893 0 0.7209473 -0.6929932 0.3259277 0.6473999 -0.6889648 0.4611206 0.8098755 -0.3625488 0.604248 0.4320679 -0.6694946 0.7885742 0.5087891 -0.3453979 0.9171143 0.1913452 -0.3496094 0.9823608 0.1574707 -0.1008301 0.951416 0.03729248 -0.305603 0.9703979 0.1782227 0.1628418 0.9266968 0.03741455 0.3740234 0.8434448 0.2061768 0.4960938 0.746521 -8.096627E-09 0.6654053 0.6201782 -9.545584E-09 0.7844849 -0.5332642 0.8450317 -0.03979491 -0.2602539 0.9628906 -0.07128905 -0.493103 0.833252 0.250061 -0.2050781 0.9685669 0.1409302 -0.3137207 0.8248291 0.4703369 0 0.9705811 0.2407227 0 0.8196411 0.5728149 0.3137207 0.8248291 0.4703369 0 0.5234985 0.8519897 0.4584351 0.5250854 0.717041 0 0.2304077 0.9730835 0.3051758 0.1274414 0.9437256 0 -1.216796E-08 1 0.2840576 -1.166666E-08 0.9588013 -0.9266968 0.03741455 0.3740234 -0.9703979 0.1782227 0.1628418 -0.9812622 0.192688 0.00115967 -0.8346558 0.5507202 0.006896979 -0.7389526 0.5410767 0.4014893 -0.8434448 0.2061768 0.4960938 -0.6188965 0.1670532 0.7675171 -0.6201782 -9.545584E-09 0.7844849 -0.3051758 0.1274414 0.9437256 -0.2840576 -1.166666E-08 0.9588013 -0.4611206 0.8098755 -0.3625488 0 0.9224243 -0.3861084 0.2602539 0.9628906 -0.07128905 0.5332642 0.8450317 -0.03979491 0.493103 0.833252 0.250061 0.8346558 0.5507202 0.006896979 0.7389526 0.5410767 0.4014893 -0.9147949 0.3974609 0.07208253 -0.9881592 -0.1254883 0.08837891 -0.8565063 0.4796753 -0.1904907 -0.9783936 0.01580811 -0.2059937 -0.5710449 0.4685669 -0.6740112 -0.6452026 0.01745606 -0.7637939 0 0.4578247 -0.8890381 0 0.01702882 -0.9998779 0.6452026 0.01745606 -0.7637939 0.583313 -0.4315186 -0.6881714 0.875061 -0.4470825 -0.1853027 0 0.9978638 -0.06518553 0.2050781 0.9685669 0.1409302 -0.7885742 0.5087891 -0.3453979 -0.4584351 0.5250854 0.717041 -0.8566284 -0.5157471 0.01141357 -0.3948975 -0.237793 -0.8873901 -0.3948975 -0.237793 -0.8874512 0.3948975 0.237793 -0.8873901 0.8566284 0.5157471 0.01141358 0.3862305 0.2325439 0.8926392 -0.8634033 -0.4972534 0.08526611 -0.875061 -0.4470825 -0.1853027 -0.583313 -0.4315186 -0.6881714 0 -0.4215698 -0.9067993 -0.3954468 0.01068116 -0.918457 0 0.002868664 -1 0 0.1025391 -0.994751 0.3994751 0.1079102 -0.9103394 0.2684937 0.3373413 -0.9022827 -0.8818359 -0.4329224 -0.1868286 -0.8225098 -0.4277954 0.3748169 -0.8278809 -0.4300537 0.3601685 -0.4577026 -0.4297485 0.7783813 -0.4776001 -0.4250488 0.7689209 0 -0.4317627 0.9019775 0 -0.4314575 0.9021606 0.4776001 -0.4250488 0.7689209 0.4505615 -0.3168945 0.8345947 0.8800049 -0.3189087 0.3519287 0.87323 -0.3189087 0.3684692 0.8892822 -0.3224487 -0.3243408 0.8898315 -0.3214722 -0.3238525 0.5150146 -0.321106 -0.7947388 0.5155029 -0.3264771 -0.7922363 0 -0.3362427 -0.9417725 -0.3449707 -0.9276123 0.1433105 -0.4155273 -0.9095459 -1.106732E-08 -0.3389893 -0.9312134 -0.133728 -0.2800293 -0.9244385 -0.2588501 -0.1786499 -0.9362793 -0.3024902 0 -0.9314575 -0.3638306 0 -0.9165039 -0.4000854 0.1786499 -0.9362793 -0.3024902 0.6188965 0.1670532 0.7675171 -0.3862305 -0.232544 0.8926392 -0.3370972 0.3220215 -0.8847046 -0.3215332 0.8549194 -0.4070435 -0.7383423 0.6170654 -0.2721558 -0.3079834 0.894043 0.3253784 -0.7383423 0.2977295 0.6051025 -0.3215332 0.3932495 0.8613892 -0.3370972 -0.3220215 0.8847046 0.5710449 0.4685669 -0.6740112 0.9783936 0.01580811 -0.2059937 0.8565063 0.4796753 -0.1904907 0.9881592 -0.1254883 0.08837891 0.9147949 0.3974609 0.07208253 -0.9678345 0.2034302 -0.1480103 -0.9718018 0.168457 -0.1651001 -0.8717651 0.07965089 -0.4833984 -0.8314209 0.02600098 -0.5549927 -0.2497559 -0.3994141 -0.8820801 -0.2592773 -0.4137573 -0.8726807 0.4296265 -0.7504272 -0.5022583 -0.2591553 0.2949829 0.9196777 0.418396 0.6011963 0.6807861 0.4000854 0.2594604 0.8789673 0.8533325 0.4935913 0.1680908 0.9846802 -0.1292114 -0.1168823 0.9210815 0.1201172 -0.3703613 0.6152954 -0.3867188 -0.6869507 0.6271973 -0.7774048 -0.04803468 0.03485107 -0.7922363 -0.6092529 -0.09259033 -0.9396973 -0.3292236 -0.6152954 -0.3867188 -0.6869507 -0.9846802 -0.1292114 -0.1168823 -0.9210815 0.1201172 -0.3703613 -0.8533325 0.4935913 0.1680908 -0.6432495 0.6080933 -0.46521 -0.5244751 0.5047607 -0.6856689 -0.4992065 0.5700684 -0.6525879 -0.2471313 0.6347656 -0.7321167 0 0.6013184 -0.7990112 0 0.5317383 -0.8469238 0.2471313 0.6347656 -0.7321167 -0.1434937 0.02526857 -0.9893188 -0.6210327 -0.4006958 -0.673584 -0.7346802 -0.6779175 0.02593993 -0.5562744 -0.7203979 0.4142456 -0.4353027 -0.7037354 0.5614624 -0.4534302 -0.6669922 0.5911865 -0.2432251 -0.7290649 0.6397095 -0.8892822 -0.3224487 -0.3243408 -0.8898315 -0.3214722 -0.3238525 -0.5150146 -0.321106 -0.7947388 -0.5155029 -0.3264771 -0.7922363 0 -0.3464355 -0.9380493 0 -0.9373169 0.3485107 0.1531982 -0.9337769 0.3234253 0.3214111 -0.8916626 0.3187866 0.3449707 -0.9276123 0.1433105 0.4155273 -0.9095459 -1.106732E-08 0.3389893 -0.9312134 -0.133728 0.2800293 -0.9244385 -0.2588501 0.3079834 -0.894043 0.3253784 0.3215332 -0.3932495 0.8613892 0.7383423 -0.2977295 0.6051025 0.3370972 0.3220215 0.8847046 0.7383423 0.6170654 0.2721558 0.3215332 0.8549194 0.4070435 0.3079834 0.894043 -0.3253784 -0.3214111 -0.8916626 0.3187866 -0.1531982 -0.9337769 0.3234253 0 -0.9165039 0.4000854 -0.2312622 -0.5010376 0.8339233 -0.2523804 -0.1133423 0.9609375 0 -0.4308472 0.9024048 0 0.01989745 0.9998169 0.2523804 -0.1133423 0.9609375 0 0.4484253 0.8937988 0.2189941 0.414856 0.8831787 -0.01361084 0.9100342 0.4143677 -0.02874756 0.9121094 0.4089966 -0.003967285 0.9073486 0.4204102 -0.006896973 0.9396973 0.342041 0.02770996 0.9077759 0.4185791 0.05841064 0.9056396 0.4200439 0.05230713 -0.909668 -0.4119873 0.02478027 -0.911499 -0.4106445 -0.00958252 -0.9396362 -0.34198 -0.0112915 -0.9106445 -0.4130859 -0.02972412 -0.9128418 -0.4072876 -0.01519775 -0.9100342 -0.4143066 -0.3215332 -0.3932495 -0.8613892 -0.7383423 -0.2977295 -0.6051025 -0.3079834 -0.894043 -0.3253784 -0.7383423 -0.6170654 0.2721558 -0.3215332 -0.8549194 0.4070435 0.5758667 -0.4289551 -0.6959839 0.8759155 -0.4379883 -0.2023315 0.8818359 -0.4329224 -0.1868286 0.8278809 -0.4300537 0.3601685 0.8225098 -0.4277954 0.3748169 0.4577026 -0.4297485 0.7783813 1 0 0 -0.4830933 -0.6063843 -0.6316528 -0.4586792 -0.6578369 -0.5974121 -0.229126 -0.7168579 -0.6584473 0 -0.6654663 -0.74646 0 -0.5983276 -0.8012695 0.229126 -0.7168579 -0.6584473 -0.7442017 0.5331421 0.4023438 -0.7006226 0.5808105 0.4145508 -0.6259155 0.6322021 0.456665 -0.4794312 0.6162109 0.6248779 -0.50354 0.5609131 0.6571045 -0.2478638 0.6635132 0.7059326 0 -0.4187622 -0.9080811 -0.5674438 -0.4384155 -0.6969604 -0.5758667 -0.4289551 -0.6959839 -0.8759155 -0.4379883 -0.2023315 -0.6710815 -0.25354 -0.6966553 -0.5585327 -0.2836914 -0.77948 -0.4345093 -0.3080444 -0.8463135 0 -0.4019775 -0.9156494 0.5674438 -0.4384155 -0.6969604 -0.4345093 0.3080444 0.8463135 -0.5585327 0.2836914 0.77948 -0.6710815 0.25354 0.6966553 -0.7338257 -0.3204346 0.5990601 -0.494812 -0.5492554 0.6734619 -0.6271973 -0.7774048 -0.04803468 0.09259033 -0.9396973 -0.3292236 -0.03485107 -0.7922363 -0.6092529 -0.01361084 0.9634399 0.2675171 -0.003967285 0.965271 0.2611694 -0.02874756 0.9616089 0.2729492 -0.05322266 0.9557495 0.2893677 -0.06719971 0.9465942 0.3153687 -0.9998169 0.00604248 0.01660156 -1 0 0 -0.9998169 -0.00604248 -0.01660156 0 0.5813599 0.8136597 0 0.637207 0.7706909 0.2478638 0.6635132 0.7059326 0.4794312 0.6162109 0.6248779 0.50354 0.5609131 0.6571045 0.6259155 0.6322021 0.456665 0.01519775 -0.9100342 0.4143066 0.02972412 -0.9128418 0.4072876 0.0112915 -0.9106445 0.4130859 0.00958252 -0.9396362 0.34198 -0.02478027 -0.911499 0.4106445 -0.05230713 -0.909668 0.4119873 -0.6674805 -0.7227783 -0.1790772 -0.6525269 -0.734436 -0.1865845 -0.3912354 -0.7311401 -0.5588989 -0.4296265 -0.7504272 -0.5022583 0.2497559 -0.3994141 -0.8820801 0.2592773 -0.4137573 -0.8726807 0.3215332 -0.8549194 -0.4070435 0.7383423 -0.6170654 -0.2721558 0.3370972 -0.3220215 -0.8847046 0.7383423 0.2977905 -0.6051025 0.3215332 0.3932495 -0.8613892 -0.01519775 -0.9634399 -0.2675781 -0.0112915 -0.9630737 -0.2689209 -0.02972412 -0.9610596 -0.2747803 -0.05151367 -0.9553223 -0.2910156 -0.06500244 -0.9464722 -0.3162231 0.1882324 0.02508544 0.9818115 0.6559448 -0.3825073 0.6506958 0.7567749 -0.6523438 -0.04132081 0.5792236 -0.6958008 -0.4246826 0.4586792 -0.6578369 -0.5974121 0.4830933 -0.6063843 -0.6316528 0.02001953 0.9998169 1.216574E-08 0.002624512 1 1.216796E-08 0.005249023 1 -0.00085448 0 1 -0.0003661988 0 1 -0.001342761 0.9812622 0.192688 0.00115967 0.7338257 -0.3204346 0.5990601 0.494812 -0.5492554 0.6734619 0.2591553 0.2949829 0.9196777 -0.4000854 0.2594604 0.8789673 -0.418396 0.6011963 0.6807861 0.01361084 0.9634399 -0.2675171 0.003967285 0.965271 -0.2611694 0.02874756 0.9616089 -0.2729492 0.006896973 0.9396973 -0.342041 0.05322266 0.9557495 -0.2893677 0.06719971 0.9465942 -0.3153687 0.01361084 0.9100342 -0.4143677 0.02874756 0.9121094 -0.4089966 0.003967285 0.9073486 -0.4204102 -0.02770996 0.9077759 -0.4185791 -0.05841064 0.9056396 -0.4200439 0.7195435 0.01641847 -0.6942749 0.727417 0.1455078 -0.6705933 -0.87323 -0.3189087 0.3684692 -0.4505615 -0.3168945 0.8345947 -0.4524536 -0.3276978 0.8294067 0 -0.3378296 0.9412231 0 -0.3551025 0.9348145 0.4524536 -0.3276978 0.8294067 -0.6670532 0.7418213 -0.06896972 -0.6757202 0.7247925 -0.1343994 -0.5130615 0.6447144 -0.5666504 -0.5723877 0.6465454 -0.5043335 0.1013184 0.2348023 -0.9667358 0.8087158 -0.1819458 -0.5593872 0.8123169 -0.1532593 -0.5626831 0.9490967 -0.272522 -0.1581421 0.9655151 -0.2509155 -0.06988525 -0.05322266 0.9181519 0.3926392 -0.06719971 0.9278564 0.3668823 -0.07226563 0.9372559 0.3411255 0.02770996 0.9644165 0.2628784 0.05841064 0.9637451 0.260376 0.02526855 0.9725952 0.2312622 -0.8800049 -0.3189087 0.3519287 -0.746521 -8.096627E-09 0.6654053 0.02478027 -0.9621582 -0.2713013 0.05230713 -0.9616699 -0.269104 0.02258301 -0.9697266 -0.243103 6.103516E-05 -0.9396973 -0.342041 0.02258301 -0.8991089 -0.4371338 -0.05151367 -0.9188843 -0.3911133 -0.06500244 -0.9282837 -0.3661499 -0.06994629 -0.9373779 -0.3411865 0 -1 -1.216796E-08 0 -0.6594849 0.751709 0.2432251 -0.7290649 0.6397095 0.4353027 -0.7037354 0.5614624 0.4534302 -0.6669922 0.5911865 0.5562744 -0.7203979 0.4142456 0.7346802 -0.6779175 0.02593993 0.6210327 -0.4006958 -0.673584 0.1434937 0.02526857 -0.9893188 0.4992065 0.5700684 -0.6525879 0.5244751 0.5047607 -0.6856689 0.6432495 0.6080933 -0.46521 0.05322266 0.9181519 -0.3926392 0.06719971 0.9278564 -0.3668823 0.07226563 0.9372559 -0.3411255 0.05151367 -0.9188843 0.3911133 0.06500244 -0.9282837 0.3661499 0.06994629 -0.9373779 0.3411865 0.06500244 -0.9464722 0.3162231 0.05151367 -0.9553223 0.2910156 0.02972412 -0.9610596 0.2747803 -0.4741211 -0.6891479 0.5479736 0 -0.5900879 0.807312 0.4741211 -0.6891479 0.5479736 0.8634033 -0.4972534 0.08526611 0.5158081 -0.8566895 -1.042417E-08 0.0006713867 -0.00115968 1 0.0335083 -0.032959 0.9989014 0.02282715 -0.02349855 0.9994507 0.03820801 -0.03698732 0.9985962 0.03259277 -0.04357911 0.9985352 0.5723877 0.6465454 -0.5043335 0.5130615 0.6447144 -0.5666504 -0.1013184 0.2348023 -0.9667358 -0.1330566 0.223877 -0.9655151 -0.8123169 -0.1532593 -0.5626831 -0.5140381 0.8537598 0.08325196 -0.5147095 0.8548584 0.06555177 -0.5158081 0.8566895 1.042417E-08 0.3912354 -0.7311401 -0.5588989 0.6525269 -0.734436 -0.1865845 0.6674805 -0.7227783 -0.1790772 0.02526855 0.8936768 0.447998 0 0.9396973 0.342041 0.6710815 0.25354 -0.6966553 0.5585327 0.2836914 -0.77948 0.4345093 -0.3080444 0.8463135 0.5585327 -0.2836914 0.77948 0.9678345 0.2034302 -0.1480103 0.8717651 0.07965089 -0.4833984 0.9718018 0.168457 -0.1651001 0.8314209 0.02600098 -0.5549927 -6.103516E-05 -0.9396973 0.342041 -0.02258301 -0.9697266 0.243103 -0.05230713 -0.9616699 0.269104 0.6670532 0.7418213 -0.06896972 0.6757202 0.7247925 -0.1343994 0 0.342041 0.9396973 -0.8087158 -0.1819458 -0.5593872 -0.9490967 -0.272522 -0.1581421 -0.2189941 0.414856 0.8831787 -0.02258301 -0.8991089 0.4371338 -0.05841064 0.9637451 -0.260376 -0.02770996 0.9644165 -0.2628784 0 0.9396973 -0.342041 -0.02526855 0.9725952 -0.2312622 0 -0.342041 -0.9396973 -0.5158081 -0.8566895 -1.042417E-08 -0.0006713867 -0.00115968 1 -0.02282715 -0.02349855 0.9994507 -0.0335083 -0.032959 0.9989014 -0.03820801 -0.03698732 0.9985962 0.1330566 0.223877 -0.9655151 0.01519775 -0.9634399 0.2675781 0.0112915 -0.9630737 0.2689209 0.5140381 0.8537598 0.08325196 0.5147095 0.8548584 0.06555177 -0.03259277 -0.04357911 0.9985352 -0.02929688 -0.04864503 0.9984131 0.8566284 -0.5157471 0.01141357 0.3948975 -0.237793 -0.8873901 0.3948975 -0.237793 -0.8874512 -0.3948975 0.237793 -0.8873901 -0.8566284 0.5157471 0.01141358 0.3862305 -0.232544 0.8926392 -0.3862305 0.2325439 0.8926392 -0.02526855 0.8936768 -0.447998 0.7114258 0.5628052 -0.4208374 0.7508545 0.5180054 -0.40979 0.7006226 0.5808105 0.4145508 0.7442017 0.5331421 0.4023438 -0.7508545 0.5180054 -0.40979 -0.7114258 0.5628052 -0.4208374 -0.7567749 -0.6523438 -0.04132081 -0.5792236 -0.6958008 -0.4246826 -0.1882324 0.02508544 0.9818115 -0.6559448 -0.3825073 0.6506958 -0.02478027 -0.9621582 0.2713013 -0.002624512 1 1.216796E-08 -0.005249023 1 -0.00085448 -0.02001953 0.9998169 1.216574E-08 0.3954468 0.01068116 -0.918457 0.9998169 0.00604248 -0.01660156 0.6710815 -0.25354 0.6966553 0 -0.342041 0.9396973 0 0.342041 -0.9396973 0.4345093 0.3080444 -0.8463135 0.9998169 -0.00604248 0.01660156 0.9987183 0.01733398 -0.04760742 0.9987183 -0.01733398 0.04760742 -0.9987183 -0.01733398 -0.04760742 -0.9987183 0.01733398 0.04760742 0.3538818 0.2341308 0.9055176 0.4116821 -1.108886E-08 0.9113159 -0.8505249 0.2372437 -0.4694214 -0.8781738 5.820333E-09 -0.4783325 -0.8276367 0.2373047 -0.508606 0.2910156 0.2315674 0.9282837 -0.0005493164 -1 -1.216796E-08 0.0001831055 -1 0.0004882691 0.001281738 -1 0.0007324097 -0.4116821 -1.108886E-08 0.9113159 -0.3538818 0.2341308 0.9055176 0.8505249 0.2372437 -0.4694214 0.8276367 0.2373047 -0.508606 0.8781738 5.820333E-09 -0.4783325 -0.2910156 0.2315674 0.9282837 -0.0001831055 -1 0.0004882691 0.0005493164 -1 -1.216796E-08 -0.001281738 -1 0.0007324097 0.2312622 -0.5010376 0.8339233 -0.9655151 -0.2509155 -0.06988525 0.02929688 -0.04864503 0.9984131 0.5158081 0.8566895 1.042417E-08</float_array>
					<technique_common>
						<accessor source="#polygon0_NormArr" count="470" stride="3">
							<param name="X" type="float" />
							<param name="Y" type="float" />
							<param name="Z" type="float" />
						</accessor>
					</technique_common>
				</source>
				<source id="polygon0_UVs0">
					<float_array id="polygon0_UVArr0" count="594">0.28125 0.4414063 0.3359375 0.5117188 0.2695313 0.484375 0.2851563 0.6289063 0.2304688 0.59375 0.1328125 0.6679688 0.1679688 0.5585938 0.08984375 0.6132813 0.09375 0.5195313 0.02734375 0.5976563 0.02734375 0.5117188 0.1171875 0.453125 0.1914063 0.4609375 0.28125 0.3085938 0.3359375 0.2578125 0.265625 0.2382813 0.3203125 0.1679688 0.2382813 0.05078125 0.1171875 0.375 0.06640625 0.375 0.109375 0.3359375 0.05859375 0.34375 0.0703125 0.2890625 0.02734375 0.3242188 0.02734375 0.2773438 0.02734375 0.203125 0.1289063 0.21875 0.02734375 0.1328125 0.1132813 0.1054688 0.02734375 0.0234375 0.1132813 0.0234375 0.265625 0.375 0.1992188 0.375 0.1875 0.2929688 0.1992188 0.1328125 0.02734375 0.4453125 0.140625 0.890625 0.140625 0.8632813 0.2539063 0.890625 0.2539063 0.8632813 0.3554688 0.890625 0.3554688 0.8632813 0.4257813 0.890625 0.4257813 0.8632813 0.3554688 0.8359375 0.2539063 0.8359375 0.02734375 0.375 0.02734375 0.8242188 0.02734375 0.7695313 0.0703125 0.8242188 0.0703125 0.7695313 0.15625 0.8242188 0.15625 0.7695313 0.2148438 0.8242188 0.2148438 0.7695313 0.265625 0.7695313 0.140625 0.8359375 0.4257813 0.8359375 0.1679688 0.7382813 0.02734375 0.7578125 0.02734375 0.6796875 0.8357544 0.9804688 0.7633057 0.9804688 0.7633057 0.8671875 0.6903381 0.9804688 0.6903381 0.8671875 0.625 0.9804688 0.625 0.8671875 0.875 0.8359375 0.984375 0.71875 0.9375 0.7109375 0.984375 0.6132813 0.9375 0.6210938 0.8945313 0.5039063 0.8828125 0.5546875 0.8203125 0.484375 0.9179688 0.6679688 0.890625 0.5976563 0.8203125 0.5625 0.8203125 0.5390625 0.3984375 0.7695313 0.3984375 0.8242188 0.3476563 0.7695313 0.3476563 0.8242188 0.265625 0.8242188 0.6260681 0.8125 0.6260681 0.7811584 0.7826233 0.7811584 0.6260681 0.7546082 0.7826233 0.7288513 0.6260681 0.7288513 0.6260681 0.7001038 0.5976563 0.7070313 0.5976563 0.671875 0.5546875 0.7070313 0.5546875 0.671875 0.5195313 0.7070313 0.5195313 0.671875 0.4882813 0.671875 0.390625 0.6484375 0.421875 0.6484375 0.421875 0.484375 0.4570313 0.6484375 0.4882813 0.484375 0.4882813 0.6484375 0.5195313 0.6484375 0.578125 0.6484375 0.546875 0.6484375 0.546875 0.484375 0.4140625 0.9492188 0.4765625 0.9492188 0.4765625 0.984375 0.53125 0.9492188 0.5859375 0.984375 0.5859375 0.9492188 0.2578125 0.984375 0.2539063 0.9492188 0.2578125 0.9101563 0.1875 0.9492188 0.1289063 0.9101563 0.1289063 0.9492188 0.07421875 0.9492188 0.8203125 0.7695313 0.8671875 0.7851563 0.890625 0.734375 0.6260681 0.6420593 0.6260681 0.6679688 0.7826233 0.66745 0.8203125 0.7929688 0.1367188 0.8359375 0.1328125 0.8632813 0.02734375 0.8359375 0.02734375 0.8632813 0.02734375 0.890625 0.1289063 0.890625 0.75 0.05859375 0.8242188 0.0703125 0.7460938 0.1679688 0.7460938 0.2304688 0.7382813 0.1679688 0.71875 0.1835938 0.4179688 0.140625 0.4335938 0.1289063 0.4414063 0.1875 0.4414063 0.1289063 0.5234375 0.03125 0.4492188 0.01953125 0.6260681 0.6118774 0.7826233 0.61203 0.9101563 0.8671875 0.8357544 0.8671875 0.3710938 0.6835938 0.3945313 0.6953125 0.3476563 0.6953125 0.3945313 0.7421875 0.3476563 0.7421875 0.3710938 0.7539063 0.4765625 0.9101563 0.5859375 0.9101563 0.1289063 0.984375 0.96875 0.9804688 0.9101563 0.9804688 0.9335938 0.828125 0.9335938 0.8515625 0.9570313 0.828125 0.9570313 0.8515625 0.984375 0.828125 0.984375 0.8515625 0.96875 0.8671875 0.9257813 0.796875 0.9257813 0.8203125 0.9492188 0.796875 0.9492188 0.8203125 0.9765625 0.796875 0.9765625 0.8203125 0.6054688 0.6484375 0.6054688 0.484375 0.7539063 0.3984375 0.75 0.2929688 0.828125 0.3867188 0.8867188 0.3476563 0.9296875 0.2890625 0.5703125 0.4179688 0.5703125 0.390625 0.515625 0.4257813 0.515625 0.3828125 0.4570313 0.4179688 0.4570313 0.390625 0.02734375 0.9492188 0.02734375 0.984375 0.4492188 0.3671875 0.5234375 0.34375 0.4414063 0.2460938 0.4335938 0.2460938 0.4179688 0.234375 0.4453125 0.7070313 0.4453125 0.671875 0.4882813 0.7070313 0.6260681 0.8442993 0.7826233 0.84375 0.5820313 0.3085938 0.6289063 0.2460938 0.34375 0.984375 0.3476563 0.9492188 0.34375 0.9101563 0.3945313 0.109375 0.3945313 0.0703125 0.3710938 0.140625 0.3710938 0.03125 0.3320313 0.1523438 0.3320313 0.01953125 0.3554688 0.6484375 0.3554688 0.484375 0.8867188 0.109375 0.9296875 0.1679688 0.7382813 0.2929688 0.7226563 0.2734375 0.8203125 0.8476563 0.5976563 0.890625 0.5429688 0.890625 0.4960938 0.890625 0.4453125 0.890625 0.9414063 0.2265625 0.703125 0.265625 0.3984375 0.2265625 0.3984375 0.1875 0.3984375 0.1484375 0.5820313 0.0703125 0.6289063 0.1328125 0.6367188 0.1914063 0.7265625 0.0703125 0.7265625 0.109375 0.6992188 0.02734375 0.6992188 0.1484375 0.6523438 0.1640625 0.02734375 0.9101563 0.40625 0.71875 0.578125 0.4453125 0.3867188 0.4453125 0.7421875 0.5351563 0.7734375 0.5546875 0.7148438 0.5546875 0.78125 0.59375 0.703125 0.59375 0.6054688 0.3359375 0.7265625 0.3359375 0.59375 0.3710938 0.7382813 0.3710938 0.6835938 0.5625 0.5195313 0.890625 0.359375 0.2890625 0.40625 0.2890625 0.3671875 0.3710938 0.3984375 0.3710938 0.3828125 0.3828125 0.625 0.015625 0.625 0.07421875 0.6054688 0.015625 0.6054688 0.07421875 0.703125 0.1914063 0.703125 0.2304688 0.984375 0.796875 0.984375 0.8203125 0.9257813 0.828125 0.9257813 0.8515625 0.4570313 0.4453125 0.6484375 0.5625 0.3359375 0.71875 0.5195313 0.4453125 0.6523438 0.015625 0.765625 0.5195313 0.71875 0.5195313 0.7421875 0.4453125 0.3085938 0.01953125 0.3085938 0.0390625 0.2070313 0.03125 0.890625 0.01953125 0.9804688 0.02734375 0.890625 0.03515625 0.9804688 0.5429688 0.9257813 0.515625 0.9804688 0.4882813 0.8789063 0.4453125 0.9648438 0.421875 0.9648438 0.4453125 0.8789063 0.421875 0.9648438 0.4570313 0.9765625 0.46875 0.9648438 0.4804688 0.8789063 0.4804688 0.8789063 0.4570313 0.9765625 0.4335938 0.3203125 0.7539063 0.2578125 0.7539063 0.2382813 0.6914063 0.28125 0.6914063 0.3085938 0.71875</float_array>
					<technique_common>
						<accessor source="#polygon0_UVArr0" count="297" stride="2">
							<param name="S" type="float" />
							<param name="T" type="float" />
						</accessor>
					</technique_common>
				</source>
				<source id="polygon0_UVs1">
					<float_array id="polygon0_UVArr1" count="594">0.28125 0.4414063 0.3359375 0.5117188 0.2695313 0.484375 0.2851563 0.6289063 0.2304688 0.59375 0.1328125 0.6679688 0.1679688 0.5585938 0.08984375 0.6132813 0.09375 0.5195313 0.02734375 0.5976563 0.02734375 0.5117188 0.1171875 0.453125 0.1914063 0.4609375 0.28125 0.3085938 0.3359375 0.2578125 0.265625 0.2382813 0.3203125 0.1679688 0.2382813 0.05078125 0.1171875 0.375 0.06640625 0.375 0.109375 0.3359375 0.05859375 0.34375 0.0703125 0.2890625 0.02734375 0.3242188 0.02734375 0.2773438 0.02734375 0.203125 0.1289063 0.21875 0.02734375 0.1328125 0.1132813 0.1054688 0.02734375 0.0234375 0.1132813 0.0234375 0.265625 0.375 0.1992188 0.375 0.1875 0.2929688 0.1992188 0.1328125 0.02734375 0.4453125 0.140625 0.890625 0.140625 0.8632813 0.2539063 0.890625 0.2539063 0.8632813 0.3554688 0.890625 0.3554688 0.8632813 0.4257813 0.890625 0.4257813 0.8632813 0.3554688 0.8359375 0.2539063 0.8359375 0.02734375 0.375 0.02734375 0.8242188 0.02734375 0.7695313 0.0703125 0.8242188 0.0703125 0.7695313 0.15625 0.8242188 0.15625 0.7695313 0.2148438 0.8242188 0.2148438 0.7695313 0.265625 0.7695313 0.140625 0.8359375 0.4257813 0.8359375 0.1679688 0.7382813 0.02734375 0.7578125 0.02734375 0.6796875 0.8357544 0.9804688 0.7633057 0.9804688 0.7633057 0.8671875 0.6903381 0.9804688 0.6903381 0.8671875 0.625 0.9804688 0.625 0.8671875 0.875 0.8359375 0.984375 0.71875 0.9375 0.7109375 0.984375 0.6132813 0.9375 0.6210938 0.8945313 0.5039063 0.8828125 0.5546875 0.8203125 0.484375 0.9179688 0.6679688 0.890625 0.5976563 0.8203125 0.5625 0.8203125 0.5390625 0.3984375 0.7695313 0.3984375 0.8242188 0.3476563 0.7695313 0.3476563 0.8242188 0.265625 0.8242188 0.6260681 0.8125 0.6260681 0.7811584 0.7826233 0.7811584 0.6260681 0.7546082 0.7826233 0.7288513 0.6260681 0.7288513 0.6260681 0.7001038 0.5976563 0.7070313 0.5976563 0.671875 0.5546875 0.7070313 0.5546875 0.671875 0.5195313 0.7070313 0.5195313 0.671875 0.4882813 0.671875 0.390625 0.6484375 0.421875 0.6484375 0.421875 0.484375 0.4570313 0.6484375 0.4882813 0.484375 0.4882813 0.6484375 0.5195313 0.6484375 0.578125 0.6484375 0.546875 0.6484375 0.546875 0.484375 0.4140625 0.9492188 0.4765625 0.9492188 0.4765625 0.984375 0.53125 0.9492188 0.5859375 0.984375 0.5859375 0.9492188 0.2578125 0.984375 0.2539063 0.9492188 0.2578125 0.9101563 0.1875 0.9492188 0.1289063 0.9101563 0.1289063 0.9492188 0.07421875 0.9492188 0.8203125 0.7695313 0.8671875 0.7851563 0.890625 0.734375 0.6260681 0.6420593 0.6260681 0.6679688 0.7826233 0.66745 0.8203125 0.7929688 0.1367188 0.8359375 0.1328125 0.8632813 0.02734375 0.8359375 0.02734375 0.8632813 0.02734375 0.890625 0.1289063 0.890625 0.75 0.05859375 0.8242188 0.0703125 0.7460938 0.1679688 0.7460938 0.2304688 0.7382813 0.1679688 0.71875 0.1835938 0.4179688 0.140625 0.4335938 0.1289063 0.4414063 0.1875 0.4414063 0.1289063 0.5234375 0.03125 0.4492188 0.01953125 0.6260681 0.6118774 0.7826233 0.61203 0.9101563 0.8671875 0.8357544 0.8671875 0.3710938 0.6835938 0.3945313 0.6953125 0.3476563 0.6953125 0.3945313 0.7421875 0.3476563 0.7421875 0.3710938 0.7539063 0.4765625 0.9101563 0.5859375 0.9101563 0.1289063 0.984375 0.96875 0.9804688 0.9101563 0.9804688 0.9335938 0.828125 0.9335938 0.8515625 0.9570313 0.828125 0.9570313 0.8515625 0.984375 0.828125 0.984375 0.8515625 0.96875 0.8671875 0.9257813 0.796875 0.9257813 0.8203125 0.9492188 0.796875 0.9492188 0.8203125 0.9765625 0.796875 0.9765625 0.8203125 0.6054688 0.6484375 0.6054688 0.484375 0.7539063 0.3984375 0.75 0.2929688 0.828125 0.3867188 0.8867188 0.3476563 0.9296875 0.2890625 0.5703125 0.4179688 0.5703125 0.390625 0.515625 0.4257813 0.515625 0.3828125 0.4570313 0.4179688 0.4570313 0.390625 0.02734375 0.9492188 0.02734375 0.984375 0.4492188 0.3671875 0.5234375 0.34375 0.4414063 0.2460938 0.4335938 0.2460938 0.4179688 0.234375 0.4453125 0.7070313 0.4453125 0.671875 0.4882813 0.7070313 0.6260681 0.8442993 0.7826233 0.84375 0.5820313 0.3085938 0.6289063 0.2460938 0.34375 0.984375 0.3476563 0.9492188 0.34375 0.9101563 0.3945313 0.109375 0.3945313 0.0703125 0.3710938 0.140625 0.3710938 0.03125 0.3320313 0.1523438 0.3320313 0.01953125 0.3554688 0.6484375 0.3554688 0.484375 0.8867188 0.109375 0.9296875 0.1679688 0.7382813 0.2929688 0.7226563 0.2734375 0.8203125 0.8476563 0.5976563 0.890625 0.5429688 0.890625 0.4960938 0.890625 0.4453125 0.890625 0.9414063 0.2265625 0.703125 0.265625 0.3984375 0.2265625 0.3984375 0.1875 0.3984375 0.1484375 0.5820313 0.0703125 0.6289063 0.1328125 0.6367188 0.1914063 0.7265625 0.0703125 0.7265625 0.109375 0.6992188 0.02734375 0.6992188 0.1484375 0.6523438 0.1640625 0.02734375 0.9101563 0.40625 0.71875 0.578125 0.4453125 0.3867188 0.4453125 0.7421875 0.5351563 0.7734375 0.5546875 0.7148438 0.5546875 0.78125 0.59375 0.703125 0.59375 0.6054688 0.3359375 0.7265625 0.3359375 0.59375 0.3710938 0.7382813 0.3710938 0.6835938 0.5625 0.5195313 0.890625 0.359375 0.2890625 0.40625 0.2890625 0.3671875 0.3710938 0.3984375 0.3710938 0.3828125 0.3828125 0.625 0.015625 0.625 0.07421875 0.6054688 0.015625 0.6054688 0.07421875 0.703125 0.1914063 0.703125 0.2304688 0.984375 0.796875 0.984375 0.8203125 0.9257813 0.828125 0.9257813 0.8515625 0.4570313 0.4453125 0.6484375 0.5625 0.3359375 0.71875 0.5195313 0.4453125 0.6523438 0.015625 0.765625 0.5195313 0.71875 0.5195313 0.7421875 0.4453125 0.3085938 0.01953125 0.3085938 0.0390625 0.2070313 0.03125 0.890625 0.01953125 0.9804688 0.02734375 0.890625 0.03515625 0.9804688 0.5429688 0.9257813 0.515625 0.9804688 0.4882813 0.8789063 0.4453125 0.9648438 0.421875 0.9648438 0.4453125 0.8789063 0.421875 0.9648438 0.4570313 0.9765625 0.46875 0.9648438 0.4804688 0.8789063 0.4804688 0.8789063 0.4570313 0.9765625 0.4335938 0.3203125 0.7539063 0.2578125 0.7539063 0.2382813 0.6914063 0.28125 0.6914063 0.3085938 0.71875</float_array>
					<technique_common>
						<accessor source="#polygon0_UVArr1" count="297" stride="2">
							<param name="S" type="float" />
							<param name="T" type="float" />
						</accessor>
					</technique_common>
				</source>
				<vertices id="polygon0_Vertices">
					<input semantic="POSITION" source="#polygon0_Positions" />
				</vertices>
				<triangles material="body__enMetal__" count="560">
					<input semantic="VERTEX" source="#polygon0_Vertices" offset="0" />
					<input semantic="NORMAL" source="#polygon0_Normals" offset="1" />
					<input semantic="TEXCOORD" source="#polygon0_UVs0" set="0" offset="2" />
					<input semantic="TEXCOORD" source="#polygon0_UVs1" set="1" offset="3" />
					<p>2 2 2 2 1 1 1 1 0 0 0 0 3 3 3 3 1 1 1 1 2 2 2 2 4 4 4 4 3 3 3 3 2 2 2 2 5 5 5 5 3 3 3 3 4 4 4 4 6 6 6 6 5 5 5 5 4 4 4 4 7 7 7 7 5 5 5 5 6 6 6 6 8 8 8 8 7 7 7 7 6 6 6 6 9 9 9 9 7 7 7 7 8 8 8 8 10 10 10 10 9 9 9 9 8 8 8 8 11 11 8 8 9 9 9 9 10 10 10 10 12 12 11 11 11 11 8 8 10 10 10 10 13 13 6 6 11 11 8 8 12 12 11 11 14 14 12 12 13 13 6 6 12 12 11 11 15 15 2 2 13 13 6 6 14 14 12 12 16 16 0 0 15 15 2 2 14 14 12 12 17 17 1 1 15 15 2 2 16 16 0 0 18 18 13 13 17 17 1 1 16 16 0 0 19 19 14 14 17 17 1 1 18 18 13 13 20 20 15 15 19 19 14 14 18 18 13 13 21 21 16 16 19 19 14 14 20 20 15 15 22 22 17 17 21 21 16 16 20 20 15 15 25 25 20 20 24 24 19 19 23 23 18 18 26 26 21 21 24 24 19 19 25 25 20 20 27 27 22 22 26 26 21 21 25 25 20 20 28 28 23 23 26 26 21 21 27 27 22 22 29 29 24 24 28 28 23 23 27 27 22 22 30 30 22 22 28 28 23 23 29 29 24 24 31 31 25 25 30 30 22 22 29 29 24 24 32 32 26 26 30 30 22 22 31 31 25 25 33 33 27 27 32 32 26 26 31 31 25 25 34 34 28 28 32 32 26 26 33 33 27 27 35 35 29 29 34 34 28 28 33 33 27 27 36 36 30 30 34 34 28 28 35 35 29 29 38 38 13 13 1 1 1 1 37 37 14 14 0 0 0 0 1 1 1 1 38 38 13 13 39 39 31 31 0 0 0 0 38 38 13 13 40 40 32 32 0 0 0 0 39 39 31 31 38 38 13 13 40 40 32 32 39 39 31 31 41 41 33 33 40 40 32 32 38 38 13 13 42 42 15 15 41 41 33 33 38 38 13 13 43 43 34 34 41 41 33 33 42 42 15 15 44 44 17 17 43 43 34 34 42 42 15 15 45 45 28 28 43 43 34 34 44 44 17 17 46 46 30 30 45 45 28 28 44 44 17 17 35 35 29 29 45 45 28 28 46 46 30 30 47 47 11 11 8 8 8 8 6 6 6 6 10 10 10 10 8 8 8 8 47 47 11 11 48 48 35 35 10 10 10 10 47 47 11 11 12 12 11 11 10 10 10 10 48 48 35 35 49 49 19 19 12 12 11 11 48 48 35 35 50 50 18 18 12 12 11 11 49 49 19 19 51 51 20 20 50 50 18 18 49 49 19 19 52 52 32 32 50 50 18 18 51 51 20 20 53 53 33 33 52 52 32 32 51 51 20 20 18 18 13 13 52 52 32 32 53 53 33 33 20 20 15 15 18 18 13 13 53 53 33 33 56 56 38 38 55 55 37 37 54 54 36 36 57 57 39 39 55 55 37 37 56 56 38 38 58 58 40 40 57 57 39 39 56 56 38 38 59 59 41 41 57 57 39 39 58 58 40 40 60 60 42 42 59 59 41 41 58 58 40 40 61 61 43 43 59 59 41 41 60 60 42 42 62 62 41 41 61 61 43 43 60 60 42 42 63 63 44 44 61 61 43 43 62 62 41 41 64 64 45 45 63 63 44 44 62 62 41 41 24 24 19 19 47 47 11 11 23 23 18 18 48 48 35 35 47 47 11 11 24 24 19 19 65 65 46 46 48 48 35 35 24 24 19 19 49 49 19 19 48 48 35 35 65 65 46 46 66 66 21 21 49 49 19 19 65 65 46 46 51 51 20 20 49 49 19 19 66 66 21 21 30 30 22 22 51 51 20 20 66 66 21 21 32 32 26 26 51 51 20 20 30 30 22 22 67 67 12 12 47 47 11 11 6 6 6 6 23 23 18 18 47 47 11 11 67 67 12 12 40 40 32 32 23 23 18 18 67 67 12 12 25 25 20 20 23 23 18 18 40 40 32 32 41 41 33 33 25 25 20 20 40 40 32 32 68 68 26 26 25 25 20 20 41 41 33 33 43 43 34 34 68 68 26 26 41 41 33 33 45 45 28 28 68 68 26 26 43 43 34 34 71 70 49 49 70 69 48 48 69 69 47 47 72 71 50 50 70 69 48 48 71 70 49 49 73 72 51 51 72 71 50 50 71 70 49 49 74 72 52 52 72 71 50 50 73 72 51 51 75 73 53 53 74 72 52 52 73 72 51 51 76 73 54 54 74 72 52 52 75 73 53 53 77 74 55 55 76 73 54 54 75 73 53 53 57 57 39 39 78 75 56 56 55 55 37 37 79 76 45 45 78 75 56 56 57 57 39 39 59 59 41 41 79 76 45 45 57 57 39 39 80 77 44 44 79 76 45 45 59 59 41 41 61 61 43 43 80 77 44 44 59 59 41 41 81 78 57 57 80 77 44 44 61 61 43 43 63 63 44 44 81 78 57 57 61 61 43 43 5 5 5 5 82 79 58 58 3 3 3 3 83 80 59 59 82 79 58 58 5 5 5 5 84 81 60 60 83 80 59 59 5 5 5 5 85 82 5 5 83 80 59 59 84 81 60 60 86 83 7 7 85 82 5 5 84 81 60 60 13 13 6 6 85 82 5 5 86 83 7 7 11 11 8 8 13 13 6 6 86 83 7 7 54 86 63 63 88 85 62 62 87 84 61 61 89 87 64 64 88 85 62 62 54 86 63 63 90 88 65 65 89 87 64 64 54 86 63 63 91 89 66 66 89 87 64 64 90 88 65 65 92 90 67 67 91 89 66 66 90 88 65 65 93 91 65 65 91 89 66 66 92 90 67 67 96 94 70 70 95 93 69 69 94 92 68 68 97 95 71 71 95 93 69 69 96 94 70 70 98 96 72 72 97 95 71 71 96 94 70 70 99 97 73 73 97 95 71 71 98 96 72 72 100 98 74 74 99 97 73 73 98 96 72 72 101 99 75 75 99 97 73 73 100 98 74 74 104 102 72 72 103 101 76 76 102 100 70 70 105 103 77 77 103 101 76 76 104 102 72 72 106 104 74 74 105 103 77 77 104 102 72 72 107 105 78 78 105 103 77 77 106 104 74 74 108 106 79 79 107 105 78 78 106 104 74 74 100 107 74 74 107 105 78 78 108 106 79 79 32 32 26 26 53 53 33 33 51 51 20 20 109 108 34 34 53 53 33 33 32 32 26 26 34 34 28 28 109 108 34 34 32 32 26 26 22 22 17 17 109 108 34 34 34 34 28 28 36 36 30 30 22 22 17 17 34 34 28 28 110 109 82 82 69 69 81 81 70 69 80 80 111 109 83 83 69 69 81 81 110 109 82 82 77 74 55 55 111 109 83 83 110 109 82 82 112 74 84 84 111 109 83 83 77 74 55 55 75 73 53 53 112 74 84 84 77 74 55 55 115 112 87 87 114 111 86 86 113 110 85 85 116 113 88 88 114 111 86 86 115 112 87 87 117 114 89 89 116 113 88 88 115 112 87 87 118 115 90 90 116 113 88 88 117 114 89 89 119 116 91 91 118 115 90 90 117 114 89 89 120 117 40 40 62 62 41 41 60 60 42 42 121 118 39 39 62 62 41 41 120 117 40 40 122 119 38 38 121 118 39 39 120 117 40 40 123 120 37 37 121 118 39 39 122 119 38 38 124 121 36 36 123 120 37 37 122 119 38 38 127 124 94 94 126 123 93 93 125 122 92 92 128 125 95 95 126 123 93 93 127 124 94 94 129 126 96 96 128 125 95 95 127 124 94 94 130 127 97 97 128 125 95 95 129 126 96 96 131 128 98 98 130 127 97 97 129 126 96 96 134 131 101 101 133 130 100 100 132 129 99 99 135 132 102 102 133 130 100 100 134 131 101 101 136 133 103 103 135 132 102 102 134 131 101 101 137 134 104 104 135 132 102 102 136 133 103 103 138 135 105 105 137 134 104 104 136 133 103 103 141 138 108 108 140 137 107 107 139 136 106 106 142 139 105 105 140 137 107 107 141 138 108 108 143 140 103 103 142 139 105 105 141 138 108 108 144 141 104 104 142 139 105 105 143 140 103 103 145 142 102 102 144 141 104 104 143 140 103 103 148 145 111 111 147 144 110 110 146 143 109 109 149 146 112 112 147 144 110 110 148 145 111 111 150 147 113 113 149 146 112 112 148 145 111 111 151 148 114 114 149 146 112 112 150 147 113 113 152 149 112 112 151 148 114 114 150 147 113 113 155 152 117 117 154 151 116 116 153 150 115 115 156 153 118 118 154 151 116 116 155 152 117 117 157 154 119 119 156 153 118 118 155 152 117 117 158 155 120 120 156 153 118 118 157 154 119 119 159 156 121 121 158 155 120 120 157 154 119 119 161 159 73 73 104 158 72 72 160 157 71 71 106 160 74 74 104 158 72 72 161 159 73 73 101 99 75 75 106 160 74 74 161 159 73 73 108 161 79 79 106 160 74 74 101 99 75 75 100 98 74 74 108 161 79 79 101 99 75 75 164 164 124 124 163 163 123 123 162 162 122 122 96 165 70 70 163 163 123 123 164 164 124 124 165 166 76 76 96 165 70 70 164 164 124 124 98 167 72 72 96 165 70 70 165 166 76 76 166 168 77 77 98 167 72 72 165 166 76 76 169 171 127 127 168 170 126 126 167 169 125 125 170 172 91 91 168 170 126 126 169 171 127 127 171 173 89 89 170 172 91 91 169 171 127 127 172 174 90 90 170 172 91 91 171 173 89 89 173 175 88 88 172 174 90 90 171 173 89 89 174 176 124 124 102 100 70 70 103 101 76 76 175 177 123 123 102 100 70 70 174 176 124 124 162 162 122 122 175 177 123 123 174 176 124 124 176 178 128 128 175 177 123 123 162 162 122 122 163 163 123 123 176 178 128 128 162 162 122 122 179 181 131 131 178 180 130 130 177 179 129 129 180 182 132 132 178 180 130 130 179 181 131 131 181 183 130 130 180 182 132 132 179 181 131 131 92 184 133 133 180 182 132 132 181 183 130 130 93 185 134 134 92 184 133 133 181 183 130 130 184 188 137 137 183 187 136 136 182 186 135 135 185 189 138 138 183 187 136 136 184 188 137 137 186 190 139 139 185 189 138 138 184 188 137 137 187 191 140 140 185 189 138 138 186 190 139 139 190 194 143 143 189 193 142 142 188 192 141 141 191 195 144 144 189 193 142 142 190 194 143 143 192 196 145 145 191 195 144 144 190 194 143 143 193 197 146 146 191 195 144 144 192 196 145 145 196 200 125 125 195 199 148 148 194 198 147 147 197 201 127 127 195 199 148 148 196 200 125 125 198 202 126 126 197 201 127 127 196 200 125 125 119 116 91 91 197 201 127 127 198 202 126 126 199 205 61 61 122 204 150 150 120 203 149 149 124 206 63 63 122 204 150 150 199 205 61 61 200 207 62 62 124 206 63 63 199 205 61 61 201 208 64 64 124 206 63 63 200 207 62 62 194 209 153 153 198 209 152 152 196 209 151 151 118 209 154 154 198 209 152 152 194 209 153 153 114 209 155 155 118 209 154 154 194 209 153 153 116 209 156 156 118 209 154 154 114 209 155 155 149 212 112 112 202 211 157 157 147 210 110 110 203 213 158 158 202 211 157 157 149 212 112 112 151 214 114 114 203 213 158 158 149 212 112 112 152 215 112 112 203 213 158 158 151 214 114 114 156 218 118 118 153 217 115 115 154 216 116 116 204 219 159 159 153 217 115 115 156 218 118 118 158 220 120 120 204 219 159 159 156 218 118 118 159 221 121 121 204 219 159 159 158 220 120 120 58 224 149 149 206 223 161 161 205 222 160 160 87 84 61 61 206 223 161 161 58 224 149 149 56 225 150 150 87 84 61 61 58 224 149 149 54 86 63 63 87 84 61 61 56 225 150 150 209 227 164 164 208 226 163 163 207 226 162 162 210 227 165 165 208 226 163 163 209 227 164 164 211 228 166 166 210 227 165 165 209 227 164 164 212 228 167 167 210 227 165 165 211 228 166 166 205 222 160 160 60 229 168 168 58 224 149 149 120 203 149 149 60 229 168 168 205 222 160 160 213 230 161 161 120 203 149 149 205 222 160 160 199 205 61 61 120 203 149 149 213 230 161 161 216 232 171 171 215 231 170 170 214 231 169 169 217 232 172 172 215 231 170 170 216 232 171 171 218 233 173 173 217 232 172 172 216 232 171 171 219 233 174 174 217 232 172 172 218 233 173 173 222 236 106 106 221 235 176 176 220 234 175 175 223 237 108 108 221 235 176 176 222 236 106 106 224 238 107 107 223 237 108 108 222 236 106 106 138 135 105 105 223 237 108 108 224 238 107 107 192 241 179 179 225 240 178 178 193 239 177 177 185 189 138 138 225 240 178 178 192 241 179 179 226 242 180 180 185 189 138 138 192 241 179 179 227 243 181 181 185 189 138 138 226 242 180 180 228 245 184 184 214 244 183 183 215 244 182 182 229 245 185 185 214 244 183 183 228 245 184 184 212 246 186 186 229 245 185 185 228 245 184 184 211 246 187 187 229 245 185 185 212 246 186 186 232 249 121 121 231 248 189 189 230 247 188 188 233 250 159 159 231 248 189 189 232 249 121 121 234 251 120 120 233 250 159 159 232 249 121 121 235 252 118 118 233 250 159 159 234 251 120 120 238 255 192 192 237 254 191 191 236 253 190 190 239 256 143 143 237 254 191 191 238 255 192 192 218 257 193 193 239 256 143 143 238 255 192 192 216 258 194 194 239 256 143 143 218 257 193 193 242 261 197 197 241 260 196 196 240 259 195 195 243 262 98 98 241 260 196 196 242 261 197 197 244 263 96 96 243 262 98 98 242 261 197 197 245 264 97 97 243 262 98 98 244 263 96 96 248 267 85 85 247 266 199 199 246 265 198 198 249 268 87 87 247 266 199 199 248 267 85 85 250 269 86 86 249 268 87 87 248 267 85 85 173 175 88 88 249 268 87 87 250 269 86 86 183 272 191 191 251 271 192 192 182 270 190 190 190 194 143 143 251 271 192 192 183 272 191 191 252 273 200 200 190 194 143 143 183 272 191 191 253 274 201 201 190 194 143 143 252 273 200 200 256 277 204 204 255 276 203 203 254 275 202 202 257 278 109 109 255 276 203 203 256 277 204 204 258 279 157 157 257 278 109 109 256 277 204 204 259 280 110 110 257 278 109 109 258 279 157 157 261 282 207 207 260 281 206 206 254 281 205 205 233 283 208 208 260 281 206 206 261 282 207 207 150 284 209 209 233 283 208 208 261 282 207 207 231 285 210 210 233 283 208 208 150 284 209 209 52 52 32 32 16 16 0 0 14 14 12 12 262 286 31 31 16 16 0 0 52 52 32 32 18 18 13 13 262 286 31 31 52 52 32 32 16 16 0 0 262 286 31 31 18 18 13 13 265 289 99 99 264 288 212 212 263 287 211 211 266 290 101 101 264 288 212 212 265 289 99 99 267 291 100 100 266 290 101 101 265 289 99 99 145 142 102 102 266 290 101 101 267 291 100 100 237 294 136 136 268 293 137 137 236 292 135 135 269 295 138 138 268 293 137 137 237 294 136 136 270 296 213 213 269 295 138 138 237 294 136 136 271 297 214 214 269 295 138 138 270 296 213 213 274 300 178 178 273 299 179 179 272 298 177 177 269 295 138 138 273 299 179 179 274 300 178 178 208 301 215 215 269 295 138 138 274 300 178 178 210 302 216 216 269 295 138 138 208 301 215 215 275 303 3 3 15 15 2 2 17 17 1 1 276 304 4 4 15 15 2 2 275 303 3 3 85 82 5 5 276 304 4 4 275 303 3 3 13 13 6 6 276 304 4 4 85 82 5 5 2 2 2 2 6 6 6 6 4 4 4 4 67 67 12 12 6 6 6 6 2 2 2 2 0 0 0 0 67 67 12 12 2 2 2 2 40 40 32 32 67 67 12 12 0 0 0 0 175 307 123 123 277 306 68 68 102 305 70 70 278 308 217 217 277 306 68 68 175 307 123 123 176 309 128 128 278 308 217 217 175 307 123 123 163 310 123 123 278 308 217 217 176 309 128 128 280 313 219 219 125 312 92 92 279 311 218 218 127 314 94 94 125 312 92 92 280 313 219 219 129 315 96 96 127 314 94 94 280 313 219 219 282 317 220 220 281 316 197 197 129 315 96 96 283 318 195 195 281 316 197 197 282 317 220 220 284 319 221 221 283 318 195 195 282 317 220 220 185 189 138 138 252 320 213 213 183 187 136 136 253 321 214 214 252 320 213 213 185 189 138 138 285 322 222 222 253 321 214 214 185 189 138 138 185 189 138 138 286 323 215 215 225 240 178 178 287 324 216 216 286 323 215 215 185 189 138 138 288 325 223 223 287 324 216 216 185 189 138 138 102 305 70 70 160 157 71 71 104 158 72 72 289 326 69 69 160 157 71 71 102 305 70 70 277 306 68 68 289 326 69 69 102 305 70 70 42 42 15 15 290 327 16 16 44 44 17 17 37 37 14 14 290 327 16 16 42 42 15 15 38 38 13 13 37 37 14 14 42 42 15 15 68 68 26 26 27 27 22 22 25 25 20 20 31 31 25 25 27 27 22 22 68 68 26 26 33 33 27 27 31 31 25 25 68 68 26 26 190 194 143 143 291 328 193 193 251 271 192 192 292 329 194 194 291 328 193 193 190 194 143 143 293 330 224 224 292 329 194 194 190 194 143 143 190 194 143 143 294 331 225 225 293 330 224 224 295 332 226 226 294 331 225 225 190 194 143 143 188 192 141 141 295 332 226 226 190 194 143 143 190 194 143 143 226 333 227 227 192 196 145 145 227 334 228 228 226 333 227 227 190 194 143 143 285 335 229 229 227 334 228 228 190 194 143 143 202 336 232 232 155 336 231 231 296 336 230 230 157 336 233 233 155 336 231 231 202 336 232 232 297 336 234 234 157 336 233 233 202 336 232 232 298 339 119 119 232 338 121 121 297 337 235 235 234 340 120 120 232 338 121 121 298 339 119 119 235 341 118 118 234 340 120 120 298 339 119 119 299 342 117 117 235 341 118 118 298 339 119 119 300 343 116 116 235 341 118 118 299 342 117 117 260 344 115 115 300 343 116 116 299 342 117 117 261 345 111 111 152 149 112 112 150 147 113 113 259 346 110 110 152 149 112 112 261 345 111 111 257 347 109 109 259 346 110 110 261 345 111 111 168 245 152 152 246 245 153 153 167 245 151 151 172 245 154 154 246 245 153 153 168 245 152 152 170 245 236 236 172 245 154 154 168 245 152 152 269 295 138 138 301 348 180 180 273 299 179 179 302 349 181 181 301 348 180 180 269 295 138 138 303 350 222 222 302 349 181 181 269 295 138 138 239 256 143 143 270 351 200 200 237 254 191 191 271 352 201 201 270 351 200 200 239 256 143 143 303 353 229 229 271 352 201 201 239 256 143 143 239 256 143 143 302 354 228 228 303 353 229 229 301 355 227 227 302 354 228 228 239 256 143 143 273 356 145 145 301 355 227 227 239 256 143 143 264 288 176 176 139 136 106 106 263 287 175 175 141 138 108 108 139 136 106 106 264 288 176 176 304 357 237 237 141 138 108 108 264 288 176 176 297 337 235 235 159 156 121 121 157 154 119 119 230 358 188 188 159 156 121 121 297 337 235 235 232 338 121 121 230 358 188 188 297 337 235 235 221 235 212 212 132 129 99 99 220 234 211 211 134 131 101 101 132 129 99 99 221 235 212 212 305 359 238 238 134 131 101 101 221 235 212 212 121 118 39 39 64 64 45 45 62 62 41 41 306 360 56 56 64 64 45 45 121 118 39 39 123 120 37 37 306 360 56 56 121 118 39 39 307 361 241 241 243 361 240 240 245 361 239 239 241 361 242 242 243 361 240 240 307 361 241 241 308 361 243 243 241 361 242 242 307 361 241 241 309 364 246 246 241 363 245 245 308 362 244 244 240 365 247 247 241 363 245 245 309 364 246 246 310 366 248 248 240 365 247 247 309 364 246 246 244 369 96 96 312 368 219 219 311 367 94 94 313 370 249 249 312 368 219 219 244 369 96 96 314 371 220 220 313 370 249 249 244 369 96 96 312 373 252 252 310 372 251 251 315 372 250 250 314 373 253 253 310 372 251 251 312 373 252 252 313 374 254 254 314 373 253 253 312 373 252 252 281 375 197 197 131 128 98 98 129 126 96 96 316 376 196 196 131 128 98 98 281 375 197 197 283 377 195 195 316 376 196 196 281 375 197 197 195 199 199 199 113 110 85 85 194 198 198 198 115 112 87 87 113 110 85 85 195 199 199 199 115 112 257 257 197 201 256 256 117 114 255 255 195 199 258 258 197 201 256 256 115 112 257 257 317 378 259 259 185 189 138 138 187 191 140 140 318 379 260 260 185 189 138 138 317 378 259 259 286 380 163 163 188 381 164 164 189 380 162 162 287 381 165 165 188 381 164 164 286 380 163 163 317 382 170 170 292 383 171 171 293 382 169 169 187 383 172 172 292 383 171 171 317 382 170 170 308 386 93 93 311 385 94 94 309 384 92 92 307 387 95 95 311 385 94 94 308 386 93 93 307 387 95 95 244 263 96 96 311 385 94 94 245 264 97 97 244 263 96 96 307 387 95 95 211 389 226 226 239 256 143 143 229 388 225 225 209 390 141 141 239 256 143 143 211 389 226 226 299 209 117 117 254 209 202 202 260 209 115 115 256 209 204 204 254 209 202 202 299 209 117 117 299 336 231 231 258 336 232 232 256 336 230 230 298 336 233 233 258 336 232 232 299 336 231 231 309 392 92 92 312 368 219 219 315 391 218 218 311 367 94 94 312 368 219 219 309 392 92 92 238 393 261 261 219 393 174 174 218 393 173 173 268 393 262 262 219 393 174 174 238 393 261 261 242 394 197 197 314 371 220 220 244 369 96 96 240 395 195 195 314 371 220 220 242 394 197 197 178 180 130 130 92 184 133 133 90 396 134 134 180 182 132 132 92 184 133 133 178 180 130 130 214 397 224 224 239 256 143 143 216 258 194 194 229 388 225 225 239 256 143 143 214 397 224 224 219 399 139 139 269 295 138 138 217 398 140 140 268 293 137 137 269 295 138 138 219 399 139 139 215 401 259 259 269 295 138 138 228 400 260 260 217 398 140 140 269 295 138 138 215 401 259 259 207 402 162 162 274 402 264 264 319 402 263 263 208 402 163 163 274 402 264 264 207 402 162 162 131 403 240 240 128 403 241 241 130 403 239 239 316 403 242 242 128 403 241 241 131 403 240 240 316 406 245 245 125 405 246 246 126 404 244 244 283 407 247 247 125 405 246 246 316 406 245 245 143 140 103 103 266 290 101 101 145 142 102 102 304 357 265 265 266 290 101 101 143 140 103 103 320 408 249 249 129 315 96 96 280 313 219 219 282 317 220 220 129 315 96 96 320 408 249 249 273 356 145 145 319 410 144 144 272 409 146 146 239 256 143 143 319 410 144 144 273 356 145 145 284 411 251 251 280 412 252 252 279 411 250 250 282 412 253 253 280 412 252 252 284 411 251 251 284 413 248 248 125 405 246 246 283 407 247 247 279 414 266 266 125 405 246 246 284 413 248 248 323 415 48 48 322 416 49 49 321 415 47 47 324 417 50 50 322 416 49 49 323 415 48 48 324 417 50 50 325 418 51 51 322 416 49 49 326 418 52 52 325 418 51 51 324 417 50 50 326 418 52 52 327 419 53 53 325 418 51 51 328 419 54 54 327 419 53 53 326 418 52 52 321 415 81 81 329 420 82 82 323 415 80 80 330 420 83 83 329 420 82 82 321 415 81 81 330 420 83 83 331 421 55 55 329 420 82 82 332 421 84 84 331 421 55 55 330 420 83 83 212 422 223 223 269 295 138 138 210 302 216 216 228 400 260 260 269 295 138 138 212 422 223 223 249 268 257 257 169 171 256 256 247 266 258 258 171 173 255 255 169 171 256 256 249 268 257 257 246 245 153 153 250 245 155 155 248 245 267 267 172 245 154 154 250 245 155 155 246 245 153 153 100 107 74 74 166 168 77 77 107 105 78 78 98 167 72 72 166 168 77 77 100 107 74 74 247 266 148 148 167 169 125 125 246 265 147 147 169 171 127 127 167 169 125 125 247 266 148 148 254 423 202 202 257 347 109 109 261 345 111 111 255 424 203 203 257 347 109 109 254 423 202 202 136 133 103 103 223 237 108 108 138 135 105 105 305 359 268 268 223 237 108 108 136 133 103 103 235 252 118 118 260 425 115 115 233 250 159 159 300 426 116 116 260 425 115 115 235 252 118 118 163 310 123 123 94 92 68 68 278 308 217 217 96 94 70 70 94 92 68 68 163 310 123 123 152 215 112 112 258 279 157 157 203 213 158 158 259 280 110 110 258 279 157 157 152 215 112 112 334 428 202 202 146 143 109 109 333 427 203 203 148 145 111 111 146 143 109 109 334 428 202 202 159 221 121 121 231 248 189 189 204 219 159 159 230 247 188 188 231 248 189 189 159 221 121 121 146 430 109 109 202 211 157 157 296 429 204 204 147 210 110 110 202 211 157 157 146 430 109 109 333 432 203 203 296 429 204 204 334 431 202 202 146 430 109 109 296 429 204 204 333 432 203 203 93 91 65 65 201 208 64 64 91 89 66 66 124 206 63 63 201 208 64 64 93 91 65 65 155 245 117 117 334 245 202 202 296 245 204 204 153 245 115 115 334 245 202 202 155 245 117 117 207 433 142 142 239 256 143 143 209 390 141 141 319 410 144 144 239 256 143 143 207 433 142 142 204 435 208 208 150 284 209 209 148 434 207 207 231 285 210 210 150 284 209 209 204 435 208 208 331 421 55 55 327 419 53 53 328 419 54 54 332 421 84 84 327 419 53 53 331 421 55 55 7 7 7 7 84 81 60 60 5 5 5 5 9 9 9 9 84 81 60 60 7 7 7 7 153 436 206 206 148 434 207 207 334 436 205 205 204 435 208 208 148 434 207 207 153 436 206 206 86 83 7 7 9 9 9 9 11 11 8 8 84 81 60 60 9 9 9 9 86 83 7 7 203 336 269 269 297 336 234 234 202 336 232 232 258 336 232 232 297 336 234 234 203 336 269 269 335 437 58 58 85 82 5 5 275 303 3 3 83 80 59 59 85 82 5 5 335 437 58 58 294 209 185 185 288 438 186 186 318 209 184 184 295 438 187 187 288 438 186 186 294 209 185 185 291 439 173 173 187 383 172 172 186 439 174 174 292 383 171 171 187 383 172 172 291 439 173 173 50 50 18 18 14 14 12 12 12 12 11 11 52 52 32 32 14 14 12 12 50 50 18 18 251 440 261 261 186 440 174 174 184 440 262 262 291 440 173 173 186 440 174 174 251 440 261 261 189 441 162 162 225 441 264 264 286 441 163 163 191 441 263 263 225 441 264 264 189 441 162 162 336 336 272 272 179 336 271 271 177 336 270 270 337 336 270 270 179 336 271 271 336 336 272 272 45 45 28 28 33 33 27 27 68 68 26 26 35 35 29 29 33 33 27 27 45 45 28 28 295 442 166 166 287 381 165 165 288 442 167 167 188 381 164 164 287 381 165 165 295 442 166 166 26 26 21 21 65 65 46 46 24 24 19 19 28 28 23 23 65 65 46 46 26 26 21 21 66 66 21 21 28 28 23 23 30 30 22 22 65 65 46 46 28 28 23 23 66 66 21 21 293 443 183 183 318 209 184 184 317 443 182 182 294 209 185 185 318 209 184 184 293 443 183 183 20 20 15 15 109 108 34 34 22 22 17 17 53 53 33 33 109 108 34 34 20 20 15 15 119 209 236 236 198 209 152 152 118 209 154 154 113 209 267 267 114 209 155 155 194 209 153 153 119 116 91 91 117 114 89 89 197 201 127 127 193 444 275 275 225 444 274 274 191 444 273 273 184 445 278 278 182 445 277 277 251 445 276 276 227 243 181 181 285 322 222 222 185 189 138 138 253 274 201 201 285 335 229 229 190 194 143 143 288 325 223 223 185 189 138 138 318 379 260 260 249 268 87 87 173 175 88 88 171 173 89 89 173 245 156 156 250 245 155 155 172 245 154 154 269 295 138 138 271 297 214 214 303 350 222 222 274 446 274 274 272 446 275 275 319 446 273 273 236 447 277 277 268 447 278 278 238 447 276 276 298 336 233 233 297 336 234 234 258 336 232 232 54 336 281 281 338 336 280 280 90 336 279 279 54 448 284 284 78 448 283 283 338 448 282 282 336 449 285 285 338 449 282 282 78 449 283 283 177 450 288 288 178 450 287 287 90 450 286 286 338 451 290 290 336 451 289 289 90 451 286 286 177 452 288 288 90 452 286 286 336 452 289 289 54 453 284 284 55 453 291 291 78 453 283 283 81 454 294 294 336 454 293 293 78 454 292 292 80 455 295 295 81 455 294 294 78 455 292 292 79 456 296 296 80 456 295 295 78 456 292 292 304 357 268 268 143 140 103 103 141 138 108 108 304 357 238 238 264 288 212 212 266 290 101 101 339 336 280 280 124 336 281 281 93 336 279 279 336 457 285 285 306 457 283 283 339 457 282 282 124 458 284 284 339 458 282 282 306 458 283 283 181 459 287 287 337 459 288 288 93 459 286 286 337 460 288 288 336 460 289 289 93 460 286 286 339 461 290 290 93 461 286 286 336 461 289 289 123 462 291 291 124 462 284 284 306 462 283 283 306 463 292 292 81 463 294 294 63 463 295 295 336 464 293 293 81 464 294 294 306 464 292 292 64 465 296 296 306 465 292 292 63 465 295 295 337 466 129 129 181 183 130 130 179 181 131 131 134 131 101 101 305 359 265 265 136 133 103 103 223 237 108 108 305 359 237 237 221 235 176 176 240 395 195 195 310 467 221 221 314 371 220 220 315 468 266 266 310 366 248 248 309 364 246 246 126 403 243 243 128 403 241 241 316 403 242 242 280 412 252 252 282 412 253 253 320 469 254 254 276 304 4 4 13 13 6 6 15 15 2 2 29 29 24 24 27 27 22 22 31 31 25 25</p>
				</triangles>
			</mesh>
		</geometry>
		<geometry id="polygon1" name="polygon1">
			<mesh>
				<source id="polygon1_Positions">
					<float_array id="polygon1_PosArr" count="24">-0.8339844 4.099826 2.25 -1.555298 4.338352 1.780151 -0.6361084 4.589694 2.155029 -1.368774 4.860202 1.695435 1.368774 4.860202 1.695435 1.555298 4.338352 1.780151 0.6361084 4.589694 2.155029 0.8339844 4.099826 2.25</float_array>
					<technique_common>
						<accessor source="#polygon1_PosArr" count="8" stride="3">
							<param name="X" type="float" />
							<param name="Y" type="float" />
							<param name="Z" type="float" />
						</accessor>
					</technique_common>
				</source>
				<source id="polygon1_UVs0">
					<float_array id="polygon1_UVArr0" count="8">0.1367188 0.1210938 0.875 0.1210938 0.1367188 0.5625 0.875 0.5625</float_array>
					<technique_common>
						<accessor source="#polygon1_UVArr0" count="4" stride="2">
							<param name="S" type="float" />
							<param name="T" type="float" />
						</accessor>
					</technique_common>
				</source>
				<vertices id="polygon1_Vertices">
					<input semantic="POSITION" source="#polygon1_Positions" />
				</vertices>
				<triangles material="eye__enAdd__" count="4">
					<input semantic="VERTEX" source="#polygon1_Vertices" offset="0" />
					<input semantic="TEXCOORD" source="#polygon1_UVs0" set="0" offset="1" />
					<p>2 2 1 1 0 0 3 3 1 1 2 2 6 2 5 1 4 3 7 0 5 1 6 2</p>
				</triangles>
			</mesh>
		</geometry>
		<geometry id="polygon2" name="polygon2">
			<mesh>
				<source id="polygon2_Positions">
					<float_array id="polygon2_PosArr" count="147">-1.041504 0.446018 -2.961782E-08 -0.7231445 0.446018 0.7060547 -0.6416016 0.1047094 -3.377085E-08 0 0.1047094 0.6674804 0 -0.1155055 -3.645042E-08 0.6416016 0.1047094 -3.377085E-08 0 0.1047094 -0.6674805 0.7231445 0.446018 -0.7060547 0 0.446018 -1.04834 -5.179199 2.410862 2.270996 -5.488281 2.196995 2.856445 -6.103516 2.620334 1.696289 -6.660156 2.457248 2.141113 -6.775391 2.930393 0.8447266 -7.421387 2.858127 1.039551 -7.616699 3.236545 4.337214E-09 5.179199 2.410862 -2.270996 5.488281 2.196995 -2.856445 6.103516 2.620334 -1.696289 6.660156 2.457248 -2.141113 6.775391 2.930393 -0.8447266 7.421387 2.858127 -1.039551 7.616699 3.236545 4.337214E-09 0 0.446018 1.04834 0.7231445 0.446018 0.7060547 1.041504 0.446018 -2.961782E-08 -5.488281 4.276585 -2.856445 -6.103516 3.854709 -1.695801 -6.660156 4.015842 -2.141602 -6.775391 3.544651 -0.8442383 -7.421387 3.614963 -1.039551 5.488281 4.276584 2.856445 6.103516 3.854709 1.695801 6.660156 4.015842 2.141602 6.775391 3.544651 0.8442383 7.421387 3.614963 1.039551 -4.116699 4.341526 -3.035156 -4.085449 4.132053 -2.460449 -5.179199 4.064182 -2.270508 4.116699 4.341526 3.035156 4.085449 4.132053 2.460449 5.179199 4.064182 2.270508 -0.7231445 0.446018 -0.7060547 -4.116699 2.132053 3.034668 -4.085449 2.341038 2.460449 -6.919434 3.237522 4.349097E-09 4.116699 2.132053 -3.034668 4.085449 2.341038 -2.460449 6.919434 3.237522 4.349097E-09</float_array>
					<technique_common>
						<accessor source="#polygon2_PosArr" count="49" stride="3">
							<param name="X" type="float" />
							<param name="Y" type="float" />
							<param name="Z" type="float" />
						</accessor>
					</technique_common>
				</source>
				<source id="polygon2_UVs0">
					<float_array id="polygon2_UVArr0" count="54">0.9179688 0.6679688 0.890625 0.734375 0.8828125 0.6679688 0.8203125 0.734375 0.8203125 0.6679688 0.8203125 0.5976563 0.890625 0.5976563 0.8203125 0.5625 0.8242188 0.0703125 0.84375 0.02734375 0.8867188 0.109375 0.921875 0.078125 0.9296875 0.1679688 0.9726563 0.1523438 0.984375 0.2265625 0.828125 0.3867188 0.8476563 0.4296875 0.8867188 0.3476563 0.921875 0.3789063 0.9296875 0.2890625 0.9726563 0.3007813 0.8203125 0.7695313 0.7578125 0.4414063 0.7539063 0.3984375 0.7539063 0.015625 0.75 0.0546875 0.9414063 0.2265625</float_array>
					<technique_common>
						<accessor source="#polygon2_UVArr0" count="27" stride="2">
							<param name="S" type="float" />
							<param name="T" type="float" />
						</accessor>
					</technique_common>
				</source>
				<vertices id="polygon2_Vertices">
					<input semantic="POSITION" source="#polygon2_Positions" />
				</vertices>
				<triangles material="light__enLuminouseO__D__" count="48">
					<input semantic="VERTEX" source="#polygon2_Vertices" offset="0" />
					<input semantic="TEXCOORD" source="#polygon2_UVs0" set="0" offset="1" />
					<p>2 2 1 1 0 0 3 3 1 1 2 2 4 4 3 3 2 2 5 2 3 3 4 4 6 5 5 2 4 4 7 6 5 2 6 5 8 7 7 6 6 5 11 10 10 9 9 8 12 11 10 9 11 10 13 12 12 11 11 10 14 13 12 11 13 12 15 14 14 13 13 12 18 17 17 16 16 15 19 18 17 16 18 17 20 19 19 18 18 17 21 20 19 18 20 19 22 14 21 20 20 19 3 3 23 21 1 1 24 1 23 21 3 3 5 2 24 1 3 3 25 0 24 1 5 2 7 6 25 0 5 2 28 18 27 17 26 16 29 19 27 17 28 18 30 20 29 19 28 18 15 14 29 19 30 20 33 11 32 10 31 9 34 12 32 10 33 11 35 13 34 12 33 11 22 14 34 12 35 13 26 16 37 23 36 22 38 15 37 23 26 16 27 17 38 15 26 16 31 9 40 25 39 24 41 8 40 25 31 9 32 10 41 8 31 9 6 5 42 6 8 7 2 2 42 6 6 5 4 4 2 2 6 5 44 25 10 9 43 24 9 8 10 9 44 25 15 14 45 26 29 19 13 12 45 26 15 14 47 23 17 16 46 22 16 15 17 16 47 23 48 26 22 14 20 19 34 12 22 14 48 26 2 2 0 0 42 6</p>
				</triangles>
			</mesh>
		</geometry>
	</library_geometries>
	<library_controllers>
		<controller id="polygon0_Controller">
			<skin source="#polygon0">
				<bind_shape_matrix>1 0 0 0 0 1 0 0 0 0 1 0 0 0 0 1</bind_shape_matrix>
				<source id="polygon0_Joints">
					<Name_array id="polygon0_JointArr" count="7">Root Mesh Reference Hips Head Body Parts</Name_array>
					<technique_common>
						<accessor source="#polygon0_JointArr" count="7">
							<param name="JOINT" type="Name" />
						</accessor>
					</technique_common>
				</source>
				<source id="polygon0_Matrices">
					<float_array id="polygon0_MatArr" count="112">1 0 0 0 0 1 0 0 0 0 1 0 0 0 0 1 1 0 0 0 0 1 0 -2.8801 0 0 1 0 0 0 0 1 1 0 0 0 0 1 0 0 0 0 1 0 0 0 0 1 1 0 0 0 0 1 0 -2.8801 0 0 1 0 0 0 0 1 1 0 0 0 0 0 -1 0 0 1 0 -2.8801 0 0 0 1 1 0 0 0 0 0 -1 0 0 1 0 -2.8801 0 0 0 1 1 0 0 0 0 0 -1 0 0 1 0 -2.8801 0 0 0 1</float_array>
					<technique_common>
						<accessor source="#polygon0_MatArr" count="7" stride="16">
							<param type="float4x4" />
						</accessor>
					</technique_common>
				</source>
				<source id="polygon0_Weights">
					<float_array id="polygon0_WeightArr" count="1">1</float_array>
					<technique_common>
						<accessor source="#polygon0_WeightArr" count="1">
							<param type="float" />
						</accessor>
					</technique_common>
				</source>
				<joints>
					<input semantic="JOINT" source="#polygon0_Joints" />
					<input semantic="INV_BIND_MATRIX" source="#polygon0_Matrices" />
				</joints>
				<vertex_weights count="340">
					<input semantic="JOINT" offset="0" source="#polygon0_Joints" />
					<input semantic="WEIGHT" offset="1" source="#polygon0_Weights" />
					<vcount>1 1 1 1 1 1 1 1 1 1 1 1 1 1 1 1 1 1 1 1 1 1 1 1 1 1 1 1 1 1 1 1 1 1 1 1 1 1 1 1 1 1 1 1 1 1 1 1 1 1 1 1 1 1 1 1 1 1 1 1 1 1 1 1 1 1 1 1 1 1 1 1 1 1 1 1 1 1 1 1 1 1 1 1 1 1 1 1 1 1 1 1 1 1 1 1 1 1 1 1 1 1 1 1 1 1 1 1 1 1 1 1 1 1 1 1 1 1 1 1 1 1 1 1 1 1 1 1 1 1 1 1 1 1 1 1 1 1 1 1 1 1 1 1 1 1 1 1 1 1 1 1 1 1 1 1 1 1 1 1 1 1 1 1 1 1 1 1 1 1 1 1 1 1 1 1 1 1 1 1 1 1 1 1 1 1 1 1 1 1 1 1 1 1 1 1 1 1 1 1 1 1 1 1 1 1 1 1 1 1 1 1 1 1 1 1 1 1 1 1 1 1 1 1 1 1 1 1 1 1 1 1 1 1 1 1 1 1 1 1 1 1 1 1 1 1 1 1 1 1 1 1 1 1 1 1 1 1 1 1 1 1 1 1 1 1 1 1 1 1 1 1 1 1 1 1 1 1 1 1 1 1 1 1 1 1 1 1 1 1 1 1 1 1 1 1 1 1 1 1 1 1 1 1 1 1 1 1 1 1 1 1 1 1 1 1 1 1 1 1 1 1 1 1 1 1 1 1 1 1 1 1 1 1 1 1 1 1 1 1</vcount>
					<v>4 0 4 0 4 0 4 0 4 0 4 0 4 0 4 0 4 0 4 0 4 0 4 0 4 0 4 0 4 0 4 0 4 0 4 0 4 0 4 0 4 0 4 0 4 0 4 0 4 0 4 0 4 0 4 0 4 0 4 0 4 0 4 0 4 0 4 0 4 0 4 0 4 0 4 0 4 0 4 0 4 0 4 0 4 0 4 0 4 0 4 0 4 0 4 0 4 0 4 0 4 0 4 0 4 0 4 0 5 0 5 0 5 0 5 0 5 0 5 0 5 0 5 0 5 0 5 0 5 0 4 0 4 0 4 0 4 0 4 0 4 0 4 0 4 0 4 0 4 0 4 0 4 0 4 0 5 0 5 0 5 0 5 0 4 0 4 0 4 0 4 0 4 0 5 0 5 0 5 0 5 0 5 0 5 0 5 0 5 0 5 0 5 0 5 0 5 0 5 0 5 0 5 0 5 0 5 0 5 0 5 0 5 0 5 0 5 0 4 0 4 0 4 0 4 0 6 0 6 0 6 0 6 0 6 0 6 0 6 0 5 0 5 0 5 0 5 0 5 0 4 0 4 0 4 0 4 0 4 0 4 0 4 0 5 0 5 0 5 0 5 0 5 0 5 0 5 0 5 0 5 0 5 0 5 0 5 0 5 0 5 0 6 0 6 0 6 0 6 0 6 0 6 0 6 0 6 0 6 0 6 0 6 0 6 0 6 0 6 0 5 0 5 0 5 0 5 0 5 0 5 0 5 0 6 0 6 0 6 0 6 0 6 0 6 0 6 0 5 0 5 0 5 0 5 0 5 0 5 0 5 0 5 0 6 0 6 0 6 0 6 0 6 0 6 0 6 0 6 0 6 0 6 0 6 0 6 0 6 0 6 0 6 0 6 0 6 0 5 0 5 0 5 0 6 0 6 0 6 0 5 0 5 0 6 0 6 0 6 0 6 0 6 0 6 0 5 0 6 0 6 0 6 0 6 0 6 0 6 0 5 0 5 0 5 0 5 0 5 0 6 0 6 0 6 0 6 0 6 0 6 0 6 0 6 0 6 0 6 0 6 0 6 0 6 0 6 0 6 0 4 0 4 0 4 0 4 0 4 0 4 0 6 0 6 0 6 0 6 0 6 0 6 0 6 0 6 0 6 0 6 0 6 0 6 0 6 0 6 0 6 0 6 0 4 0 5 0 5 0 5 0 5 0 5 0 6 0 6 0 6 0 6 0 6 0 6 0 6 0 4 0 4 0 5 0 5 0 4 0 4 0 4 0 4 0 4 0 4 0 6 0 6 0 6 0 6 0 5 0 4 0 6 0 6 0 6 0 6 0 6 0 6 0 6 0 6 0 6 0 6 0 6 0 6 0 6 0 5 0 5 0 5 0 4 0 4 0 4 0 4 0 4 0 4 0 4 0 4 0 4 0 4 0 6 0 6 0 6 0 4 0 4 0 4 0 4 0 4 0 4 0 4 0 4 0 4 0 4 0 4 0 4 0 4 0 6 0 6 0 4 0 5 0 5 0 5 0 5 0</v>
				</vertex_weights>
			</skin>
		</controller>
		<controller id="polygon1_Controller">
			<skin source="#polygon1">
				<bind_shape_matrix>1 0 0 0 0 1 0 0 0 0 1 0 0 0 0 1</bind_shape_matrix>
				<source id="polygon1_Joints">
					<Name_array id="polygon1_JointArr" count="7">Root Mesh Reference Hips Head Body Parts</Name_array>
					<technique_common>
						<accessor source="#polygon1_JointArr" count="7">
							<param name="JOINT" type="Name" />
						</accessor>
					</technique_common>
				</source>
				<source id="polygon1_Matrices">
					<float_array id="polygon1_MatArr" count="112">1 0 0 0 0 1 0 0 0 0 1 0 0 0 0 1 1 0 0 0 0 1 0 -2.8801 0 0 1 0 0 0 0 1 1 0 0 0 0 1 0 0 0 0 1 0 0 0 0 1 1 0 0 0 0 1 0 -2.8801 0 0 1 0 0 0 0 1 1 0 0 0 0 0 -1 0 0 1 0 -2.8801 0 0 0 1 1 0 0 0 0 0 -1 0 0 1 0 -2.8801 0 0 0 1 1 0 0 0 0 0 -1 0 0 1 0 -2.8801 0 0 0 1</float_array>
					<technique_common>
						<accessor source="#polygon1_MatArr" count="7" stride="16">
							<param type="float4x4" />
						</accessor>
					</technique_common>
				</source>
				<source id="polygon1_Weights">
					<float_array id="polygon1_WeightArr" count="1">1</float_array>
					<technique_common>
						<accessor source="#polygon1_WeightArr" count="1">
							<param type="float" />
						</accessor>
					</technique_common>
				</source>
				<joints>
					<input semantic="JOINT" source="#polygon1_Joints" />
					<input semantic="INV_BIND_MATRIX" source="#polygon1_Matrices" />
				</joints>
				<vertex_weights count="8">
					<input semantic="JOINT" offset="0" source="#polygon1_Joints" />
					<input semantic="WEIGHT" offset="1" source="#polygon1_Weights" />
					<vcount>1 1 1 1 1 1 1 1</vcount>
					<v>4 0 4 0 4 0 4 0 4 0 4 0 4 0 4 0</v>
				</vertex_weights>
			</skin>
		</controller>
		<controller id="polygon2_Controller">
			<skin source="#polygon2">
				<bind_shape_matrix>1 0 0 0 0 1 0 0 0 0 1 0 0 0 0 1</bind_shape_matrix>
				<source id="polygon2_Joints">
					<Name_array id="polygon2_JointArr" count="7">Root Mesh Reference Hips Head Body Parts</Name_array>
					<technique_common>
						<accessor source="#polygon2_JointArr" count="7">
							<param name="JOINT" type="Name" />
						</accessor>
					</technique_common>
				</source>
				<source id="polygon2_Matrices">
					<float_array id="polygon2_MatArr" count="112">1 0 0 0 0 1 0 0 0 0 1 0 0 0 0 1 1 0 0 0 0 1 0 -2.8801 0 0 1 0 0 0 0 1 1 0 0 0 0 1 0 0 0 0 1 0 0 0 0 1 1 0 0 0 0 1 0 -2.8801 0 0 1 0 0 0 0 1 1 0 0 0 0 0 -1 0 0 1 0 -2.8801 0 0 0 1 1 0 0 0 0 0 -1 0 0 1 0 -2.8801 0 0 0 1 1 0 0 0 0 0 -1 0 0 1 0 -2.8801 0 0 0 1</float_array>
					<technique_common>
						<accessor source="#polygon2_MatArr" count="7" stride="16">
							<param type="float4x4" />
						</accessor>
					</technique_common>
				</source>
				<source id="polygon2_Weights">
					<float_array id="polygon2_WeightArr" count="1">1</float_array>
					<technique_common>
						<accessor source="#polygon2_WeightArr" count="1">
							<param type="float" />
						</accessor>
					</technique_common>
				</source>
				<joints>
					<input semantic="JOINT" source="#polygon2_Joints" />
					<input semantic="INV_BIND_MATRIX" source="#polygon2_Matrices" />
				</joints>
				<vertex_weights count="49">
					<input semantic="JOINT" offset="0" source="#polygon2_Joints" />
					<input semantic="WEIGHT" offset="1" source="#polygon2_Weights" />
					<vcount>1 1 1 1 1 1 1 1 1 1 1 1 1 1 1 1 1 1 1 1 1 1 1 1 1 1 1 1 1 1 1 1 1 1 1 1 1 1 1 1 1 1 1 1 1 1 1 1 1</vcount>
					<v>5 0 5 0 5 0 5 0 5 0 5 0 5 0 5 0 5 0 6 0 6 0 6 0 6 0 6 0 6 0 6 0 6 0 6 0 6 0 6 0 6 0 6 0 6 0 5 0 5 0 5 0 6 0 6 0 6 0 6 0 6 0 6 0 6 0 6 0 6 0 6 0 6 0 6 0 6 0 6 0 6 0 6 0 5 0 6 0 6 0 6 0 6 0 6 0 6 0</v>
				</vertex_weights>
			</skin>
		</controller>
	</library_controllers>
	<library_visual_scenes>
		<visual_scene id="RootNode" name="RootNode">
			<node id="Root" name="Root" sid="Root" type="JOINT">
				<node id="Mesh" name="Mesh" sid="Mesh" type="JOINT">
					<translate>0 2.8801 0</translate>
				</node>
				<node id="Reference" name="Reference" sid="Reference" type="JOINT">
					<node id="Hips" name="Hips" sid="Hips" type="JOINT">
						<translate>0 2.8801 0</translate>
						<node id="Head" name="Head" sid="Head" type="JOINT">
							<rotate>1 0 0 -90</rotate>
							<node id="Body" name="Body" sid="Body" type="JOINT" />
						</node>
						<node id="Parts" name="Parts" sid="Parts" type="JOINT">
							<rotate>1 0 0 -90</rotate>
						</node>
					</node>
				</node>
			</node>
			<node id="polygon0" name="polygon0" type="NODE">
				<instance_controller url="#polygon0_Controller">
					<skeleton>#Root</skeleton>
					<bind_material>
						<technique_common>
							<instance_material symbol="body__enMetal__" target="#body__enMetal__">
								<bind_vertex_input semantic="TEXCOORD0" input_semantic="TEXCOORD" input_set="0" />
								<bind_vertex_input semantic="TEXCOORD0" input_semantic="TEXCOORD" input_set="0" />
								<bind_vertex_input semantic="TEXCOORD0" input_semantic="TEXCOORD" input_set="0" />
								<bind_vertex_input semantic="TEXCOORD1" input_semantic="TEXCOORD" input_set="1" />
							</instance_material>
						</technique_common>
					</bind_material>
				</instance_controller>
			</node>
			<node id="polygon1" name="polygon1" type="NODE">
				<instance_controller url="#polygon1_Controller">
					<skeleton>#Root</skeleton>
					<bind_material>
						<technique_common>
							<instance_material symbol="eye__enAdd__" target="#eye__enAdd__">
								<bind_vertex_input semantic="TEXCOORD0" input_semantic="TEXCOORD" input_set="0" />
							</instance_material>
						</technique_common>
					</bind_material>
				</instance_controller>
			</node>
			<node id="polygon2" name="polygon2" type="NODE">
				<instance_controller url="#polygon2_Controller">
					<skeleton>#Root</skeleton>
					<bind_material>
						<technique_common>
							<instance_material symbol="light__enLuminouseO__D__" target="#light__enLuminouseO__D__">
								<bind_vertex_input semantic="TEXCOORD0" input_semantic="TEXCOORD" input_set="0" />
							</instance_material>
						</technique_common>
					</bind_material>
				</instance_controller>
			</node>
		</visual_scene>
	</library_visual_scenes>
	<scene>
		<instance_visual_scene url="#RootNode" />
	</scene>
</COLLADA>